%TF.GenerationSoftware,KiCad,Pcbnew,5.99.0+really5.1.10+dfsg1-1*%
%TF.CreationDate,2022-01-09T16:24:13+01:00*%
%TF.ProjectId,ram_ps1_2121,72616d5f-7073-4315-9f32-3132312e6b69,rev?*%
%TF.SameCoordinates,Original*%
%TF.FileFunction,Copper,L2,Bot*%
%TF.FilePolarity,Positive*%
%FSLAX46Y46*%
G04 Gerber Fmt 4.6, Leading zero omitted, Abs format (unit mm)*
G04 Created by KiCad (PCBNEW 5.99.0+really5.1.10+dfsg1-1) date 2022-01-09 16:24:13*
%MOMM*%
%LPD*%
G01*
G04 APERTURE LIST*
%ADD10C,0.100000*%
%ADD11C,0.150000*%
%ADD12C,0.300000*%
%ADD13C,0.400000*%
%TA.AperFunction,ConnectorPad*%
%ADD14R,1.780000X7.620000*%
%TD*%
%TA.AperFunction,ViaPad*%
%ADD15C,0.800000*%
%TD*%
%TA.AperFunction,Conductor*%
%ADD16C,0.250000*%
%TD*%
%TA.AperFunction,Conductor*%
%ADD17C,0.254000*%
%TD*%
%TA.AperFunction,Conductor*%
%ADD18C,0.100000*%
%TD*%
G04 APERTURE END LIST*
D10*
D11*
X177002200Y-166007200D02*
X177002200Y-198007200D01*
X285002200Y-198007200D01*
X285002200Y-166007200D01*
X177002200Y-166007200D01*
D10*
D11*
X10000000Y-10000000D02*
X10000000Y-200007200D01*
X287002200Y-200007200D01*
X287002200Y-10000000D01*
X10000000Y-10000000D01*
D10*
D11*
X12000000Y-12000000D02*
X12000000Y-198007200D01*
X285002200Y-198007200D01*
X285002200Y-12000000D01*
X12000000Y-12000000D01*
D10*
D11*
X60000000Y-12000000D02*
X60000000Y-10000000D01*
D10*
D11*
X110000000Y-12000000D02*
X110000000Y-10000000D01*
D10*
D11*
X160000000Y-12000000D02*
X160000000Y-10000000D01*
D10*
D11*
X210000000Y-12000000D02*
X210000000Y-10000000D01*
D10*
D11*
X260000000Y-12000000D02*
X260000000Y-10000000D01*
D10*
D11*
X36065476Y-11588095D02*
X35322619Y-11588095D01*
X35694047Y-11588095D02*
X35694047Y-10288095D01*
X35570238Y-10473809D01*
X35446428Y-10597619D01*
X35322619Y-10659523D01*
D10*
D11*
X85322619Y-10411904D02*
X85384523Y-10350000D01*
X85508333Y-10288095D01*
X85817857Y-10288095D01*
X85941666Y-10350000D01*
X86003571Y-10411904D01*
X86065476Y-10535714D01*
X86065476Y-10659523D01*
X86003571Y-10845238D01*
X85260714Y-11588095D01*
X86065476Y-11588095D01*
D10*
D11*
X135260714Y-10288095D02*
X136065476Y-10288095D01*
X135632142Y-10783333D01*
X135817857Y-10783333D01*
X135941666Y-10845238D01*
X136003571Y-10907142D01*
X136065476Y-11030952D01*
X136065476Y-11340476D01*
X136003571Y-11464285D01*
X135941666Y-11526190D01*
X135817857Y-11588095D01*
X135446428Y-11588095D01*
X135322619Y-11526190D01*
X135260714Y-11464285D01*
D10*
D11*
X185941666Y-10721428D02*
X185941666Y-11588095D01*
X185632142Y-10226190D02*
X185322619Y-11154761D01*
X186127380Y-11154761D01*
D10*
D11*
X236003571Y-10288095D02*
X235384523Y-10288095D01*
X235322619Y-10907142D01*
X235384523Y-10845238D01*
X235508333Y-10783333D01*
X235817857Y-10783333D01*
X235941666Y-10845238D01*
X236003571Y-10907142D01*
X236065476Y-11030952D01*
X236065476Y-11340476D01*
X236003571Y-11464285D01*
X235941666Y-11526190D01*
X235817857Y-11588095D01*
X235508333Y-11588095D01*
X235384523Y-11526190D01*
X235322619Y-11464285D01*
D10*
D11*
X285941666Y-10288095D02*
X285694047Y-10288095D01*
X285570238Y-10350000D01*
X285508333Y-10411904D01*
X285384523Y-10597619D01*
X285322619Y-10845238D01*
X285322619Y-11340476D01*
X285384523Y-11464285D01*
X285446428Y-11526190D01*
X285570238Y-11588095D01*
X285817857Y-11588095D01*
X285941666Y-11526190D01*
X286003571Y-11464285D01*
X286065476Y-11340476D01*
X286065476Y-11030952D01*
X286003571Y-10907142D01*
X285941666Y-10845238D01*
X285817857Y-10783333D01*
X285570238Y-10783333D01*
X285446428Y-10845238D01*
X285384523Y-10907142D01*
X285322619Y-11030952D01*
D10*
D11*
X60000000Y-198007200D02*
X60000000Y-200007200D01*
D10*
D11*
X110000000Y-198007200D02*
X110000000Y-200007200D01*
D10*
D11*
X160000000Y-198007200D02*
X160000000Y-200007200D01*
D10*
D11*
X210000000Y-198007200D02*
X210000000Y-200007200D01*
D10*
D11*
X260000000Y-198007200D02*
X260000000Y-200007200D01*
D10*
D11*
X36065476Y-199595295D02*
X35322619Y-199595295D01*
X35694047Y-199595295D02*
X35694047Y-198295295D01*
X35570238Y-198481009D01*
X35446428Y-198604819D01*
X35322619Y-198666723D01*
D10*
D11*
X85322619Y-198419104D02*
X85384523Y-198357200D01*
X85508333Y-198295295D01*
X85817857Y-198295295D01*
X85941666Y-198357200D01*
X86003571Y-198419104D01*
X86065476Y-198542914D01*
X86065476Y-198666723D01*
X86003571Y-198852438D01*
X85260714Y-199595295D01*
X86065476Y-199595295D01*
D10*
D11*
X135260714Y-198295295D02*
X136065476Y-198295295D01*
X135632142Y-198790533D01*
X135817857Y-198790533D01*
X135941666Y-198852438D01*
X136003571Y-198914342D01*
X136065476Y-199038152D01*
X136065476Y-199347676D01*
X136003571Y-199471485D01*
X135941666Y-199533390D01*
X135817857Y-199595295D01*
X135446428Y-199595295D01*
X135322619Y-199533390D01*
X135260714Y-199471485D01*
D10*
D11*
X185941666Y-198728628D02*
X185941666Y-199595295D01*
X185632142Y-198233390D02*
X185322619Y-199161961D01*
X186127380Y-199161961D01*
D10*
D11*
X236003571Y-198295295D02*
X235384523Y-198295295D01*
X235322619Y-198914342D01*
X235384523Y-198852438D01*
X235508333Y-198790533D01*
X235817857Y-198790533D01*
X235941666Y-198852438D01*
X236003571Y-198914342D01*
X236065476Y-199038152D01*
X236065476Y-199347676D01*
X236003571Y-199471485D01*
X235941666Y-199533390D01*
X235817857Y-199595295D01*
X235508333Y-199595295D01*
X235384523Y-199533390D01*
X235322619Y-199471485D01*
D10*
D11*
X285941666Y-198295295D02*
X285694047Y-198295295D01*
X285570238Y-198357200D01*
X285508333Y-198419104D01*
X285384523Y-198604819D01*
X285322619Y-198852438D01*
X285322619Y-199347676D01*
X285384523Y-199471485D01*
X285446428Y-199533390D01*
X285570238Y-199595295D01*
X285817857Y-199595295D01*
X285941666Y-199533390D01*
X286003571Y-199471485D01*
X286065476Y-199347676D01*
X286065476Y-199038152D01*
X286003571Y-198914342D01*
X285941666Y-198852438D01*
X285817857Y-198790533D01*
X285570238Y-198790533D01*
X285446428Y-198852438D01*
X285384523Y-198914342D01*
X285322619Y-199038152D01*
D10*
D11*
X10000000Y-60000000D02*
X12000000Y-60000000D01*
D10*
D11*
X10000000Y-110000000D02*
X12000000Y-110000000D01*
D10*
D11*
X10000000Y-160000000D02*
X12000000Y-160000000D01*
D10*
D11*
X10690476Y-35216666D02*
X11309523Y-35216666D01*
X10566666Y-35588095D02*
X11000000Y-34288095D01*
X11433333Y-35588095D01*
D10*
D11*
X11092857Y-84907142D02*
X11278571Y-84969047D01*
X11340476Y-85030952D01*
X11402380Y-85154761D01*
X11402380Y-85340476D01*
X11340476Y-85464285D01*
X11278571Y-85526190D01*
X11154761Y-85588095D01*
X10659523Y-85588095D01*
X10659523Y-84288095D01*
X11092857Y-84288095D01*
X11216666Y-84350000D01*
X11278571Y-84411904D01*
X11340476Y-84535714D01*
X11340476Y-84659523D01*
X11278571Y-84783333D01*
X11216666Y-84845238D01*
X11092857Y-84907142D01*
X10659523Y-84907142D01*
D10*
D11*
X11402380Y-135464285D02*
X11340476Y-135526190D01*
X11154761Y-135588095D01*
X11030952Y-135588095D01*
X10845238Y-135526190D01*
X10721428Y-135402380D01*
X10659523Y-135278571D01*
X10597619Y-135030952D01*
X10597619Y-134845238D01*
X10659523Y-134597619D01*
X10721428Y-134473809D01*
X10845238Y-134350000D01*
X11030952Y-134288095D01*
X11154761Y-134288095D01*
X11340476Y-134350000D01*
X11402380Y-134411904D01*
D10*
D11*
X10659523Y-185588095D02*
X10659523Y-184288095D01*
X10969047Y-184288095D01*
X11154761Y-184350000D01*
X11278571Y-184473809D01*
X11340476Y-184597619D01*
X11402380Y-184845238D01*
X11402380Y-185030952D01*
X11340476Y-185278571D01*
X11278571Y-185402380D01*
X11154761Y-185526190D01*
X10969047Y-185588095D01*
X10659523Y-185588095D01*
D10*
D11*
X287002200Y-60000000D02*
X285002200Y-60000000D01*
D10*
D11*
X287002200Y-110000000D02*
X285002200Y-110000000D01*
D10*
D11*
X287002200Y-160000000D02*
X285002200Y-160000000D01*
D10*
D11*
X285692676Y-35216666D02*
X286311723Y-35216666D01*
X285568866Y-35588095D02*
X286002200Y-34288095D01*
X286435533Y-35588095D01*
D10*
D11*
X286095057Y-84907142D02*
X286280771Y-84969047D01*
X286342676Y-85030952D01*
X286404580Y-85154761D01*
X286404580Y-85340476D01*
X286342676Y-85464285D01*
X286280771Y-85526190D01*
X286156961Y-85588095D01*
X285661723Y-85588095D01*
X285661723Y-84288095D01*
X286095057Y-84288095D01*
X286218866Y-84350000D01*
X286280771Y-84411904D01*
X286342676Y-84535714D01*
X286342676Y-84659523D01*
X286280771Y-84783333D01*
X286218866Y-84845238D01*
X286095057Y-84907142D01*
X285661723Y-84907142D01*
D10*
D11*
X286404580Y-135464285D02*
X286342676Y-135526190D01*
X286156961Y-135588095D01*
X286033152Y-135588095D01*
X285847438Y-135526190D01*
X285723628Y-135402380D01*
X285661723Y-135278571D01*
X285599819Y-135030952D01*
X285599819Y-134845238D01*
X285661723Y-134597619D01*
X285723628Y-134473809D01*
X285847438Y-134350000D01*
X286033152Y-134288095D01*
X286156961Y-134288095D01*
X286342676Y-134350000D01*
X286404580Y-134411904D01*
D10*
D11*
X285661723Y-185588095D02*
X285661723Y-184288095D01*
X285971247Y-184288095D01*
X286156961Y-184350000D01*
X286280771Y-184473809D01*
X286342676Y-184597619D01*
X286404580Y-184845238D01*
X286404580Y-185030952D01*
X286342676Y-185278571D01*
X286280771Y-185402380D01*
X286156961Y-185526190D01*
X285971247Y-185588095D01*
X285661723Y-185588095D01*
D10*
D11*
X200434342Y-193785771D02*
X200434342Y-192285771D01*
X200791485Y-192285771D01*
X201005771Y-192357200D01*
X201148628Y-192500057D01*
X201220057Y-192642914D01*
X201291485Y-192928628D01*
X201291485Y-193142914D01*
X201220057Y-193428628D01*
X201148628Y-193571485D01*
X201005771Y-193714342D01*
X200791485Y-193785771D01*
X200434342Y-193785771D01*
X202577200Y-193785771D02*
X202577200Y-193000057D01*
X202505771Y-192857200D01*
X202362914Y-192785771D01*
X202077200Y-192785771D01*
X201934342Y-192857200D01*
X202577200Y-193714342D02*
X202434342Y-193785771D01*
X202077200Y-193785771D01*
X201934342Y-193714342D01*
X201862914Y-193571485D01*
X201862914Y-193428628D01*
X201934342Y-193285771D01*
X202077200Y-193214342D01*
X202434342Y-193214342D01*
X202577200Y-193142914D01*
X203077200Y-192785771D02*
X203648628Y-192785771D01*
X203291485Y-192285771D02*
X203291485Y-193571485D01*
X203362914Y-193714342D01*
X203505771Y-193785771D01*
X203648628Y-193785771D01*
X204720057Y-193714342D02*
X204577200Y-193785771D01*
X204291485Y-193785771D01*
X204148628Y-193714342D01*
X204077200Y-193571485D01*
X204077200Y-193000057D01*
X204148628Y-192857200D01*
X204291485Y-192785771D01*
X204577200Y-192785771D01*
X204720057Y-192857200D01*
X204791485Y-193000057D01*
X204791485Y-193142914D01*
X204077200Y-193285771D01*
X205434342Y-193642914D02*
X205505771Y-193714342D01*
X205434342Y-193785771D01*
X205362914Y-193714342D01*
X205434342Y-193642914D01*
X205434342Y-193785771D01*
X205434342Y-192857200D02*
X205505771Y-192928628D01*
X205434342Y-193000057D01*
X205362914Y-192928628D01*
X205434342Y-192857200D01*
X205434342Y-193000057D01*
D10*
D11*
X177002200Y-194507200D02*
X285002200Y-194507200D01*
D10*
D11*
X178434342Y-196585771D02*
X178434342Y-195085771D01*
X179291485Y-196585771D02*
X178648628Y-195728628D01*
X179291485Y-195085771D02*
X178434342Y-195942914D01*
X179934342Y-196585771D02*
X179934342Y-195585771D01*
X179934342Y-195085771D02*
X179862914Y-195157200D01*
X179934342Y-195228628D01*
X180005771Y-195157200D01*
X179934342Y-195085771D01*
X179934342Y-195228628D01*
X181505771Y-196442914D02*
X181434342Y-196514342D01*
X181220057Y-196585771D01*
X181077200Y-196585771D01*
X180862914Y-196514342D01*
X180720057Y-196371485D01*
X180648628Y-196228628D01*
X180577200Y-195942914D01*
X180577200Y-195728628D01*
X180648628Y-195442914D01*
X180720057Y-195300057D01*
X180862914Y-195157200D01*
X181077200Y-195085771D01*
X181220057Y-195085771D01*
X181434342Y-195157200D01*
X181505771Y-195228628D01*
X182791485Y-196585771D02*
X182791485Y-195800057D01*
X182720057Y-195657200D01*
X182577200Y-195585771D01*
X182291485Y-195585771D01*
X182148628Y-195657200D01*
X182791485Y-196514342D02*
X182648628Y-196585771D01*
X182291485Y-196585771D01*
X182148628Y-196514342D01*
X182077200Y-196371485D01*
X182077200Y-196228628D01*
X182148628Y-196085771D01*
X182291485Y-196014342D01*
X182648628Y-196014342D01*
X182791485Y-195942914D01*
X184148628Y-196585771D02*
X184148628Y-195085771D01*
X184148628Y-196514342D02*
X184005771Y-196585771D01*
X183720057Y-196585771D01*
X183577200Y-196514342D01*
X183505771Y-196442914D01*
X183434342Y-196300057D01*
X183434342Y-195871485D01*
X183505771Y-195728628D01*
X183577200Y-195657200D01*
X183720057Y-195585771D01*
X184005771Y-195585771D01*
X184148628Y-195657200D01*
X186005771Y-195800057D02*
X186505771Y-195800057D01*
X186720057Y-196585771D02*
X186005771Y-196585771D01*
X186005771Y-195085771D01*
X186720057Y-195085771D01*
X187362914Y-196442914D02*
X187434342Y-196514342D01*
X187362914Y-196585771D01*
X187291485Y-196514342D01*
X187362914Y-196442914D01*
X187362914Y-196585771D01*
X188077200Y-196585771D02*
X188077200Y-195085771D01*
X188434342Y-195085771D01*
X188648628Y-195157200D01*
X188791485Y-195300057D01*
X188862914Y-195442914D01*
X188934342Y-195728628D01*
X188934342Y-195942914D01*
X188862914Y-196228628D01*
X188791485Y-196371485D01*
X188648628Y-196514342D01*
X188434342Y-196585771D01*
X188077200Y-196585771D01*
X189577200Y-196442914D02*
X189648628Y-196514342D01*
X189577200Y-196585771D01*
X189505771Y-196514342D01*
X189577200Y-196442914D01*
X189577200Y-196585771D01*
X190220057Y-196157200D02*
X190934342Y-196157200D01*
X190077200Y-196585771D02*
X190577200Y-195085771D01*
X191077200Y-196585771D01*
X191577200Y-196442914D02*
X191648628Y-196514342D01*
X191577200Y-196585771D01*
X191505771Y-196514342D01*
X191577200Y-196442914D01*
X191577200Y-196585771D01*
X194577200Y-196585771D02*
X194577200Y-195085771D01*
X194720057Y-196014342D02*
X195148628Y-196585771D01*
X195148628Y-195585771D02*
X194577200Y-196157200D01*
X195791485Y-196585771D02*
X195791485Y-195585771D01*
X195791485Y-195085771D02*
X195720057Y-195157200D01*
X195791485Y-195228628D01*
X195862914Y-195157200D01*
X195791485Y-195085771D01*
X195791485Y-195228628D01*
X197148628Y-196514342D02*
X197005771Y-196585771D01*
X196720057Y-196585771D01*
X196577200Y-196514342D01*
X196505771Y-196442914D01*
X196434342Y-196300057D01*
X196434342Y-195871485D01*
X196505771Y-195728628D01*
X196577200Y-195657200D01*
X196720057Y-195585771D01*
X197005771Y-195585771D01*
X197148628Y-195657200D01*
X198434342Y-196585771D02*
X198434342Y-195800057D01*
X198362914Y-195657200D01*
X198220057Y-195585771D01*
X197934342Y-195585771D01*
X197791485Y-195657200D01*
X198434342Y-196514342D02*
X198291485Y-196585771D01*
X197934342Y-196585771D01*
X197791485Y-196514342D01*
X197720057Y-196371485D01*
X197720057Y-196228628D01*
X197791485Y-196085771D01*
X197934342Y-196014342D01*
X198291485Y-196014342D01*
X198434342Y-195942914D01*
X199791485Y-196585771D02*
X199791485Y-195085771D01*
X199791485Y-196514342D02*
X199648628Y-196585771D01*
X199362914Y-196585771D01*
X199220057Y-196514342D01*
X199148628Y-196442914D01*
X199077200Y-196300057D01*
X199077200Y-195871485D01*
X199148628Y-195728628D01*
X199220057Y-195657200D01*
X199362914Y-195585771D01*
X199648628Y-195585771D01*
X199791485Y-195657200D01*
X202362914Y-195085771D02*
X201648628Y-195085771D01*
X201577200Y-195800057D01*
X201648628Y-195728628D01*
X201791485Y-195657200D01*
X202148628Y-195657200D01*
X202291485Y-195728628D01*
X202362914Y-195800057D01*
X202434342Y-195942914D01*
X202434342Y-196300057D01*
X202362914Y-196442914D01*
X202291485Y-196514342D01*
X202148628Y-196585771D01*
X201791485Y-196585771D01*
X201648628Y-196514342D01*
X201577200Y-196442914D01*
X203077200Y-196442914D02*
X203148628Y-196514342D01*
X203077200Y-196585771D01*
X203005771Y-196514342D01*
X203077200Y-196442914D01*
X203077200Y-196585771D01*
X203862914Y-196585771D02*
X204148628Y-196585771D01*
X204291485Y-196514342D01*
X204362914Y-196442914D01*
X204505771Y-196228628D01*
X204577200Y-195942914D01*
X204577200Y-195371485D01*
X204505771Y-195228628D01*
X204434342Y-195157200D01*
X204291485Y-195085771D01*
X204005771Y-195085771D01*
X203862914Y-195157200D01*
X203791485Y-195228628D01*
X203720057Y-195371485D01*
X203720057Y-195728628D01*
X203791485Y-195871485D01*
X203862914Y-195942914D01*
X204005771Y-196014342D01*
X204291485Y-196014342D01*
X204434342Y-195942914D01*
X204505771Y-195871485D01*
X204577200Y-195728628D01*
X205291485Y-196585771D02*
X205577200Y-196585771D01*
X205720057Y-196514342D01*
X205791485Y-196442914D01*
X205934342Y-196228628D01*
X206005771Y-195942914D01*
X206005771Y-195371485D01*
X205934342Y-195228628D01*
X205862914Y-195157200D01*
X205720057Y-195085771D01*
X205434342Y-195085771D01*
X205291485Y-195157200D01*
X205220057Y-195228628D01*
X205148628Y-195371485D01*
X205148628Y-195728628D01*
X205220057Y-195871485D01*
X205291485Y-195942914D01*
X205434342Y-196014342D01*
X205720057Y-196014342D01*
X205862914Y-195942914D01*
X205934342Y-195871485D01*
X206005771Y-195728628D01*
X206648628Y-196442914D02*
X206720057Y-196514342D01*
X206648628Y-196585771D01*
X206577200Y-196514342D01*
X206648628Y-196442914D01*
X206648628Y-196585771D01*
X207648628Y-195085771D02*
X207791485Y-195085771D01*
X207934342Y-195157200D01*
X208005771Y-195228628D01*
X208077200Y-195371485D01*
X208148628Y-195657200D01*
X208148628Y-196014342D01*
X208077200Y-196300057D01*
X208005771Y-196442914D01*
X207934342Y-196514342D01*
X207791485Y-196585771D01*
X207648628Y-196585771D01*
X207505771Y-196514342D01*
X207434342Y-196442914D01*
X207362914Y-196300057D01*
X207291485Y-196014342D01*
X207291485Y-195657200D01*
X207362914Y-195371485D01*
X207434342Y-195228628D01*
X207505771Y-195157200D01*
X207648628Y-195085771D01*
X208791485Y-196014342D02*
X209934342Y-196014342D01*
X209362914Y-196585771D02*
X209362914Y-195442914D01*
X210648628Y-196585771D02*
X210648628Y-195585771D01*
X210648628Y-195871485D02*
X210720057Y-195728628D01*
X210791485Y-195657200D01*
X210934342Y-195585771D01*
X211077200Y-195585771D01*
X212148628Y-196514342D02*
X212005771Y-196585771D01*
X211720057Y-196585771D01*
X211577200Y-196514342D01*
X211505771Y-196371485D01*
X211505771Y-195800057D01*
X211577200Y-195657200D01*
X211720057Y-195585771D01*
X212005771Y-195585771D01*
X212148628Y-195657200D01*
X212220057Y-195800057D01*
X212220057Y-195942914D01*
X211505771Y-196085771D01*
X213505771Y-196585771D02*
X213505771Y-195800057D01*
X213434342Y-195657200D01*
X213291485Y-195585771D01*
X213005771Y-195585771D01*
X212862914Y-195657200D01*
X213505771Y-196514342D02*
X213362914Y-196585771D01*
X213005771Y-196585771D01*
X212862914Y-196514342D01*
X212791485Y-196371485D01*
X212791485Y-196228628D01*
X212862914Y-196085771D01*
X213005771Y-196014342D01*
X213362914Y-196014342D01*
X213505771Y-195942914D01*
X214434342Y-196585771D02*
X214291485Y-196514342D01*
X214220057Y-196371485D01*
X214220057Y-195085771D01*
X215220057Y-196585771D02*
X215077200Y-196514342D01*
X215005771Y-196371485D01*
X215005771Y-195085771D01*
X215648628Y-195585771D02*
X216005771Y-196585771D01*
X216362914Y-195585771D02*
X216005771Y-196585771D01*
X215862914Y-196942914D01*
X215791485Y-197014342D01*
X215648628Y-197085771D01*
X217648628Y-195085771D02*
X216934342Y-195085771D01*
X216862914Y-195800057D01*
X216934342Y-195728628D01*
X217077200Y-195657200D01*
X217434342Y-195657200D01*
X217577200Y-195728628D01*
X217648628Y-195800057D01*
X217720057Y-195942914D01*
X217720057Y-196300057D01*
X217648628Y-196442914D01*
X217577200Y-196514342D01*
X217434342Y-196585771D01*
X217077200Y-196585771D01*
X216934342Y-196514342D01*
X216862914Y-196442914D01*
X218362914Y-196442914D02*
X218434342Y-196514342D01*
X218362914Y-196585771D01*
X218291485Y-196514342D01*
X218362914Y-196442914D01*
X218362914Y-196585771D01*
X219862914Y-196585771D02*
X219005771Y-196585771D01*
X219434342Y-196585771D02*
X219434342Y-195085771D01*
X219291485Y-195300057D01*
X219148628Y-195442914D01*
X219005771Y-195514342D01*
X220505771Y-196442914D02*
X220577200Y-196514342D01*
X220505771Y-196585771D01*
X220434342Y-196514342D01*
X220505771Y-196442914D01*
X220505771Y-196585771D01*
X222005771Y-196585771D02*
X221148628Y-196585771D01*
X221577200Y-196585771D02*
X221577200Y-195085771D01*
X221434342Y-195300057D01*
X221291485Y-195442914D01*
X221148628Y-195514342D01*
X222934342Y-195085771D02*
X223077200Y-195085771D01*
X223220057Y-195157200D01*
X223291485Y-195228628D01*
X223362914Y-195371485D01*
X223434342Y-195657200D01*
X223434342Y-196014342D01*
X223362914Y-196300057D01*
X223291485Y-196442914D01*
X223220057Y-196514342D01*
X223077200Y-196585771D01*
X222934342Y-196585771D01*
X222791485Y-196514342D01*
X222720057Y-196442914D01*
X222648628Y-196300057D01*
X222577200Y-196014342D01*
X222577200Y-195657200D01*
X222648628Y-195371485D01*
X222720057Y-195228628D01*
X222791485Y-195157200D01*
X222934342Y-195085771D01*
X224077200Y-196014342D02*
X225220057Y-196014342D01*
X224648628Y-196585771D02*
X224648628Y-195442914D01*
X226577200Y-196585771D02*
X226577200Y-195085771D01*
X226577200Y-196514342D02*
X226434342Y-196585771D01*
X226148628Y-196585771D01*
X226005771Y-196514342D01*
X225934342Y-196442914D01*
X225862914Y-196300057D01*
X225862914Y-195871485D01*
X225934342Y-195728628D01*
X226005771Y-195657200D01*
X226148628Y-195585771D01*
X226434342Y-195585771D01*
X226577200Y-195657200D01*
X227077200Y-195585771D02*
X227648628Y-195585771D01*
X227291485Y-196585771D02*
X227291485Y-195300057D01*
X227362914Y-195157200D01*
X227505771Y-195085771D01*
X227648628Y-195085771D01*
X228077200Y-196514342D02*
X228220057Y-196585771D01*
X228505771Y-196585771D01*
X228648628Y-196514342D01*
X228720057Y-196371485D01*
X228720057Y-196300057D01*
X228648628Y-196157200D01*
X228505771Y-196085771D01*
X228291485Y-196085771D01*
X228148628Y-196014342D01*
X228077200Y-195871485D01*
X228077200Y-195800057D01*
X228148628Y-195657200D01*
X228291485Y-195585771D01*
X228505771Y-195585771D01*
X228648628Y-195657200D01*
X230005771Y-195585771D02*
X230005771Y-196800057D01*
X229934342Y-196942914D01*
X229862914Y-197014342D01*
X229720057Y-197085771D01*
X229505771Y-197085771D01*
X229362914Y-197014342D01*
X230005771Y-196514342D02*
X229862914Y-196585771D01*
X229577200Y-196585771D01*
X229434342Y-196514342D01*
X229362914Y-196442914D01*
X229291485Y-196300057D01*
X229291485Y-195871485D01*
X229362914Y-195728628D01*
X229434342Y-195657200D01*
X229577200Y-195585771D01*
X229862914Y-195585771D01*
X230005771Y-195657200D01*
X231505771Y-196585771D02*
X230648628Y-196585771D01*
X231077200Y-196585771D02*
X231077200Y-195085771D01*
X230934342Y-195300057D01*
X230791485Y-195442914D01*
X230648628Y-195514342D01*
X232148628Y-196014342D02*
X233291485Y-196014342D01*
X234791485Y-196585771D02*
X233934342Y-196585771D01*
X234362914Y-196585771D02*
X234362914Y-195085771D01*
X234220057Y-195300057D01*
X234077200Y-195442914D01*
X233934342Y-195514342D01*
D10*
D11*
X177002200Y-191507200D02*
X285002200Y-191507200D01*
D10*
D12*
X264411485Y-193785771D02*
X263911485Y-193071485D01*
X263554342Y-193785771D02*
X263554342Y-192285771D01*
X264125771Y-192285771D01*
X264268628Y-192357200D01*
X264340057Y-192428628D01*
X264411485Y-192571485D01*
X264411485Y-192785771D01*
X264340057Y-192928628D01*
X264268628Y-193000057D01*
X264125771Y-193071485D01*
X263554342Y-193071485D01*
X265625771Y-193714342D02*
X265482914Y-193785771D01*
X265197200Y-193785771D01*
X265054342Y-193714342D01*
X264982914Y-193571485D01*
X264982914Y-193000057D01*
X265054342Y-192857200D01*
X265197200Y-192785771D01*
X265482914Y-192785771D01*
X265625771Y-192857200D01*
X265697200Y-193000057D01*
X265697200Y-193142914D01*
X264982914Y-193285771D01*
X266197200Y-192785771D02*
X266554342Y-193785771D01*
X266911485Y-192785771D01*
X267482914Y-193642914D02*
X267554342Y-193714342D01*
X267482914Y-193785771D01*
X267411485Y-193714342D01*
X267482914Y-193642914D01*
X267482914Y-193785771D01*
X267482914Y-192857200D02*
X267554342Y-192928628D01*
X267482914Y-193000057D01*
X267411485Y-192928628D01*
X267482914Y-192857200D01*
X267482914Y-193000057D01*
D10*
D11*
X178362914Y-193714342D02*
X178577200Y-193785771D01*
X178934342Y-193785771D01*
X179077200Y-193714342D01*
X179148628Y-193642914D01*
X179220057Y-193500057D01*
X179220057Y-193357200D01*
X179148628Y-193214342D01*
X179077200Y-193142914D01*
X178934342Y-193071485D01*
X178648628Y-193000057D01*
X178505771Y-192928628D01*
X178434342Y-192857200D01*
X178362914Y-192714342D01*
X178362914Y-192571485D01*
X178434342Y-192428628D01*
X178505771Y-192357200D01*
X178648628Y-192285771D01*
X179005771Y-192285771D01*
X179220057Y-192357200D01*
X179862914Y-193785771D02*
X179862914Y-192785771D01*
X179862914Y-192285771D02*
X179791485Y-192357200D01*
X179862914Y-192428628D01*
X179934342Y-192357200D01*
X179862914Y-192285771D01*
X179862914Y-192428628D01*
X180434342Y-192785771D02*
X181220057Y-192785771D01*
X180434342Y-193785771D01*
X181220057Y-193785771D01*
X182362914Y-193714342D02*
X182220057Y-193785771D01*
X181934342Y-193785771D01*
X181791485Y-193714342D01*
X181720057Y-193571485D01*
X181720057Y-193000057D01*
X181791485Y-192857200D01*
X181934342Y-192785771D01*
X182220057Y-192785771D01*
X182362914Y-192857200D01*
X182434342Y-193000057D01*
X182434342Y-193142914D01*
X181720057Y-193285771D01*
X183077200Y-193642914D02*
X183148628Y-193714342D01*
X183077200Y-193785771D01*
X183005771Y-193714342D01*
X183077200Y-193642914D01*
X183077200Y-193785771D01*
X183077200Y-192857200D02*
X183148628Y-192928628D01*
X183077200Y-193000057D01*
X183005771Y-192928628D01*
X183077200Y-192857200D01*
X183077200Y-193000057D01*
X184862914Y-193357200D02*
X185577200Y-193357200D01*
X184720057Y-193785771D02*
X185220057Y-192285771D01*
X185720057Y-193785771D01*
X186862914Y-192785771D02*
X186862914Y-193785771D01*
X186505771Y-192214342D02*
X186148628Y-193285771D01*
X187077200Y-193285771D01*
D10*
D11*
X263434342Y-196585771D02*
X263434342Y-195085771D01*
X264791485Y-196585771D02*
X264791485Y-195085771D01*
X264791485Y-196514342D02*
X264648628Y-196585771D01*
X264362914Y-196585771D01*
X264220057Y-196514342D01*
X264148628Y-196442914D01*
X264077200Y-196300057D01*
X264077200Y-195871485D01*
X264148628Y-195728628D01*
X264220057Y-195657200D01*
X264362914Y-195585771D01*
X264648628Y-195585771D01*
X264791485Y-195657200D01*
X265505771Y-196442914D02*
X265577200Y-196514342D01*
X265505771Y-196585771D01*
X265434342Y-196514342D01*
X265505771Y-196442914D01*
X265505771Y-196585771D01*
X265505771Y-195657200D02*
X265577200Y-195728628D01*
X265505771Y-195800057D01*
X265434342Y-195728628D01*
X265505771Y-195657200D01*
X265505771Y-195800057D01*
X268148628Y-196585771D02*
X267291485Y-196585771D01*
X267720057Y-196585771D02*
X267720057Y-195085771D01*
X267577200Y-195300057D01*
X267434342Y-195442914D01*
X267291485Y-195514342D01*
X269862914Y-195014342D02*
X268577200Y-196942914D01*
X271148628Y-196585771D02*
X270291485Y-196585771D01*
X270720057Y-196585771D02*
X270720057Y-195085771D01*
X270577200Y-195300057D01*
X270434342Y-195442914D01*
X270291485Y-195514342D01*
D10*
D11*
X177002200Y-187507200D02*
X285002200Y-187507200D01*
D10*
D13*
X178714580Y-188211961D02*
X179857438Y-188211961D01*
X179036009Y-190211961D02*
X179286009Y-188211961D01*
X180274104Y-190211961D02*
X180440771Y-188878628D01*
X180524104Y-188211961D02*
X180416961Y-188307200D01*
X180500295Y-188402438D01*
X180607438Y-188307200D01*
X180524104Y-188211961D01*
X180500295Y-188402438D01*
X181107438Y-188878628D02*
X181869342Y-188878628D01*
X181476485Y-188211961D02*
X181262200Y-189926247D01*
X181333628Y-190116723D01*
X181512200Y-190211961D01*
X181702676Y-190211961D01*
X182655057Y-190211961D02*
X182476485Y-190116723D01*
X182405057Y-189926247D01*
X182619342Y-188211961D01*
X184190771Y-190116723D02*
X183988390Y-190211961D01*
X183607438Y-190211961D01*
X183428866Y-190116723D01*
X183357438Y-189926247D01*
X183452676Y-189164342D01*
X183571723Y-188973866D01*
X183774104Y-188878628D01*
X184155057Y-188878628D01*
X184333628Y-188973866D01*
X184405057Y-189164342D01*
X184381247Y-189354819D01*
X183405057Y-189545295D01*
X185155057Y-190021485D02*
X185238390Y-190116723D01*
X185131247Y-190211961D01*
X185047914Y-190116723D01*
X185155057Y-190021485D01*
X185131247Y-190211961D01*
X185286009Y-188973866D02*
X185369342Y-189069104D01*
X185262200Y-189164342D01*
X185178866Y-189069104D01*
X185286009Y-188973866D01*
X185262200Y-189164342D01*
D10*
D11*
X178934342Y-185600057D02*
X178434342Y-185600057D01*
X178434342Y-186385771D02*
X178434342Y-184885771D01*
X179148628Y-184885771D01*
X179720057Y-186385771D02*
X179720057Y-185385771D01*
X179720057Y-184885771D02*
X179648628Y-184957200D01*
X179720057Y-185028628D01*
X179791485Y-184957200D01*
X179720057Y-184885771D01*
X179720057Y-185028628D01*
X180648628Y-186385771D02*
X180505771Y-186314342D01*
X180434342Y-186171485D01*
X180434342Y-184885771D01*
X181791485Y-186314342D02*
X181648628Y-186385771D01*
X181362914Y-186385771D01*
X181220057Y-186314342D01*
X181148628Y-186171485D01*
X181148628Y-185600057D01*
X181220057Y-185457200D01*
X181362914Y-185385771D01*
X181648628Y-185385771D01*
X181791485Y-185457200D01*
X181862914Y-185600057D01*
X181862914Y-185742914D01*
X181148628Y-185885771D01*
X182505771Y-186242914D02*
X182577200Y-186314342D01*
X182505771Y-186385771D01*
X182434342Y-186314342D01*
X182505771Y-186242914D01*
X182505771Y-186385771D01*
X182505771Y-185457200D02*
X182577200Y-185528628D01*
X182505771Y-185600057D01*
X182434342Y-185528628D01*
X182505771Y-185457200D01*
X182505771Y-185600057D01*
X184362914Y-186385771D02*
X184362914Y-185385771D01*
X184362914Y-185671485D02*
X184434342Y-185528628D01*
X184505771Y-185457200D01*
X184648628Y-185385771D01*
X184791485Y-185385771D01*
X185934342Y-186385771D02*
X185934342Y-185600057D01*
X185862914Y-185457200D01*
X185720057Y-185385771D01*
X185434342Y-185385771D01*
X185291485Y-185457200D01*
X185934342Y-186314342D02*
X185791485Y-186385771D01*
X185434342Y-186385771D01*
X185291485Y-186314342D01*
X185220057Y-186171485D01*
X185220057Y-186028628D01*
X185291485Y-185885771D01*
X185434342Y-185814342D01*
X185791485Y-185814342D01*
X185934342Y-185742914D01*
X186648628Y-186385771D02*
X186648628Y-185385771D01*
X186648628Y-185528628D02*
X186720057Y-185457200D01*
X186862914Y-185385771D01*
X187077200Y-185385771D01*
X187220057Y-185457200D01*
X187291485Y-185600057D01*
X187291485Y-186385771D01*
X187291485Y-185600057D02*
X187362914Y-185457200D01*
X187505771Y-185385771D01*
X187720057Y-185385771D01*
X187862914Y-185457200D01*
X187934342Y-185600057D01*
X187934342Y-186385771D01*
X188291485Y-186528628D02*
X189434342Y-186528628D01*
X189791485Y-185385771D02*
X189791485Y-186885771D01*
X189791485Y-185457200D02*
X189934342Y-185385771D01*
X190220057Y-185385771D01*
X190362914Y-185457200D01*
X190434342Y-185528628D01*
X190505771Y-185671485D01*
X190505771Y-186100057D01*
X190434342Y-186242914D01*
X190362914Y-186314342D01*
X190220057Y-186385771D01*
X189934342Y-186385771D01*
X189791485Y-186314342D01*
X191077200Y-186314342D02*
X191220057Y-186385771D01*
X191505771Y-186385771D01*
X191648628Y-186314342D01*
X191720057Y-186171485D01*
X191720057Y-186100057D01*
X191648628Y-185957200D01*
X191505771Y-185885771D01*
X191291485Y-185885771D01*
X191148628Y-185814342D01*
X191077200Y-185671485D01*
X191077200Y-185600057D01*
X191148628Y-185457200D01*
X191291485Y-185385771D01*
X191505771Y-185385771D01*
X191648628Y-185457200D01*
X193148628Y-186385771D02*
X192291485Y-186385771D01*
X192720057Y-186385771D02*
X192720057Y-184885771D01*
X192577200Y-185100057D01*
X192434342Y-185242914D01*
X192291485Y-185314342D01*
X193434342Y-186528628D02*
X194577200Y-186528628D01*
X194862914Y-185028628D02*
X194934342Y-184957200D01*
X195077200Y-184885771D01*
X195434342Y-184885771D01*
X195577200Y-184957200D01*
X195648628Y-185028628D01*
X195720057Y-185171485D01*
X195720057Y-185314342D01*
X195648628Y-185528628D01*
X194791485Y-186385771D01*
X195720057Y-186385771D01*
X197148628Y-186385771D02*
X196291485Y-186385771D01*
X196720057Y-186385771D02*
X196720057Y-184885771D01*
X196577200Y-185100057D01*
X196434342Y-185242914D01*
X196291485Y-185314342D01*
X197720057Y-185028628D02*
X197791485Y-184957200D01*
X197934342Y-184885771D01*
X198291485Y-184885771D01*
X198434342Y-184957200D01*
X198505771Y-185028628D01*
X198577200Y-185171485D01*
X198577200Y-185314342D01*
X198505771Y-185528628D01*
X197648628Y-186385771D01*
X198577200Y-186385771D01*
X200005771Y-186385771D02*
X199148628Y-186385771D01*
X199577200Y-186385771D02*
X199577200Y-184885771D01*
X199434342Y-185100057D01*
X199291485Y-185242914D01*
X199148628Y-185314342D01*
X200648628Y-186242914D02*
X200720057Y-186314342D01*
X200648628Y-186385771D01*
X200577200Y-186314342D01*
X200648628Y-186242914D01*
X200648628Y-186385771D01*
X201362914Y-186385771D02*
X201362914Y-184885771D01*
X201505771Y-185814342D02*
X201934342Y-186385771D01*
X201934342Y-185385771D02*
X201362914Y-185957200D01*
X202577200Y-186385771D02*
X202577200Y-185385771D01*
X202577200Y-184885771D02*
X202505771Y-184957200D01*
X202577200Y-185028628D01*
X202648628Y-184957200D01*
X202577200Y-184885771D01*
X202577200Y-185028628D01*
X203934342Y-186314342D02*
X203791485Y-186385771D01*
X203505771Y-186385771D01*
X203362914Y-186314342D01*
X203291485Y-186242914D01*
X203220057Y-186100057D01*
X203220057Y-185671485D01*
X203291485Y-185528628D01*
X203362914Y-185457200D01*
X203505771Y-185385771D01*
X203791485Y-185385771D01*
X203934342Y-185457200D01*
X205220057Y-186385771D02*
X205220057Y-185600057D01*
X205148628Y-185457200D01*
X205005771Y-185385771D01*
X204720057Y-185385771D01*
X204577200Y-185457200D01*
X205220057Y-186314342D02*
X205077200Y-186385771D01*
X204720057Y-186385771D01*
X204577200Y-186314342D01*
X204505771Y-186171485D01*
X204505771Y-186028628D01*
X204577200Y-185885771D01*
X204720057Y-185814342D01*
X205077200Y-185814342D01*
X205220057Y-185742914D01*
X206577200Y-186385771D02*
X206577200Y-184885771D01*
X206577200Y-186314342D02*
X206434342Y-186385771D01*
X206148628Y-186385771D01*
X206005771Y-186314342D01*
X205934342Y-186242914D01*
X205862914Y-186100057D01*
X205862914Y-185671485D01*
X205934342Y-185528628D01*
X206005771Y-185457200D01*
X206148628Y-185385771D01*
X206434342Y-185385771D01*
X206577200Y-185457200D01*
X206934342Y-186528628D02*
X208077200Y-186528628D01*
X208434342Y-185385771D02*
X208434342Y-186885771D01*
X208434342Y-185457200D02*
X208577200Y-185385771D01*
X208862914Y-185385771D01*
X209005771Y-185457200D01*
X209077200Y-185528628D01*
X209148628Y-185671485D01*
X209148628Y-186100057D01*
X209077200Y-186242914D01*
X209005771Y-186314342D01*
X208862914Y-186385771D01*
X208577200Y-186385771D01*
X208434342Y-186314342D01*
X210434342Y-186314342D02*
X210291485Y-186385771D01*
X210005771Y-186385771D01*
X209862914Y-186314342D01*
X209791485Y-186242914D01*
X209720057Y-186100057D01*
X209720057Y-185671485D01*
X209791485Y-185528628D01*
X209862914Y-185457200D01*
X210005771Y-185385771D01*
X210291485Y-185385771D01*
X210434342Y-185457200D01*
X211077200Y-186385771D02*
X211077200Y-184885771D01*
X211077200Y-185457200D02*
X211220057Y-185385771D01*
X211505771Y-185385771D01*
X211648628Y-185457200D01*
X211720057Y-185528628D01*
X211791485Y-185671485D01*
X211791485Y-186100057D01*
X211720057Y-186242914D01*
X211648628Y-186314342D01*
X211505771Y-186385771D01*
X211220057Y-186385771D01*
X211077200Y-186314342D01*
D10*
D11*
X177002200Y-181507200D02*
X285002200Y-181507200D01*
D10*
D11*
X178362914Y-183614342D02*
X178577200Y-183685771D01*
X178934342Y-183685771D01*
X179077200Y-183614342D01*
X179148628Y-183542914D01*
X179220057Y-183400057D01*
X179220057Y-183257200D01*
X179148628Y-183114342D01*
X179077200Y-183042914D01*
X178934342Y-182971485D01*
X178648628Y-182900057D01*
X178505771Y-182828628D01*
X178434342Y-182757200D01*
X178362914Y-182614342D01*
X178362914Y-182471485D01*
X178434342Y-182328628D01*
X178505771Y-182257200D01*
X178648628Y-182185771D01*
X179005771Y-182185771D01*
X179220057Y-182257200D01*
X179862914Y-183685771D02*
X179862914Y-182185771D01*
X180505771Y-183685771D02*
X180505771Y-182900057D01*
X180434342Y-182757200D01*
X180291485Y-182685771D01*
X180077200Y-182685771D01*
X179934342Y-182757200D01*
X179862914Y-182828628D01*
X181791485Y-183614342D02*
X181648628Y-183685771D01*
X181362914Y-183685771D01*
X181220057Y-183614342D01*
X181148628Y-183471485D01*
X181148628Y-182900057D01*
X181220057Y-182757200D01*
X181362914Y-182685771D01*
X181648628Y-182685771D01*
X181791485Y-182757200D01*
X181862914Y-182900057D01*
X181862914Y-183042914D01*
X181148628Y-183185771D01*
X183077200Y-183614342D02*
X182934342Y-183685771D01*
X182648628Y-183685771D01*
X182505771Y-183614342D01*
X182434342Y-183471485D01*
X182434342Y-182900057D01*
X182505771Y-182757200D01*
X182648628Y-182685771D01*
X182934342Y-182685771D01*
X183077200Y-182757200D01*
X183148628Y-182900057D01*
X183148628Y-183042914D01*
X182434342Y-183185771D01*
X183577200Y-182685771D02*
X184148628Y-182685771D01*
X183791485Y-182185771D02*
X183791485Y-183471485D01*
X183862914Y-183614342D01*
X184005771Y-183685771D01*
X184148628Y-183685771D01*
X184648628Y-183542914D02*
X184720057Y-183614342D01*
X184648628Y-183685771D01*
X184577200Y-183614342D01*
X184648628Y-183542914D01*
X184648628Y-183685771D01*
X184648628Y-182757200D02*
X184720057Y-182828628D01*
X184648628Y-182900057D01*
X184577200Y-182828628D01*
X184648628Y-182757200D01*
X184648628Y-182900057D01*
D10*
D11*
X197002200Y-191507200D02*
X197002200Y-194507200D01*
D10*
D11*
X261002200Y-191507200D02*
X261002200Y-198007200D01*
D14*
%TO.P,U1,21*%
%TO.N,VCC*%
X76200000Y-116455000D03*
%TO.P,U1,22*%
%TO.N,Net-(JP1-Pad2)*%
X73660000Y-116455000D03*
%TO.P,U1,40*%
%TO.N,/A0*%
X27940000Y-116455000D03*
%TO.P,U1,39*%
%TO.N,/A1*%
X30480000Y-116455000D03*
%TO.P,U1,38*%
%TO.N,/A2*%
X33020000Y-116455000D03*
%TO.P,U1,37*%
%TO.N,/A3*%
X35560000Y-116455000D03*
%TO.P,U1,36*%
%TO.N,/A4*%
X38100000Y-116455000D03*
%TO.P,U1,35*%
%TO.N,GND*%
X40640000Y-116455000D03*
%TO.P,U1,34*%
%TO.N,/A5*%
X43180000Y-116455000D03*
%TO.P,U1,33*%
%TO.N,/A6*%
X45720000Y-116455000D03*
%TO.P,U1,32*%
%TO.N,/A7*%
X48260000Y-116455000D03*
%TO.P,U1,31*%
%TO.N,/A8*%
X50800000Y-116455000D03*
%TO.P,U1,30*%
%TO.N,/A9*%
X53340000Y-116455000D03*
%TO.P,U1,29*%
%TO.N,GND*%
X55880000Y-116455000D03*
%TO.P,U1,28*%
%TO.N,/LCAS*%
X58420000Y-116455000D03*
%TO.P,U1,27*%
%TO.N,/UCAS*%
X60960000Y-116455000D03*
%TO.P,U1,26*%
%TO.N,/WE*%
X63500000Y-116455000D03*
%TO.P,U1,25*%
%TO.N,/RAS0*%
X66040000Y-116455000D03*
%TO.P,U1,24*%
%TO.N,/RAS1*%
X68580000Y-116455000D03*
%TO.P,U1,23*%
%TO.N,Net-(JP2-Pad2)*%
X71120000Y-116455000D03*
%TD*%
D15*
%TO.N,VCC*%
X33438900Y-88900000D03*
X35208600Y-81758800D03*
X33438900Y-108012700D03*
X57450300Y-82550000D03*
X55600900Y-88678800D03*
%TO.N,GND*%
X40284700Y-108031300D03*
X39281100Y-112036800D03*
X53619700Y-110074300D03*
X43540300Y-88828400D03*
X43599800Y-82607700D03*
X40284700Y-99025200D03*
X26035000Y-80010000D03*
X24130000Y-104140000D03*
X78740000Y-104775000D03*
X78105000Y-89535000D03*
%TO.N,Net-(JP1-Pad2)*%
X74752800Y-83335600D03*
%TO.N,Net-(JP2-Pad2)*%
X71841200Y-80645000D03*
%TO.N,/D10*%
X43601500Y-90897700D03*
X56238400Y-91400200D03*
%TO.N,/D14*%
X40293200Y-84814500D03*
X56623800Y-85152500D03*
%TO.N,/A0*%
X30116300Y-102870000D03*
%TO.N,/A1*%
X30227000Y-106041800D03*
%TO.N,/A2*%
X34847500Y-105989300D03*
%TO.N,/A3*%
X36420800Y-108245700D03*
%TO.N,/A4*%
X38829100Y-106718100D03*
%TO.N,/A5*%
X43740600Y-105429200D03*
%TO.N,/A6*%
X45154700Y-104234300D03*
%TO.N,/A7*%
X48661500Y-103215300D03*
%TO.N,/A8*%
X50570200Y-102138400D03*
%TO.N,/A9*%
X52356100Y-101614700D03*
%TO.N,/LCAS*%
X55591500Y-96276100D03*
%TO.N,/UCAS*%
X55855600Y-98328500D03*
%TO.N,/WE*%
X56629300Y-97603200D03*
%TO.N,/RAS0*%
X57510800Y-99750600D03*
%TO.N,/RAS1*%
X58421900Y-99057300D03*
%TD*%
D16*
%TO.N,VCC*%
X33438900Y-88900000D02*
X33438900Y-83528500D01*
X33438900Y-83528500D02*
X35208600Y-81758800D01*
X33438900Y-108012700D02*
X33438900Y-88900000D01*
X57450300Y-81419400D02*
X57450300Y-82550000D01*
X76200000Y-112319700D02*
X76200000Y-83750400D01*
X76200000Y-83750400D02*
X72369200Y-79919600D01*
X72369200Y-79919600D02*
X58950100Y-79919600D01*
X58950100Y-79919600D02*
X57450300Y-81419400D01*
X57450300Y-81419400D02*
X35548000Y-81419400D01*
X35548000Y-81419400D02*
X35208600Y-81758800D01*
X55600900Y-88678800D02*
X57450300Y-86829400D01*
X57450300Y-86829400D02*
X57450300Y-82550000D01*
X76200000Y-116455000D02*
X76200000Y-112319700D01*
%TO.N,GND*%
X40284700Y-108031300D02*
X40284700Y-111964000D01*
X40284700Y-111964000D02*
X40284500Y-111964200D01*
X40284700Y-99025200D02*
X40284700Y-108031300D01*
X42864600Y-97152000D02*
X42157900Y-97152000D01*
X42157900Y-97152000D02*
X40284700Y-99025200D01*
X40284500Y-111964200D02*
X40640000Y-112319700D01*
X39281100Y-112036800D02*
X39353700Y-111964200D01*
X39353700Y-111964200D02*
X40284500Y-111964200D01*
X53619700Y-110074300D02*
X53619700Y-101839900D01*
X53619700Y-101839900D02*
X48931800Y-97152000D01*
X48931800Y-97152000D02*
X42864600Y-97152000D01*
X55880000Y-112319700D02*
X53634600Y-110074300D01*
X53634600Y-110074300D02*
X53619700Y-110074300D01*
X55880000Y-116455000D02*
X55880000Y-112319700D01*
X43540300Y-88828400D02*
X42864600Y-89504100D01*
X42864600Y-89504100D02*
X42864600Y-97152000D01*
X43540300Y-88828400D02*
X43540300Y-82667200D01*
X43540300Y-82667200D02*
X43599800Y-82607700D01*
X40640000Y-116455000D02*
X40640000Y-112319700D01*
%TO.N,Net-(JP1-Pad2)*%
X74752800Y-83335600D02*
X73660000Y-84428400D01*
X73660000Y-84428400D02*
X73660000Y-116455000D01*
%TO.N,Net-(JP2-Pad2)*%
X71120000Y-116455000D02*
X71120000Y-81366200D01*
X71120000Y-81366200D02*
X71841200Y-80645000D01*
%TO.N,/D10*%
X43601500Y-90897700D02*
X55735900Y-90897700D01*
X55735900Y-90897700D02*
X56238400Y-91400200D01*
%TO.N,/D14*%
X56623800Y-85152500D02*
X53353700Y-81882400D01*
X53353700Y-81882400D02*
X43225300Y-81882400D01*
X43225300Y-81882400D02*
X40293200Y-84814500D01*
%TO.N,/A0*%
X27940000Y-116455000D02*
X27940000Y-105046300D01*
X27940000Y-105046300D02*
X30116300Y-102870000D01*
%TO.N,/A1*%
X30480000Y-116455000D02*
X30480000Y-106294800D01*
X30480000Y-106294800D02*
X30227000Y-106041800D01*
%TO.N,/A2*%
X33020000Y-112319700D02*
X34847500Y-110492200D01*
X34847500Y-110492200D02*
X34847500Y-105989300D01*
X33020000Y-116455000D02*
X33020000Y-112319700D01*
%TO.N,/A3*%
X35560000Y-116455000D02*
X35560000Y-112319700D01*
X35560000Y-112319700D02*
X36420800Y-111458900D01*
X36420800Y-111458900D02*
X36420800Y-108245700D01*
%TO.N,/A4*%
X38100000Y-112319700D02*
X38100000Y-107447200D01*
X38100000Y-107447200D02*
X38829100Y-106718100D01*
X38100000Y-116455000D02*
X38100000Y-112319700D01*
%TO.N,/A5*%
X43740600Y-105429200D02*
X43180000Y-105989800D01*
X43180000Y-105989800D02*
X43180000Y-116455000D01*
%TO.N,/A6*%
X45720000Y-112319700D02*
X45154700Y-111754400D01*
X45154700Y-111754400D02*
X45154700Y-104234300D01*
X45720000Y-116455000D02*
X45720000Y-112319700D01*
%TO.N,/A7*%
X48260000Y-116455000D02*
X48260000Y-112319700D01*
X48661500Y-103215300D02*
X48661500Y-111918200D01*
X48661500Y-111918200D02*
X48260000Y-112319700D01*
%TO.N,/A8*%
X50570200Y-102138400D02*
X50570200Y-112089900D01*
X50570200Y-112089900D02*
X50800000Y-112319700D01*
X50800000Y-116455000D02*
X50800000Y-112319700D01*
%TO.N,/A9*%
X53340000Y-116455000D02*
X53340000Y-112319700D01*
X52356100Y-101614700D02*
X52356100Y-111335800D01*
X52356100Y-111335800D02*
X53340000Y-112319700D01*
%TO.N,/LCAS*%
X55591500Y-96276100D02*
X55097100Y-96770500D01*
X55097100Y-96770500D02*
X55097100Y-104892200D01*
X55097100Y-104892200D02*
X58420000Y-108215100D01*
X58420000Y-108215100D02*
X58420000Y-116455000D01*
%TO.N,/UCAS*%
X55855600Y-98328500D02*
X55855600Y-99903300D01*
X55855600Y-99903300D02*
X60960000Y-105007700D01*
X60960000Y-105007700D02*
X60960000Y-116455000D01*
%TO.N,/WE*%
X63500000Y-116455000D02*
X63500000Y-106910700D01*
X63500000Y-106910700D02*
X56629300Y-100040000D01*
X56629300Y-100040000D02*
X56629300Y-97603200D01*
%TO.N,/RAS0*%
X66040000Y-112319700D02*
X66039900Y-112319700D01*
X66039900Y-112319700D02*
X66039900Y-108279700D01*
X66039900Y-108279700D02*
X57510800Y-99750600D01*
X66040000Y-116455000D02*
X66040000Y-112319700D01*
%TO.N,/RAS1*%
X68580000Y-116455000D02*
X68580000Y-109215400D01*
X68580000Y-109215400D02*
X58421900Y-99057300D01*
%TD*%
D17*
%TO.N,GND*%
X81255000Y-76802582D02*
X81255001Y-84422581D01*
X81255000Y-113005000D01*
X78772419Y-113005000D01*
X78740000Y-113001807D01*
X78707581Y-113005000D01*
X78610617Y-113014550D01*
X78486207Y-113052290D01*
X78371550Y-113113575D01*
X78271052Y-113196052D01*
X78188575Y-113296550D01*
X78127290Y-113411207D01*
X78089550Y-113535617D01*
X78076807Y-113665000D01*
X78080001Y-113697429D01*
X78080000Y-119990000D01*
X77728072Y-119990000D01*
X77728072Y-112645000D01*
X77715812Y-112520518D01*
X77679502Y-112400820D01*
X77620537Y-112290506D01*
X77541185Y-112193815D01*
X77444494Y-112114463D01*
X77334180Y-112055498D01*
X77214482Y-112019188D01*
X77090000Y-112006928D01*
X76960000Y-112006928D01*
X76960000Y-83787722D01*
X76963676Y-83750399D01*
X76960000Y-83713076D01*
X76960000Y-83713067D01*
X76949003Y-83601414D01*
X76905546Y-83458153D01*
X76834974Y-83326124D01*
X76740001Y-83210399D01*
X76711003Y-83186601D01*
X72933004Y-79408603D01*
X72909201Y-79379599D01*
X72793476Y-79284626D01*
X72661447Y-79214054D01*
X72518186Y-79170597D01*
X72406533Y-79159600D01*
X72406522Y-79159600D01*
X72369200Y-79155924D01*
X72331878Y-79159600D01*
X58987433Y-79159600D01*
X58950100Y-79155923D01*
X58912767Y-79159600D01*
X58801114Y-79170597D01*
X58657853Y-79214054D01*
X58525824Y-79284626D01*
X58410099Y-79379599D01*
X58386301Y-79408597D01*
X57135499Y-80659400D01*
X35585322Y-80659400D01*
X35547999Y-80655724D01*
X35510676Y-80659400D01*
X35510667Y-80659400D01*
X35399014Y-80670397D01*
X35255753Y-80713854D01*
X35237146Y-80723800D01*
X35106661Y-80723800D01*
X34906702Y-80763574D01*
X34718344Y-80841595D01*
X34548826Y-80954863D01*
X34404663Y-81099026D01*
X34291395Y-81268544D01*
X34213374Y-81456902D01*
X34173600Y-81656861D01*
X34173600Y-81718998D01*
X32927898Y-82964701D01*
X32898900Y-82988499D01*
X32875102Y-83017497D01*
X32875101Y-83017498D01*
X32803926Y-83104224D01*
X32733354Y-83236254D01*
X32689898Y-83379515D01*
X32675224Y-83528500D01*
X32678901Y-83565832D01*
X32678900Y-88196289D01*
X32634963Y-88240226D01*
X32521695Y-88409744D01*
X32443674Y-88598102D01*
X32403900Y-88798061D01*
X32403900Y-89001939D01*
X32443674Y-89201898D01*
X32521695Y-89390256D01*
X32634963Y-89559774D01*
X32678901Y-89603712D01*
X32678900Y-107308989D01*
X32634963Y-107352926D01*
X32521695Y-107522444D01*
X32443674Y-107710802D01*
X32403900Y-107910761D01*
X32403900Y-108114639D01*
X32443674Y-108314598D01*
X32521695Y-108502956D01*
X32634963Y-108672474D01*
X32779126Y-108816637D01*
X32948644Y-108929905D01*
X33137002Y-109007926D01*
X33336961Y-109047700D01*
X33540839Y-109047700D01*
X33740798Y-109007926D01*
X33929156Y-108929905D01*
X34087500Y-108824103D01*
X34087500Y-110177398D01*
X32508998Y-111755901D01*
X32480000Y-111779699D01*
X32456202Y-111808697D01*
X32456201Y-111808698D01*
X32385026Y-111895424D01*
X32325425Y-112006928D01*
X32130000Y-112006928D01*
X32005518Y-112019188D01*
X31885820Y-112055498D01*
X31775506Y-112114463D01*
X31750000Y-112135395D01*
X31724494Y-112114463D01*
X31614180Y-112055498D01*
X31494482Y-112019188D01*
X31370000Y-112006928D01*
X31240000Y-112006928D01*
X31240000Y-106332122D01*
X31243676Y-106294799D01*
X31240000Y-106257476D01*
X31240000Y-106257467D01*
X31239794Y-106255376D01*
X31262000Y-106143739D01*
X31262000Y-105939861D01*
X31222226Y-105739902D01*
X31144205Y-105551544D01*
X31030937Y-105382026D01*
X30886774Y-105237863D01*
X30717256Y-105124595D01*
X30528898Y-105046574D01*
X30328939Y-105006800D01*
X30125061Y-105006800D01*
X29925102Y-105046574D01*
X29736744Y-105124595D01*
X29567226Y-105237863D01*
X29423063Y-105382026D01*
X29309795Y-105551544D01*
X29231774Y-105739902D01*
X29192000Y-105939861D01*
X29192000Y-106143739D01*
X29231774Y-106343698D01*
X29309795Y-106532056D01*
X29423063Y-106701574D01*
X29567226Y-106845737D01*
X29720001Y-106947818D01*
X29720000Y-112006928D01*
X29590000Y-112006928D01*
X29465518Y-112019188D01*
X29345820Y-112055498D01*
X29235506Y-112114463D01*
X29210000Y-112135395D01*
X29184494Y-112114463D01*
X29074180Y-112055498D01*
X28954482Y-112019188D01*
X28830000Y-112006928D01*
X28700000Y-112006928D01*
X28700000Y-105361101D01*
X30156102Y-103905000D01*
X30218239Y-103905000D01*
X30418198Y-103865226D01*
X30606556Y-103787205D01*
X30776074Y-103673937D01*
X30920237Y-103529774D01*
X31033505Y-103360256D01*
X31111526Y-103171898D01*
X31151300Y-102971939D01*
X31151300Y-102768061D01*
X31111526Y-102568102D01*
X31033505Y-102379744D01*
X30920237Y-102210226D01*
X30776074Y-102066063D01*
X30606556Y-101952795D01*
X30418198Y-101874774D01*
X30218239Y-101835000D01*
X30014361Y-101835000D01*
X29814402Y-101874774D01*
X29626044Y-101952795D01*
X29456526Y-102066063D01*
X29312363Y-102210226D01*
X29199095Y-102379744D01*
X29121074Y-102568102D01*
X29081300Y-102768061D01*
X29081300Y-102830198D01*
X27428998Y-104482501D01*
X27400000Y-104506299D01*
X27376202Y-104535297D01*
X27376201Y-104535298D01*
X27305026Y-104622024D01*
X27234454Y-104754054D01*
X27204180Y-104853858D01*
X27192550Y-104892200D01*
X27190998Y-104897315D01*
X27176324Y-105046300D01*
X27180001Y-105083632D01*
X27180000Y-112006928D01*
X27050000Y-112006928D01*
X26925518Y-112019188D01*
X26805820Y-112055498D01*
X26695506Y-112114463D01*
X26598815Y-112193815D01*
X26519463Y-112290506D01*
X26460498Y-112400820D01*
X26424188Y-112520518D01*
X26411928Y-112645000D01*
X26411928Y-119990000D01*
X26060000Y-119990000D01*
X26060000Y-113697418D01*
X26063193Y-113665000D01*
X26050450Y-113535617D01*
X26012710Y-113411207D01*
X25951425Y-113296550D01*
X25868948Y-113196052D01*
X25768450Y-113113575D01*
X25653793Y-113052290D01*
X25529383Y-113014550D01*
X25432419Y-113005000D01*
X25400000Y-113001807D01*
X25367581Y-113005000D01*
X22250000Y-113005000D01*
X22250000Y-76225000D01*
X81255000Y-76225000D01*
X81255000Y-76802582D01*
%TA.AperFunction,Conductor*%
D18*
G36*
X81255000Y-76802582D02*
G01*
X81255001Y-84422581D01*
X81255000Y-113005000D01*
X78772419Y-113005000D01*
X78740000Y-113001807D01*
X78707581Y-113005000D01*
X78610617Y-113014550D01*
X78486207Y-113052290D01*
X78371550Y-113113575D01*
X78271052Y-113196052D01*
X78188575Y-113296550D01*
X78127290Y-113411207D01*
X78089550Y-113535617D01*
X78076807Y-113665000D01*
X78080001Y-113697429D01*
X78080000Y-119990000D01*
X77728072Y-119990000D01*
X77728072Y-112645000D01*
X77715812Y-112520518D01*
X77679502Y-112400820D01*
X77620537Y-112290506D01*
X77541185Y-112193815D01*
X77444494Y-112114463D01*
X77334180Y-112055498D01*
X77214482Y-112019188D01*
X77090000Y-112006928D01*
X76960000Y-112006928D01*
X76960000Y-83787722D01*
X76963676Y-83750399D01*
X76960000Y-83713076D01*
X76960000Y-83713067D01*
X76949003Y-83601414D01*
X76905546Y-83458153D01*
X76834974Y-83326124D01*
X76740001Y-83210399D01*
X76711003Y-83186601D01*
X72933004Y-79408603D01*
X72909201Y-79379599D01*
X72793476Y-79284626D01*
X72661447Y-79214054D01*
X72518186Y-79170597D01*
X72406533Y-79159600D01*
X72406522Y-79159600D01*
X72369200Y-79155924D01*
X72331878Y-79159600D01*
X58987433Y-79159600D01*
X58950100Y-79155923D01*
X58912767Y-79159600D01*
X58801114Y-79170597D01*
X58657853Y-79214054D01*
X58525824Y-79284626D01*
X58410099Y-79379599D01*
X58386301Y-79408597D01*
X57135499Y-80659400D01*
X35585322Y-80659400D01*
X35547999Y-80655724D01*
X35510676Y-80659400D01*
X35510667Y-80659400D01*
X35399014Y-80670397D01*
X35255753Y-80713854D01*
X35237146Y-80723800D01*
X35106661Y-80723800D01*
X34906702Y-80763574D01*
X34718344Y-80841595D01*
X34548826Y-80954863D01*
X34404663Y-81099026D01*
X34291395Y-81268544D01*
X34213374Y-81456902D01*
X34173600Y-81656861D01*
X34173600Y-81718998D01*
X32927898Y-82964701D01*
X32898900Y-82988499D01*
X32875102Y-83017497D01*
X32875101Y-83017498D01*
X32803926Y-83104224D01*
X32733354Y-83236254D01*
X32689898Y-83379515D01*
X32675224Y-83528500D01*
X32678901Y-83565832D01*
X32678900Y-88196289D01*
X32634963Y-88240226D01*
X32521695Y-88409744D01*
X32443674Y-88598102D01*
X32403900Y-88798061D01*
X32403900Y-89001939D01*
X32443674Y-89201898D01*
X32521695Y-89390256D01*
X32634963Y-89559774D01*
X32678901Y-89603712D01*
X32678900Y-107308989D01*
X32634963Y-107352926D01*
X32521695Y-107522444D01*
X32443674Y-107710802D01*
X32403900Y-107910761D01*
X32403900Y-108114639D01*
X32443674Y-108314598D01*
X32521695Y-108502956D01*
X32634963Y-108672474D01*
X32779126Y-108816637D01*
X32948644Y-108929905D01*
X33137002Y-109007926D01*
X33336961Y-109047700D01*
X33540839Y-109047700D01*
X33740798Y-109007926D01*
X33929156Y-108929905D01*
X34087500Y-108824103D01*
X34087500Y-110177398D01*
X32508998Y-111755901D01*
X32480000Y-111779699D01*
X32456202Y-111808697D01*
X32456201Y-111808698D01*
X32385026Y-111895424D01*
X32325425Y-112006928D01*
X32130000Y-112006928D01*
X32005518Y-112019188D01*
X31885820Y-112055498D01*
X31775506Y-112114463D01*
X31750000Y-112135395D01*
X31724494Y-112114463D01*
X31614180Y-112055498D01*
X31494482Y-112019188D01*
X31370000Y-112006928D01*
X31240000Y-112006928D01*
X31240000Y-106332122D01*
X31243676Y-106294799D01*
X31240000Y-106257476D01*
X31240000Y-106257467D01*
X31239794Y-106255376D01*
X31262000Y-106143739D01*
X31262000Y-105939861D01*
X31222226Y-105739902D01*
X31144205Y-105551544D01*
X31030937Y-105382026D01*
X30886774Y-105237863D01*
X30717256Y-105124595D01*
X30528898Y-105046574D01*
X30328939Y-105006800D01*
X30125061Y-105006800D01*
X29925102Y-105046574D01*
X29736744Y-105124595D01*
X29567226Y-105237863D01*
X29423063Y-105382026D01*
X29309795Y-105551544D01*
X29231774Y-105739902D01*
X29192000Y-105939861D01*
X29192000Y-106143739D01*
X29231774Y-106343698D01*
X29309795Y-106532056D01*
X29423063Y-106701574D01*
X29567226Y-106845737D01*
X29720001Y-106947818D01*
X29720000Y-112006928D01*
X29590000Y-112006928D01*
X29465518Y-112019188D01*
X29345820Y-112055498D01*
X29235506Y-112114463D01*
X29210000Y-112135395D01*
X29184494Y-112114463D01*
X29074180Y-112055498D01*
X28954482Y-112019188D01*
X28830000Y-112006928D01*
X28700000Y-112006928D01*
X28700000Y-105361101D01*
X30156102Y-103905000D01*
X30218239Y-103905000D01*
X30418198Y-103865226D01*
X30606556Y-103787205D01*
X30776074Y-103673937D01*
X30920237Y-103529774D01*
X31033505Y-103360256D01*
X31111526Y-103171898D01*
X31151300Y-102971939D01*
X31151300Y-102768061D01*
X31111526Y-102568102D01*
X31033505Y-102379744D01*
X30920237Y-102210226D01*
X30776074Y-102066063D01*
X30606556Y-101952795D01*
X30418198Y-101874774D01*
X30218239Y-101835000D01*
X30014361Y-101835000D01*
X29814402Y-101874774D01*
X29626044Y-101952795D01*
X29456526Y-102066063D01*
X29312363Y-102210226D01*
X29199095Y-102379744D01*
X29121074Y-102568102D01*
X29081300Y-102768061D01*
X29081300Y-102830198D01*
X27428998Y-104482501D01*
X27400000Y-104506299D01*
X27376202Y-104535297D01*
X27376201Y-104535298D01*
X27305026Y-104622024D01*
X27234454Y-104754054D01*
X27204180Y-104853858D01*
X27192550Y-104892200D01*
X27190998Y-104897315D01*
X27176324Y-105046300D01*
X27180001Y-105083632D01*
X27180000Y-112006928D01*
X27050000Y-112006928D01*
X26925518Y-112019188D01*
X26805820Y-112055498D01*
X26695506Y-112114463D01*
X26598815Y-112193815D01*
X26519463Y-112290506D01*
X26460498Y-112400820D01*
X26424188Y-112520518D01*
X26411928Y-112645000D01*
X26411928Y-119990000D01*
X26060000Y-119990000D01*
X26060000Y-113697418D01*
X26063193Y-113665000D01*
X26050450Y-113535617D01*
X26012710Y-113411207D01*
X25951425Y-113296550D01*
X25868948Y-113196052D01*
X25768450Y-113113575D01*
X25653793Y-113052290D01*
X25529383Y-113014550D01*
X25432419Y-113005000D01*
X25400000Y-113001807D01*
X25367581Y-113005000D01*
X22250000Y-113005000D01*
X22250000Y-76225000D01*
X81255000Y-76225000D01*
X81255000Y-76802582D01*
G37*
%TD.AperFunction*%
D17*
X70608998Y-80802401D02*
X70580000Y-80826199D01*
X70556202Y-80855197D01*
X70556201Y-80855198D01*
X70485026Y-80941924D01*
X70414454Y-81073954D01*
X70370998Y-81217215D01*
X70356324Y-81366200D01*
X70360001Y-81403533D01*
X70360000Y-112006928D01*
X70230000Y-112006928D01*
X70105518Y-112019188D01*
X69985820Y-112055498D01*
X69875506Y-112114463D01*
X69850000Y-112135395D01*
X69824494Y-112114463D01*
X69714180Y-112055498D01*
X69594482Y-112019188D01*
X69470000Y-112006928D01*
X69340000Y-112006928D01*
X69340000Y-109252725D01*
X69343676Y-109215400D01*
X69340000Y-109178075D01*
X69340000Y-109178067D01*
X69329003Y-109066414D01*
X69285546Y-108923153D01*
X69214974Y-108791124D01*
X69120001Y-108675399D01*
X69091003Y-108651601D01*
X59456900Y-99017499D01*
X59456900Y-98955361D01*
X59417126Y-98755402D01*
X59339105Y-98567044D01*
X59225837Y-98397526D01*
X59081674Y-98253363D01*
X58912156Y-98140095D01*
X58723798Y-98062074D01*
X58523839Y-98022300D01*
X58319961Y-98022300D01*
X58120002Y-98062074D01*
X57931644Y-98140095D01*
X57762126Y-98253363D01*
X57617963Y-98397526D01*
X57504695Y-98567044D01*
X57443161Y-98715600D01*
X57408861Y-98715600D01*
X57389300Y-98719491D01*
X57389300Y-98306911D01*
X57433237Y-98262974D01*
X57546505Y-98093456D01*
X57624526Y-97905098D01*
X57664300Y-97705139D01*
X57664300Y-97501261D01*
X57624526Y-97301302D01*
X57546505Y-97112944D01*
X57433237Y-96943426D01*
X57289074Y-96799263D01*
X57119556Y-96685995D01*
X56931198Y-96607974D01*
X56731239Y-96568200D01*
X56588675Y-96568200D01*
X56626500Y-96378039D01*
X56626500Y-96174161D01*
X56586726Y-95974202D01*
X56508705Y-95785844D01*
X56395437Y-95616326D01*
X56251274Y-95472163D01*
X56081756Y-95358895D01*
X55893398Y-95280874D01*
X55693439Y-95241100D01*
X55489561Y-95241100D01*
X55289602Y-95280874D01*
X55101244Y-95358895D01*
X54931726Y-95472163D01*
X54787563Y-95616326D01*
X54674295Y-95785844D01*
X54596274Y-95974202D01*
X54556500Y-96174161D01*
X54556500Y-96231229D01*
X54519675Y-96276101D01*
X54462126Y-96346224D01*
X54419973Y-96425087D01*
X54391554Y-96478254D01*
X54348097Y-96621515D01*
X54337100Y-96733168D01*
X54337100Y-96733178D01*
X54333424Y-96770500D01*
X54337100Y-96807822D01*
X54337101Y-104854868D01*
X54333424Y-104892200D01*
X54337101Y-104929533D01*
X54348098Y-105041186D01*
X54357474Y-105072095D01*
X54391554Y-105184446D01*
X54462126Y-105316476D01*
X54515922Y-105382026D01*
X54557100Y-105432201D01*
X54586098Y-105455999D01*
X57660000Y-108529902D01*
X57660000Y-112006928D01*
X57530000Y-112006928D01*
X57405518Y-112019188D01*
X57285820Y-112055498D01*
X57175506Y-112114463D01*
X57150000Y-112135395D01*
X57124494Y-112114463D01*
X57014180Y-112055498D01*
X56894482Y-112019188D01*
X56770000Y-112006928D01*
X56165750Y-112010000D01*
X56007000Y-112168750D01*
X56007000Y-116328000D01*
X56027000Y-116328000D01*
X56027000Y-116582000D01*
X56007000Y-116582000D01*
X56007000Y-116602000D01*
X55753000Y-116602000D01*
X55753000Y-116582000D01*
X55733000Y-116582000D01*
X55733000Y-116328000D01*
X55753000Y-116328000D01*
X55753000Y-112168750D01*
X55594250Y-112010000D01*
X54990000Y-112006928D01*
X54865518Y-112019188D01*
X54745820Y-112055498D01*
X54635506Y-112114463D01*
X54610000Y-112135395D01*
X54584494Y-112114463D01*
X54474180Y-112055498D01*
X54354482Y-112019188D01*
X54230000Y-112006928D01*
X54034575Y-112006928D01*
X53974974Y-111895424D01*
X53880001Y-111779699D01*
X53851003Y-111755901D01*
X53116100Y-111020999D01*
X53116100Y-102318411D01*
X53160037Y-102274474D01*
X53273305Y-102104956D01*
X53351326Y-101916598D01*
X53391100Y-101716639D01*
X53391100Y-101512761D01*
X53351326Y-101312802D01*
X53273305Y-101124444D01*
X53160037Y-100954926D01*
X53015874Y-100810763D01*
X52846356Y-100697495D01*
X52657998Y-100619474D01*
X52458039Y-100579700D01*
X52254161Y-100579700D01*
X52054202Y-100619474D01*
X51865844Y-100697495D01*
X51696326Y-100810763D01*
X51552163Y-100954926D01*
X51438895Y-101124444D01*
X51360874Y-101312802D01*
X51335563Y-101440052D01*
X51229974Y-101334463D01*
X51060456Y-101221195D01*
X50872098Y-101143174D01*
X50672139Y-101103400D01*
X50468261Y-101103400D01*
X50268302Y-101143174D01*
X50079944Y-101221195D01*
X49910426Y-101334463D01*
X49766263Y-101478626D01*
X49652995Y-101648144D01*
X49574974Y-101836502D01*
X49535200Y-102036461D01*
X49535200Y-102240339D01*
X49574974Y-102440298D01*
X49652995Y-102628656D01*
X49766263Y-102798174D01*
X49810200Y-102842111D01*
X49810201Y-112016757D01*
X49785518Y-112019188D01*
X49665820Y-112055498D01*
X49555506Y-112114463D01*
X49530000Y-112135395D01*
X49504494Y-112114463D01*
X49410780Y-112064371D01*
X49421500Y-111955533D01*
X49421500Y-111955525D01*
X49425176Y-111918200D01*
X49421500Y-111880875D01*
X49421500Y-103919011D01*
X49465437Y-103875074D01*
X49578705Y-103705556D01*
X49656726Y-103517198D01*
X49696500Y-103317239D01*
X49696500Y-103113361D01*
X49656726Y-102913402D01*
X49578705Y-102725044D01*
X49465437Y-102555526D01*
X49321274Y-102411363D01*
X49151756Y-102298095D01*
X48963398Y-102220074D01*
X48763439Y-102180300D01*
X48559561Y-102180300D01*
X48359602Y-102220074D01*
X48171244Y-102298095D01*
X48001726Y-102411363D01*
X47857563Y-102555526D01*
X47744295Y-102725044D01*
X47666274Y-102913402D01*
X47626500Y-103113361D01*
X47626500Y-103317239D01*
X47666274Y-103517198D01*
X47744295Y-103705556D01*
X47857563Y-103875074D01*
X47901500Y-103919011D01*
X47901501Y-111603398D01*
X47748998Y-111755901D01*
X47720000Y-111779699D01*
X47696202Y-111808697D01*
X47696201Y-111808698D01*
X47625026Y-111895424D01*
X47565425Y-112006928D01*
X47370000Y-112006928D01*
X47245518Y-112019188D01*
X47125820Y-112055498D01*
X47015506Y-112114463D01*
X46990000Y-112135395D01*
X46964494Y-112114463D01*
X46854180Y-112055498D01*
X46734482Y-112019188D01*
X46610000Y-112006928D01*
X46414575Y-112006928D01*
X46354974Y-111895423D01*
X46283799Y-111808697D01*
X46260001Y-111779699D01*
X46231002Y-111755900D01*
X45914700Y-111439599D01*
X45914700Y-104938011D01*
X45958637Y-104894074D01*
X46071905Y-104724556D01*
X46149926Y-104536198D01*
X46189700Y-104336239D01*
X46189700Y-104132361D01*
X46149926Y-103932402D01*
X46071905Y-103744044D01*
X45958637Y-103574526D01*
X45814474Y-103430363D01*
X45644956Y-103317095D01*
X45456598Y-103239074D01*
X45256639Y-103199300D01*
X45052761Y-103199300D01*
X44852802Y-103239074D01*
X44664444Y-103317095D01*
X44494926Y-103430363D01*
X44350763Y-103574526D01*
X44237495Y-103744044D01*
X44159474Y-103932402D01*
X44119700Y-104132361D01*
X44119700Y-104336239D01*
X44147818Y-104477599D01*
X44042498Y-104433974D01*
X43842539Y-104394200D01*
X43638661Y-104394200D01*
X43438702Y-104433974D01*
X43250344Y-104511995D01*
X43080826Y-104625263D01*
X42936663Y-104769426D01*
X42823395Y-104938944D01*
X42745374Y-105127302D01*
X42705600Y-105327261D01*
X42705600Y-105389399D01*
X42669002Y-105425997D01*
X42639999Y-105449799D01*
X42599585Y-105499044D01*
X42545026Y-105565524D01*
X42503788Y-105642674D01*
X42474454Y-105697554D01*
X42430997Y-105840815D01*
X42420000Y-105952468D01*
X42420000Y-105952478D01*
X42416324Y-105989800D01*
X42420000Y-106027122D01*
X42420001Y-112006928D01*
X42290000Y-112006928D01*
X42165518Y-112019188D01*
X42045820Y-112055498D01*
X41935506Y-112114463D01*
X41910000Y-112135395D01*
X41884494Y-112114463D01*
X41774180Y-112055498D01*
X41654482Y-112019188D01*
X41530000Y-112006928D01*
X40925750Y-112010000D01*
X40767000Y-112168750D01*
X40767000Y-116328000D01*
X40787000Y-116328000D01*
X40787000Y-116582000D01*
X40767000Y-116582000D01*
X40767000Y-116602000D01*
X40513000Y-116602000D01*
X40513000Y-116582000D01*
X40493000Y-116582000D01*
X40493000Y-116328000D01*
X40513000Y-116328000D01*
X40513000Y-112168750D01*
X40354250Y-112010000D01*
X39750000Y-112006928D01*
X39625518Y-112019188D01*
X39505820Y-112055498D01*
X39395506Y-112114463D01*
X39370000Y-112135395D01*
X39344494Y-112114463D01*
X39234180Y-112055498D01*
X39114482Y-112019188D01*
X38990000Y-112006928D01*
X38860000Y-112006928D01*
X38860000Y-107762001D01*
X38868901Y-107753100D01*
X38931039Y-107753100D01*
X39130998Y-107713326D01*
X39319356Y-107635305D01*
X39488874Y-107522037D01*
X39633037Y-107377874D01*
X39746305Y-107208356D01*
X39824326Y-107019998D01*
X39864100Y-106820039D01*
X39864100Y-106616161D01*
X39824326Y-106416202D01*
X39746305Y-106227844D01*
X39633037Y-106058326D01*
X39488874Y-105914163D01*
X39319356Y-105800895D01*
X39130998Y-105722874D01*
X38931039Y-105683100D01*
X38727161Y-105683100D01*
X38527202Y-105722874D01*
X38338844Y-105800895D01*
X38169326Y-105914163D01*
X38025163Y-106058326D01*
X37911895Y-106227844D01*
X37833874Y-106416202D01*
X37794100Y-106616161D01*
X37794100Y-106678299D01*
X37588998Y-106883401D01*
X37560000Y-106907199D01*
X37536202Y-106936197D01*
X37536201Y-106936198D01*
X37465026Y-107022924D01*
X37394454Y-107154954D01*
X37350998Y-107298215D01*
X37336324Y-107447200D01*
X37340001Y-107484532D01*
X37340001Y-107760263D01*
X37338005Y-107755444D01*
X37224737Y-107585926D01*
X37080574Y-107441763D01*
X36911056Y-107328495D01*
X36722698Y-107250474D01*
X36522739Y-107210700D01*
X36318861Y-107210700D01*
X36118902Y-107250474D01*
X35930544Y-107328495D01*
X35761026Y-107441763D01*
X35616863Y-107585926D01*
X35607500Y-107599939D01*
X35607500Y-106693011D01*
X35651437Y-106649074D01*
X35764705Y-106479556D01*
X35842726Y-106291198D01*
X35882500Y-106091239D01*
X35882500Y-105887361D01*
X35842726Y-105687402D01*
X35764705Y-105499044D01*
X35651437Y-105329526D01*
X35507274Y-105185363D01*
X35337756Y-105072095D01*
X35149398Y-104994074D01*
X34949439Y-104954300D01*
X34745561Y-104954300D01*
X34545602Y-104994074D01*
X34357244Y-105072095D01*
X34198900Y-105177897D01*
X34198900Y-90795761D01*
X42566500Y-90795761D01*
X42566500Y-90999639D01*
X42606274Y-91199598D01*
X42684295Y-91387956D01*
X42797563Y-91557474D01*
X42941726Y-91701637D01*
X43111244Y-91814905D01*
X43299602Y-91892926D01*
X43499561Y-91932700D01*
X43703439Y-91932700D01*
X43903398Y-91892926D01*
X44091756Y-91814905D01*
X44261274Y-91701637D01*
X44305211Y-91657700D01*
X55234343Y-91657700D01*
X55243174Y-91702098D01*
X55321195Y-91890456D01*
X55434463Y-92059974D01*
X55578626Y-92204137D01*
X55748144Y-92317405D01*
X55936502Y-92395426D01*
X56136461Y-92435200D01*
X56340339Y-92435200D01*
X56540298Y-92395426D01*
X56728656Y-92317405D01*
X56898174Y-92204137D01*
X57042337Y-92059974D01*
X57155605Y-91890456D01*
X57233626Y-91702098D01*
X57273400Y-91502139D01*
X57273400Y-91298261D01*
X57233626Y-91098302D01*
X57155605Y-90909944D01*
X57042337Y-90740426D01*
X56898174Y-90596263D01*
X56728656Y-90482995D01*
X56540298Y-90404974D01*
X56340339Y-90365200D01*
X56282057Y-90365200D01*
X56275901Y-90357699D01*
X56160176Y-90262726D01*
X56028147Y-90192154D01*
X55884886Y-90148697D01*
X55773233Y-90137700D01*
X55773222Y-90137700D01*
X55735900Y-90134024D01*
X55698578Y-90137700D01*
X44305211Y-90137700D01*
X44261274Y-90093763D01*
X44091756Y-89980495D01*
X43903398Y-89902474D01*
X43703439Y-89862700D01*
X43499561Y-89862700D01*
X43299602Y-89902474D01*
X43111244Y-89980495D01*
X42941726Y-90093763D01*
X42797563Y-90237926D01*
X42684295Y-90407444D01*
X42606274Y-90595802D01*
X42566500Y-90795761D01*
X34198900Y-90795761D01*
X34198900Y-89603711D01*
X34242837Y-89559774D01*
X34356105Y-89390256D01*
X34434126Y-89201898D01*
X34473900Y-89001939D01*
X34473900Y-88798061D01*
X34434126Y-88598102D01*
X34356105Y-88409744D01*
X34242837Y-88240226D01*
X34198900Y-88196289D01*
X34198900Y-83843301D01*
X35248402Y-82793800D01*
X35310539Y-82793800D01*
X35510498Y-82754026D01*
X35698856Y-82676005D01*
X35868374Y-82562737D01*
X36012537Y-82418574D01*
X36125805Y-82249056D01*
X36154658Y-82179400D01*
X41853498Y-82179400D01*
X40253399Y-83779500D01*
X40191261Y-83779500D01*
X39991302Y-83819274D01*
X39802944Y-83897295D01*
X39633426Y-84010563D01*
X39489263Y-84154726D01*
X39375995Y-84324244D01*
X39297974Y-84512602D01*
X39258200Y-84712561D01*
X39258200Y-84916439D01*
X39297974Y-85116398D01*
X39375995Y-85304756D01*
X39489263Y-85474274D01*
X39633426Y-85618437D01*
X39802944Y-85731705D01*
X39991302Y-85809726D01*
X40191261Y-85849500D01*
X40395139Y-85849500D01*
X40595098Y-85809726D01*
X40783456Y-85731705D01*
X40952974Y-85618437D01*
X41097137Y-85474274D01*
X41210405Y-85304756D01*
X41288426Y-85116398D01*
X41328200Y-84916439D01*
X41328200Y-84854301D01*
X43540102Y-82642400D01*
X53038899Y-82642400D01*
X55588800Y-85192302D01*
X55588800Y-85254439D01*
X55628574Y-85454398D01*
X55706595Y-85642756D01*
X55819863Y-85812274D01*
X55964026Y-85956437D01*
X56133544Y-86069705D01*
X56321902Y-86147726D01*
X56521861Y-86187500D01*
X56690300Y-86187500D01*
X56690300Y-86514598D01*
X55561099Y-87643800D01*
X55498961Y-87643800D01*
X55299002Y-87683574D01*
X55110644Y-87761595D01*
X54941126Y-87874863D01*
X54796963Y-88019026D01*
X54683695Y-88188544D01*
X54605674Y-88376902D01*
X54565900Y-88576861D01*
X54565900Y-88780739D01*
X54605674Y-88980698D01*
X54683695Y-89169056D01*
X54796963Y-89338574D01*
X54941126Y-89482737D01*
X55110644Y-89596005D01*
X55299002Y-89674026D01*
X55498961Y-89713800D01*
X55702839Y-89713800D01*
X55902798Y-89674026D01*
X56091156Y-89596005D01*
X56260674Y-89482737D01*
X56404837Y-89338574D01*
X56518105Y-89169056D01*
X56596126Y-88980698D01*
X56635900Y-88780739D01*
X56635900Y-88718601D01*
X57961304Y-87393198D01*
X57990301Y-87369401D01*
X58085274Y-87253676D01*
X58155846Y-87121647D01*
X58199303Y-86978386D01*
X58210300Y-86866733D01*
X58210300Y-86866732D01*
X58213977Y-86829400D01*
X58210300Y-86792067D01*
X58210300Y-83253711D01*
X58254237Y-83209774D01*
X58367505Y-83040256D01*
X58445526Y-82851898D01*
X58485300Y-82651939D01*
X58485300Y-82448061D01*
X58445526Y-82248102D01*
X58367505Y-82059744D01*
X58254237Y-81890226D01*
X58210300Y-81846289D01*
X58210300Y-81734201D01*
X59264902Y-80679600D01*
X70731799Y-80679600D01*
X70608998Y-80802401D01*
%TA.AperFunction,Conductor*%
D18*
G36*
X70608998Y-80802401D02*
G01*
X70580000Y-80826199D01*
X70556202Y-80855197D01*
X70556201Y-80855198D01*
X70485026Y-80941924D01*
X70414454Y-81073954D01*
X70370998Y-81217215D01*
X70356324Y-81366200D01*
X70360001Y-81403533D01*
X70360000Y-112006928D01*
X70230000Y-112006928D01*
X70105518Y-112019188D01*
X69985820Y-112055498D01*
X69875506Y-112114463D01*
X69850000Y-112135395D01*
X69824494Y-112114463D01*
X69714180Y-112055498D01*
X69594482Y-112019188D01*
X69470000Y-112006928D01*
X69340000Y-112006928D01*
X69340000Y-109252725D01*
X69343676Y-109215400D01*
X69340000Y-109178075D01*
X69340000Y-109178067D01*
X69329003Y-109066414D01*
X69285546Y-108923153D01*
X69214974Y-108791124D01*
X69120001Y-108675399D01*
X69091003Y-108651601D01*
X59456900Y-99017499D01*
X59456900Y-98955361D01*
X59417126Y-98755402D01*
X59339105Y-98567044D01*
X59225837Y-98397526D01*
X59081674Y-98253363D01*
X58912156Y-98140095D01*
X58723798Y-98062074D01*
X58523839Y-98022300D01*
X58319961Y-98022300D01*
X58120002Y-98062074D01*
X57931644Y-98140095D01*
X57762126Y-98253363D01*
X57617963Y-98397526D01*
X57504695Y-98567044D01*
X57443161Y-98715600D01*
X57408861Y-98715600D01*
X57389300Y-98719491D01*
X57389300Y-98306911D01*
X57433237Y-98262974D01*
X57546505Y-98093456D01*
X57624526Y-97905098D01*
X57664300Y-97705139D01*
X57664300Y-97501261D01*
X57624526Y-97301302D01*
X57546505Y-97112944D01*
X57433237Y-96943426D01*
X57289074Y-96799263D01*
X57119556Y-96685995D01*
X56931198Y-96607974D01*
X56731239Y-96568200D01*
X56588675Y-96568200D01*
X56626500Y-96378039D01*
X56626500Y-96174161D01*
X56586726Y-95974202D01*
X56508705Y-95785844D01*
X56395437Y-95616326D01*
X56251274Y-95472163D01*
X56081756Y-95358895D01*
X55893398Y-95280874D01*
X55693439Y-95241100D01*
X55489561Y-95241100D01*
X55289602Y-95280874D01*
X55101244Y-95358895D01*
X54931726Y-95472163D01*
X54787563Y-95616326D01*
X54674295Y-95785844D01*
X54596274Y-95974202D01*
X54556500Y-96174161D01*
X54556500Y-96231229D01*
X54519675Y-96276101D01*
X54462126Y-96346224D01*
X54419973Y-96425087D01*
X54391554Y-96478254D01*
X54348097Y-96621515D01*
X54337100Y-96733168D01*
X54337100Y-96733178D01*
X54333424Y-96770500D01*
X54337100Y-96807822D01*
X54337101Y-104854868D01*
X54333424Y-104892200D01*
X54337101Y-104929533D01*
X54348098Y-105041186D01*
X54357474Y-105072095D01*
X54391554Y-105184446D01*
X54462126Y-105316476D01*
X54515922Y-105382026D01*
X54557100Y-105432201D01*
X54586098Y-105455999D01*
X57660000Y-108529902D01*
X57660000Y-112006928D01*
X57530000Y-112006928D01*
X57405518Y-112019188D01*
X57285820Y-112055498D01*
X57175506Y-112114463D01*
X57150000Y-112135395D01*
X57124494Y-112114463D01*
X57014180Y-112055498D01*
X56894482Y-112019188D01*
X56770000Y-112006928D01*
X56165750Y-112010000D01*
X56007000Y-112168750D01*
X56007000Y-116328000D01*
X56027000Y-116328000D01*
X56027000Y-116582000D01*
X56007000Y-116582000D01*
X56007000Y-116602000D01*
X55753000Y-116602000D01*
X55753000Y-116582000D01*
X55733000Y-116582000D01*
X55733000Y-116328000D01*
X55753000Y-116328000D01*
X55753000Y-112168750D01*
X55594250Y-112010000D01*
X54990000Y-112006928D01*
X54865518Y-112019188D01*
X54745820Y-112055498D01*
X54635506Y-112114463D01*
X54610000Y-112135395D01*
X54584494Y-112114463D01*
X54474180Y-112055498D01*
X54354482Y-112019188D01*
X54230000Y-112006928D01*
X54034575Y-112006928D01*
X53974974Y-111895424D01*
X53880001Y-111779699D01*
X53851003Y-111755901D01*
X53116100Y-111020999D01*
X53116100Y-102318411D01*
X53160037Y-102274474D01*
X53273305Y-102104956D01*
X53351326Y-101916598D01*
X53391100Y-101716639D01*
X53391100Y-101512761D01*
X53351326Y-101312802D01*
X53273305Y-101124444D01*
X53160037Y-100954926D01*
X53015874Y-100810763D01*
X52846356Y-100697495D01*
X52657998Y-100619474D01*
X52458039Y-100579700D01*
X52254161Y-100579700D01*
X52054202Y-100619474D01*
X51865844Y-100697495D01*
X51696326Y-100810763D01*
X51552163Y-100954926D01*
X51438895Y-101124444D01*
X51360874Y-101312802D01*
X51335563Y-101440052D01*
X51229974Y-101334463D01*
X51060456Y-101221195D01*
X50872098Y-101143174D01*
X50672139Y-101103400D01*
X50468261Y-101103400D01*
X50268302Y-101143174D01*
X50079944Y-101221195D01*
X49910426Y-101334463D01*
X49766263Y-101478626D01*
X49652995Y-101648144D01*
X49574974Y-101836502D01*
X49535200Y-102036461D01*
X49535200Y-102240339D01*
X49574974Y-102440298D01*
X49652995Y-102628656D01*
X49766263Y-102798174D01*
X49810200Y-102842111D01*
X49810201Y-112016757D01*
X49785518Y-112019188D01*
X49665820Y-112055498D01*
X49555506Y-112114463D01*
X49530000Y-112135395D01*
X49504494Y-112114463D01*
X49410780Y-112064371D01*
X49421500Y-111955533D01*
X49421500Y-111955525D01*
X49425176Y-111918200D01*
X49421500Y-111880875D01*
X49421500Y-103919011D01*
X49465437Y-103875074D01*
X49578705Y-103705556D01*
X49656726Y-103517198D01*
X49696500Y-103317239D01*
X49696500Y-103113361D01*
X49656726Y-102913402D01*
X49578705Y-102725044D01*
X49465437Y-102555526D01*
X49321274Y-102411363D01*
X49151756Y-102298095D01*
X48963398Y-102220074D01*
X48763439Y-102180300D01*
X48559561Y-102180300D01*
X48359602Y-102220074D01*
X48171244Y-102298095D01*
X48001726Y-102411363D01*
X47857563Y-102555526D01*
X47744295Y-102725044D01*
X47666274Y-102913402D01*
X47626500Y-103113361D01*
X47626500Y-103317239D01*
X47666274Y-103517198D01*
X47744295Y-103705556D01*
X47857563Y-103875074D01*
X47901500Y-103919011D01*
X47901501Y-111603398D01*
X47748998Y-111755901D01*
X47720000Y-111779699D01*
X47696202Y-111808697D01*
X47696201Y-111808698D01*
X47625026Y-111895424D01*
X47565425Y-112006928D01*
X47370000Y-112006928D01*
X47245518Y-112019188D01*
X47125820Y-112055498D01*
X47015506Y-112114463D01*
X46990000Y-112135395D01*
X46964494Y-112114463D01*
X46854180Y-112055498D01*
X46734482Y-112019188D01*
X46610000Y-112006928D01*
X46414575Y-112006928D01*
X46354974Y-111895423D01*
X46283799Y-111808697D01*
X46260001Y-111779699D01*
X46231002Y-111755900D01*
X45914700Y-111439599D01*
X45914700Y-104938011D01*
X45958637Y-104894074D01*
X46071905Y-104724556D01*
X46149926Y-104536198D01*
X46189700Y-104336239D01*
X46189700Y-104132361D01*
X46149926Y-103932402D01*
X46071905Y-103744044D01*
X45958637Y-103574526D01*
X45814474Y-103430363D01*
X45644956Y-103317095D01*
X45456598Y-103239074D01*
X45256639Y-103199300D01*
X45052761Y-103199300D01*
X44852802Y-103239074D01*
X44664444Y-103317095D01*
X44494926Y-103430363D01*
X44350763Y-103574526D01*
X44237495Y-103744044D01*
X44159474Y-103932402D01*
X44119700Y-104132361D01*
X44119700Y-104336239D01*
X44147818Y-104477599D01*
X44042498Y-104433974D01*
X43842539Y-104394200D01*
X43638661Y-104394200D01*
X43438702Y-104433974D01*
X43250344Y-104511995D01*
X43080826Y-104625263D01*
X42936663Y-104769426D01*
X42823395Y-104938944D01*
X42745374Y-105127302D01*
X42705600Y-105327261D01*
X42705600Y-105389399D01*
X42669002Y-105425997D01*
X42639999Y-105449799D01*
X42599585Y-105499044D01*
X42545026Y-105565524D01*
X42503788Y-105642674D01*
X42474454Y-105697554D01*
X42430997Y-105840815D01*
X42420000Y-105952468D01*
X42420000Y-105952478D01*
X42416324Y-105989800D01*
X42420000Y-106027122D01*
X42420001Y-112006928D01*
X42290000Y-112006928D01*
X42165518Y-112019188D01*
X42045820Y-112055498D01*
X41935506Y-112114463D01*
X41910000Y-112135395D01*
X41884494Y-112114463D01*
X41774180Y-112055498D01*
X41654482Y-112019188D01*
X41530000Y-112006928D01*
X40925750Y-112010000D01*
X40767000Y-112168750D01*
X40767000Y-116328000D01*
X40787000Y-116328000D01*
X40787000Y-116582000D01*
X40767000Y-116582000D01*
X40767000Y-116602000D01*
X40513000Y-116602000D01*
X40513000Y-116582000D01*
X40493000Y-116582000D01*
X40493000Y-116328000D01*
X40513000Y-116328000D01*
X40513000Y-112168750D01*
X40354250Y-112010000D01*
X39750000Y-112006928D01*
X39625518Y-112019188D01*
X39505820Y-112055498D01*
X39395506Y-112114463D01*
X39370000Y-112135395D01*
X39344494Y-112114463D01*
X39234180Y-112055498D01*
X39114482Y-112019188D01*
X38990000Y-112006928D01*
X38860000Y-112006928D01*
X38860000Y-107762001D01*
X38868901Y-107753100D01*
X38931039Y-107753100D01*
X39130998Y-107713326D01*
X39319356Y-107635305D01*
X39488874Y-107522037D01*
X39633037Y-107377874D01*
X39746305Y-107208356D01*
X39824326Y-107019998D01*
X39864100Y-106820039D01*
X39864100Y-106616161D01*
X39824326Y-106416202D01*
X39746305Y-106227844D01*
X39633037Y-106058326D01*
X39488874Y-105914163D01*
X39319356Y-105800895D01*
X39130998Y-105722874D01*
X38931039Y-105683100D01*
X38727161Y-105683100D01*
X38527202Y-105722874D01*
X38338844Y-105800895D01*
X38169326Y-105914163D01*
X38025163Y-106058326D01*
X37911895Y-106227844D01*
X37833874Y-106416202D01*
X37794100Y-106616161D01*
X37794100Y-106678299D01*
X37588998Y-106883401D01*
X37560000Y-106907199D01*
X37536202Y-106936197D01*
X37536201Y-106936198D01*
X37465026Y-107022924D01*
X37394454Y-107154954D01*
X37350998Y-107298215D01*
X37336324Y-107447200D01*
X37340001Y-107484532D01*
X37340001Y-107760263D01*
X37338005Y-107755444D01*
X37224737Y-107585926D01*
X37080574Y-107441763D01*
X36911056Y-107328495D01*
X36722698Y-107250474D01*
X36522739Y-107210700D01*
X36318861Y-107210700D01*
X36118902Y-107250474D01*
X35930544Y-107328495D01*
X35761026Y-107441763D01*
X35616863Y-107585926D01*
X35607500Y-107599939D01*
X35607500Y-106693011D01*
X35651437Y-106649074D01*
X35764705Y-106479556D01*
X35842726Y-106291198D01*
X35882500Y-106091239D01*
X35882500Y-105887361D01*
X35842726Y-105687402D01*
X35764705Y-105499044D01*
X35651437Y-105329526D01*
X35507274Y-105185363D01*
X35337756Y-105072095D01*
X35149398Y-104994074D01*
X34949439Y-104954300D01*
X34745561Y-104954300D01*
X34545602Y-104994074D01*
X34357244Y-105072095D01*
X34198900Y-105177897D01*
X34198900Y-90795761D01*
X42566500Y-90795761D01*
X42566500Y-90999639D01*
X42606274Y-91199598D01*
X42684295Y-91387956D01*
X42797563Y-91557474D01*
X42941726Y-91701637D01*
X43111244Y-91814905D01*
X43299602Y-91892926D01*
X43499561Y-91932700D01*
X43703439Y-91932700D01*
X43903398Y-91892926D01*
X44091756Y-91814905D01*
X44261274Y-91701637D01*
X44305211Y-91657700D01*
X55234343Y-91657700D01*
X55243174Y-91702098D01*
X55321195Y-91890456D01*
X55434463Y-92059974D01*
X55578626Y-92204137D01*
X55748144Y-92317405D01*
X55936502Y-92395426D01*
X56136461Y-92435200D01*
X56340339Y-92435200D01*
X56540298Y-92395426D01*
X56728656Y-92317405D01*
X56898174Y-92204137D01*
X57042337Y-92059974D01*
X57155605Y-91890456D01*
X57233626Y-91702098D01*
X57273400Y-91502139D01*
X57273400Y-91298261D01*
X57233626Y-91098302D01*
X57155605Y-90909944D01*
X57042337Y-90740426D01*
X56898174Y-90596263D01*
X56728656Y-90482995D01*
X56540298Y-90404974D01*
X56340339Y-90365200D01*
X56282057Y-90365200D01*
X56275901Y-90357699D01*
X56160176Y-90262726D01*
X56028147Y-90192154D01*
X55884886Y-90148697D01*
X55773233Y-90137700D01*
X55773222Y-90137700D01*
X55735900Y-90134024D01*
X55698578Y-90137700D01*
X44305211Y-90137700D01*
X44261274Y-90093763D01*
X44091756Y-89980495D01*
X43903398Y-89902474D01*
X43703439Y-89862700D01*
X43499561Y-89862700D01*
X43299602Y-89902474D01*
X43111244Y-89980495D01*
X42941726Y-90093763D01*
X42797563Y-90237926D01*
X42684295Y-90407444D01*
X42606274Y-90595802D01*
X42566500Y-90795761D01*
X34198900Y-90795761D01*
X34198900Y-89603711D01*
X34242837Y-89559774D01*
X34356105Y-89390256D01*
X34434126Y-89201898D01*
X34473900Y-89001939D01*
X34473900Y-88798061D01*
X34434126Y-88598102D01*
X34356105Y-88409744D01*
X34242837Y-88240226D01*
X34198900Y-88196289D01*
X34198900Y-83843301D01*
X35248402Y-82793800D01*
X35310539Y-82793800D01*
X35510498Y-82754026D01*
X35698856Y-82676005D01*
X35868374Y-82562737D01*
X36012537Y-82418574D01*
X36125805Y-82249056D01*
X36154658Y-82179400D01*
X41853498Y-82179400D01*
X40253399Y-83779500D01*
X40191261Y-83779500D01*
X39991302Y-83819274D01*
X39802944Y-83897295D01*
X39633426Y-84010563D01*
X39489263Y-84154726D01*
X39375995Y-84324244D01*
X39297974Y-84512602D01*
X39258200Y-84712561D01*
X39258200Y-84916439D01*
X39297974Y-85116398D01*
X39375995Y-85304756D01*
X39489263Y-85474274D01*
X39633426Y-85618437D01*
X39802944Y-85731705D01*
X39991302Y-85809726D01*
X40191261Y-85849500D01*
X40395139Y-85849500D01*
X40595098Y-85809726D01*
X40783456Y-85731705D01*
X40952974Y-85618437D01*
X41097137Y-85474274D01*
X41210405Y-85304756D01*
X41288426Y-85116398D01*
X41328200Y-84916439D01*
X41328200Y-84854301D01*
X43540102Y-82642400D01*
X53038899Y-82642400D01*
X55588800Y-85192302D01*
X55588800Y-85254439D01*
X55628574Y-85454398D01*
X55706595Y-85642756D01*
X55819863Y-85812274D01*
X55964026Y-85956437D01*
X56133544Y-86069705D01*
X56321902Y-86147726D01*
X56521861Y-86187500D01*
X56690300Y-86187500D01*
X56690300Y-86514598D01*
X55561099Y-87643800D01*
X55498961Y-87643800D01*
X55299002Y-87683574D01*
X55110644Y-87761595D01*
X54941126Y-87874863D01*
X54796963Y-88019026D01*
X54683695Y-88188544D01*
X54605674Y-88376902D01*
X54565900Y-88576861D01*
X54565900Y-88780739D01*
X54605674Y-88980698D01*
X54683695Y-89169056D01*
X54796963Y-89338574D01*
X54941126Y-89482737D01*
X55110644Y-89596005D01*
X55299002Y-89674026D01*
X55498961Y-89713800D01*
X55702839Y-89713800D01*
X55902798Y-89674026D01*
X56091156Y-89596005D01*
X56260674Y-89482737D01*
X56404837Y-89338574D01*
X56518105Y-89169056D01*
X56596126Y-88980698D01*
X56635900Y-88780739D01*
X56635900Y-88718601D01*
X57961304Y-87393198D01*
X57990301Y-87369401D01*
X58085274Y-87253676D01*
X58155846Y-87121647D01*
X58199303Y-86978386D01*
X58210300Y-86866733D01*
X58210300Y-86866732D01*
X58213977Y-86829400D01*
X58210300Y-86792067D01*
X58210300Y-83253711D01*
X58254237Y-83209774D01*
X58367505Y-83040256D01*
X58445526Y-82851898D01*
X58485300Y-82651939D01*
X58485300Y-82448061D01*
X58445526Y-82248102D01*
X58367505Y-82059744D01*
X58254237Y-81890226D01*
X58210300Y-81846289D01*
X58210300Y-81734201D01*
X59264902Y-80679600D01*
X70731799Y-80679600D01*
X70608998Y-80802401D01*
G37*
%TD.AperFunction*%
%TD*%
M02*
