%FSLAX45Y45*%
G04 Gerber Fmt 4.5, Leading zero omitted, Abs format (unit mm)*
G04 Created by KiCad (PCBNEW 5.99.0+really5.1.10+dfsg1-1) date 2022-01-09 16:24:09*
%MOMM*%
%LPD*%
G01*
G04 APERTURE LIST*
%TA.AperFunction,Profile*%
%ADD10C,0.050000*%
%TD*%
%ADD11C,0.200000*%
%ADD12C,0.300000*%
G04 APERTURE END LIST*
D10*
X2159000Y-7556500D02*
X2159000Y-7683500D01*
X8191500Y-7683500D02*
X8191500Y-7556500D01*
X2159000Y-7683500D02*
X2159000Y-8445500D01*
X8191500Y-7683500D02*
X8191500Y-8445500D01*
X7874000Y-12065000D02*
X7874000Y-11366500D01*
X2540000Y-12065000D02*
X7874000Y-12065000D01*
X2540000Y-11366500D02*
X2540000Y-12065000D01*
X2159000Y-11366500D02*
X2540000Y-11366500D01*
X2159000Y-8445500D02*
X2159000Y-11366500D01*
X8191500Y-7556500D02*
X2159000Y-7556500D01*
X8191500Y-11366500D02*
X8191500Y-8445500D01*
X7874000Y-11366500D02*
X8191500Y-11366500D01*
D11*
X2393000Y-10394000D02*
X2433000Y-10434000D01*
X2433000Y-10394000D02*
X2393000Y-10434000D01*
X2583500Y-7981000D02*
X2623500Y-8021000D01*
X2623500Y-7981000D02*
X2583500Y-8021000D01*
X2991630Y-10267000D02*
X3031630Y-10307000D01*
X3031630Y-10267000D02*
X2991630Y-10307000D01*
X3002700Y-10584180D02*
X3042700Y-10624180D01*
X3042700Y-10584180D02*
X3002700Y-10624180D01*
X3323890Y-8870000D02*
X3363890Y-8910000D01*
X3363890Y-8870000D02*
X3323890Y-8910000D01*
X3323890Y-10781270D02*
X3363890Y-10821270D01*
X3363890Y-10781270D02*
X3323890Y-10821270D01*
X3464750Y-10578930D02*
X3504750Y-10618930D01*
X3504750Y-10578930D02*
X3464750Y-10618930D01*
X3500860Y-8155880D02*
X3540860Y-8195880D01*
X3540860Y-8155880D02*
X3500860Y-8195880D01*
X3622080Y-10804570D02*
X3662080Y-10844570D01*
X3662080Y-10804570D02*
X3622080Y-10844570D01*
X3862910Y-10651810D02*
X3902910Y-10691810D01*
X3902910Y-10651810D02*
X3862910Y-10691810D01*
X3908110Y-11183680D02*
X3948110Y-11223680D01*
X3948110Y-11183680D02*
X3908110Y-11223680D01*
X4008470Y-9882520D02*
X4048470Y-9922520D01*
X4048470Y-9882520D02*
X4008470Y-9922520D01*
X4008470Y-10783130D02*
X4048470Y-10823130D01*
X4048470Y-10783130D02*
X4008470Y-10823130D01*
X4009320Y-8461450D02*
X4049320Y-8501450D01*
X4049320Y-8461450D02*
X4009320Y-8501450D01*
X4334030Y-8862840D02*
X4374030Y-8902840D01*
X4374030Y-8862840D02*
X4334030Y-8902840D01*
X4339980Y-8240770D02*
X4379980Y-8280770D01*
X4379980Y-8240770D02*
X4339980Y-8280770D01*
X4340150Y-9069770D02*
X4380150Y-9109770D01*
X4380150Y-9069770D02*
X4340150Y-9109770D01*
X4354060Y-10522920D02*
X4394060Y-10562920D01*
X4394060Y-10522920D02*
X4354060Y-10562920D01*
X4495470Y-10403430D02*
X4535470Y-10443430D01*
X4535470Y-10403430D02*
X4495470Y-10443430D01*
X4846150Y-10301530D02*
X4886150Y-10341530D01*
X4886150Y-10301530D02*
X4846150Y-10341530D01*
X5037020Y-10193840D02*
X5077020Y-10233840D01*
X5077020Y-10193840D02*
X5037020Y-10233840D01*
X5215610Y-10141470D02*
X5255610Y-10181470D01*
X5255610Y-10141470D02*
X5215610Y-10181470D01*
X5341970Y-10987430D02*
X5381970Y-11027430D01*
X5381970Y-10987430D02*
X5341970Y-11027430D01*
X5539150Y-9607610D02*
X5579150Y-9647610D01*
X5579150Y-9607610D02*
X5539150Y-9647610D01*
X5540090Y-8847880D02*
X5580090Y-8887880D01*
X5580090Y-8847880D02*
X5540090Y-8887880D01*
X5565560Y-9812850D02*
X5605560Y-9852850D01*
X5605560Y-9812850D02*
X5565560Y-9852850D01*
X5603840Y-9120020D02*
X5643840Y-9160020D01*
X5643840Y-9120020D02*
X5603840Y-9160020D01*
X5642380Y-8495250D02*
X5682380Y-8535250D01*
X5682380Y-8495250D02*
X5642380Y-8535250D01*
X5642930Y-9740320D02*
X5682930Y-9780320D01*
X5682930Y-9740320D02*
X5642930Y-9780320D01*
X5725030Y-8235000D02*
X5765030Y-8275000D01*
X5765030Y-8235000D02*
X5725030Y-8275000D01*
X5731080Y-9955060D02*
X5771080Y-9995060D01*
X5771080Y-9955060D02*
X5731080Y-9995060D01*
X5822190Y-9885730D02*
X5862190Y-9925730D01*
X5862190Y-9885730D02*
X5822190Y-9925730D01*
X7164120Y-8044500D02*
X7204120Y-8084500D01*
X7204120Y-8044500D02*
X7164120Y-8084500D01*
X7455280Y-8313560D02*
X7495280Y-8353560D01*
X7495280Y-8313560D02*
X7455280Y-8353560D01*
X7790500Y-8933500D02*
X7830500Y-8973500D01*
X7830500Y-8933500D02*
X7790500Y-8973500D01*
X7854000Y-10457500D02*
X7894000Y-10497500D01*
X7894000Y-10457500D02*
X7854000Y-10497500D01*
D12*
X2442928Y-12533214D02*
X2442928Y-12233214D01*
X2514357Y-12233214D01*
X2557214Y-12247500D01*
X2585786Y-12276071D01*
X2600071Y-12304643D01*
X2614357Y-12361786D01*
X2614357Y-12404643D01*
X2600071Y-12461786D01*
X2585786Y-12490357D01*
X2557214Y-12518929D01*
X2514357Y-12533214D01*
X2442928Y-12533214D01*
X2742928Y-12533214D02*
X2742928Y-12333214D01*
X2742928Y-12390357D02*
X2757214Y-12361786D01*
X2771500Y-12347500D01*
X2800071Y-12333214D01*
X2828643Y-12333214D01*
X2928643Y-12533214D02*
X2928643Y-12333214D01*
X2928643Y-12233214D02*
X2914357Y-12247500D01*
X2928643Y-12261786D01*
X2942928Y-12247500D01*
X2928643Y-12233214D01*
X2928643Y-12261786D01*
X3114357Y-12533214D02*
X3085786Y-12518929D01*
X3071500Y-12490357D01*
X3071500Y-12233214D01*
X3271500Y-12533214D02*
X3242928Y-12518929D01*
X3228643Y-12490357D01*
X3228643Y-12233214D01*
X3614357Y-12533214D02*
X3614357Y-12233214D01*
X3714357Y-12447500D01*
X3814357Y-12233214D01*
X3814357Y-12533214D01*
X4085786Y-12533214D02*
X4085786Y-12376071D01*
X4071500Y-12347500D01*
X4042928Y-12333214D01*
X3985786Y-12333214D01*
X3957214Y-12347500D01*
X4085786Y-12518929D02*
X4057214Y-12533214D01*
X3985786Y-12533214D01*
X3957214Y-12518929D01*
X3942928Y-12490357D01*
X3942928Y-12461786D01*
X3957214Y-12433214D01*
X3985786Y-12418929D01*
X4057214Y-12418929D01*
X4085786Y-12404643D01*
X4228643Y-12333214D02*
X4228643Y-12633214D01*
X4228643Y-12347500D02*
X4257214Y-12333214D01*
X4314357Y-12333214D01*
X4342928Y-12347500D01*
X4357214Y-12361786D01*
X4371500Y-12390357D01*
X4371500Y-12476071D01*
X4357214Y-12504643D01*
X4342928Y-12518929D01*
X4314357Y-12533214D01*
X4257214Y-12533214D01*
X4228643Y-12518929D01*
X4500071Y-12504643D02*
X4514357Y-12518929D01*
X4500071Y-12533214D01*
X4485786Y-12518929D01*
X4500071Y-12504643D01*
X4500071Y-12533214D01*
X4500071Y-12347500D02*
X4514357Y-12361786D01*
X4500071Y-12376071D01*
X4485786Y-12361786D01*
X4500071Y-12347500D01*
X4500071Y-12376071D01*
X2116500Y-13007500D02*
X2156500Y-13047500D01*
X2156500Y-13007500D02*
X2116500Y-13047500D01*
X2500071Y-12863214D02*
X2528643Y-12863214D01*
X2557214Y-12877500D01*
X2571500Y-12891786D01*
X2585786Y-12920357D01*
X2600071Y-12977500D01*
X2600071Y-13048929D01*
X2585786Y-13106071D01*
X2571500Y-13134643D01*
X2557214Y-13148929D01*
X2528643Y-13163214D01*
X2500071Y-13163214D01*
X2471500Y-13148929D01*
X2457214Y-13134643D01*
X2442928Y-13106071D01*
X2428643Y-13048929D01*
X2428643Y-12977500D01*
X2442928Y-12920357D01*
X2457214Y-12891786D01*
X2471500Y-12877500D01*
X2500071Y-12863214D01*
X2728643Y-13134643D02*
X2742928Y-13148929D01*
X2728643Y-13163214D01*
X2714357Y-13148929D01*
X2728643Y-13134643D01*
X2728643Y-13163214D01*
X3000071Y-12963214D02*
X3000071Y-13163214D01*
X2928643Y-12848929D02*
X2857214Y-13063214D01*
X3042928Y-13063214D01*
X3214357Y-12863214D02*
X3242928Y-12863214D01*
X3271500Y-12877500D01*
X3285786Y-12891786D01*
X3300071Y-12920357D01*
X3314357Y-12977500D01*
X3314357Y-13048929D01*
X3300071Y-13106071D01*
X3285786Y-13134643D01*
X3271500Y-13148929D01*
X3242928Y-13163214D01*
X3214357Y-13163214D01*
X3185786Y-13148929D01*
X3171500Y-13134643D01*
X3157214Y-13106071D01*
X3142928Y-13048929D01*
X3142928Y-12977500D01*
X3157214Y-12920357D01*
X3171500Y-12891786D01*
X3185786Y-12877500D01*
X3214357Y-12863214D01*
X3500071Y-12863214D02*
X3528643Y-12863214D01*
X3557214Y-12877500D01*
X3571500Y-12891786D01*
X3585786Y-12920357D01*
X3600071Y-12977500D01*
X3600071Y-13048929D01*
X3585786Y-13106071D01*
X3571500Y-13134643D01*
X3557214Y-13148929D01*
X3528643Y-13163214D01*
X3500071Y-13163214D01*
X3471500Y-13148929D01*
X3457214Y-13134643D01*
X3442928Y-13106071D01*
X3428643Y-13048929D01*
X3428643Y-12977500D01*
X3442928Y-12920357D01*
X3457214Y-12891786D01*
X3471500Y-12877500D01*
X3500071Y-12863214D01*
X3728643Y-13163214D02*
X3728643Y-12963214D01*
X3728643Y-12991786D02*
X3742928Y-12977500D01*
X3771500Y-12963214D01*
X3814357Y-12963214D01*
X3842928Y-12977500D01*
X3857214Y-13006071D01*
X3857214Y-13163214D01*
X3857214Y-13006071D02*
X3871500Y-12977500D01*
X3900071Y-12963214D01*
X3942928Y-12963214D01*
X3971500Y-12977500D01*
X3985786Y-13006071D01*
X3985786Y-13163214D01*
X4128643Y-13163214D02*
X4128643Y-12963214D01*
X4128643Y-12991786D02*
X4142928Y-12977500D01*
X4171500Y-12963214D01*
X4214357Y-12963214D01*
X4242928Y-12977500D01*
X4257214Y-13006071D01*
X4257214Y-13163214D01*
X4257214Y-13006071D02*
X4271500Y-12977500D01*
X4300071Y-12963214D01*
X4342928Y-12963214D01*
X4371500Y-12977500D01*
X4385786Y-13006071D01*
X4385786Y-13163214D01*
X4971500Y-12848929D02*
X4714357Y-13234643D01*
X5357214Y-12863214D02*
X5385786Y-12863214D01*
X5414357Y-12877500D01*
X5428643Y-12891786D01*
X5442928Y-12920357D01*
X5457214Y-12977500D01*
X5457214Y-13048929D01*
X5442928Y-13106071D01*
X5428643Y-13134643D01*
X5414357Y-13148929D01*
X5385786Y-13163214D01*
X5357214Y-13163214D01*
X5328643Y-13148929D01*
X5314357Y-13134643D01*
X5300071Y-13106071D01*
X5285786Y-13048929D01*
X5285786Y-12977500D01*
X5300071Y-12920357D01*
X5314357Y-12891786D01*
X5328643Y-12877500D01*
X5357214Y-12863214D01*
X5585786Y-13134643D02*
X5600071Y-13148929D01*
X5585786Y-13163214D01*
X5571500Y-13148929D01*
X5585786Y-13134643D01*
X5585786Y-13163214D01*
X5785786Y-12863214D02*
X5814357Y-12863214D01*
X5842928Y-12877500D01*
X5857214Y-12891786D01*
X5871500Y-12920357D01*
X5885786Y-12977500D01*
X5885786Y-13048929D01*
X5871500Y-13106071D01*
X5857214Y-13134643D01*
X5842928Y-13148929D01*
X5814357Y-13163214D01*
X5785786Y-13163214D01*
X5757214Y-13148929D01*
X5742928Y-13134643D01*
X5728643Y-13106071D01*
X5714357Y-13048929D01*
X5714357Y-12977500D01*
X5728643Y-12920357D01*
X5742928Y-12891786D01*
X5757214Y-12877500D01*
X5785786Y-12863214D01*
X6171500Y-13163214D02*
X6000071Y-13163214D01*
X6085786Y-13163214D02*
X6085786Y-12863214D01*
X6057214Y-12906071D01*
X6028643Y-12934643D01*
X6000071Y-12948929D01*
X6442928Y-12863214D02*
X6300071Y-12863214D01*
X6285786Y-13006071D01*
X6300071Y-12991786D01*
X6328643Y-12977500D01*
X6400071Y-12977500D01*
X6428643Y-12991786D01*
X6442928Y-13006071D01*
X6457214Y-13034643D01*
X6457214Y-13106071D01*
X6442928Y-13134643D01*
X6428643Y-13148929D01*
X6400071Y-13163214D01*
X6328643Y-13163214D01*
X6300071Y-13148929D01*
X6285786Y-13134643D01*
X6557214Y-12863214D02*
X6757214Y-12863214D01*
X6628643Y-13163214D01*
X6857214Y-12863214D02*
X6857214Y-12920357D01*
X6971500Y-12863214D02*
X6971500Y-12920357D01*
X7414357Y-13277500D02*
X7400071Y-13263214D01*
X7371500Y-13220357D01*
X7357214Y-13191786D01*
X7342928Y-13148929D01*
X7328643Y-13077500D01*
X7328643Y-13020357D01*
X7342928Y-12948929D01*
X7357214Y-12906071D01*
X7371500Y-12877500D01*
X7400071Y-12834643D01*
X7414357Y-12820357D01*
X7500071Y-12863214D02*
X7685786Y-12863214D01*
X7585786Y-12977500D01*
X7628643Y-12977500D01*
X7657214Y-12991786D01*
X7671500Y-13006071D01*
X7685786Y-13034643D01*
X7685786Y-13106071D01*
X7671500Y-13134643D01*
X7657214Y-13148929D01*
X7628643Y-13163214D01*
X7542928Y-13163214D01*
X7514357Y-13148929D01*
X7500071Y-13134643D01*
X7942928Y-12863214D02*
X7885786Y-12863214D01*
X7857214Y-12877500D01*
X7842928Y-12891786D01*
X7814357Y-12934643D01*
X7800071Y-12991786D01*
X7800071Y-13106071D01*
X7814357Y-13134643D01*
X7828643Y-13148929D01*
X7857214Y-13163214D01*
X7914357Y-13163214D01*
X7942928Y-13148929D01*
X7957214Y-13134643D01*
X7971500Y-13106071D01*
X7971500Y-13034643D01*
X7957214Y-13006071D01*
X7942928Y-12991786D01*
X7914357Y-12977500D01*
X7857214Y-12977500D01*
X7828643Y-12991786D01*
X7814357Y-13006071D01*
X7800071Y-13034643D01*
X8328643Y-13163214D02*
X8328643Y-12863214D01*
X8457214Y-13163214D02*
X8457214Y-13006071D01*
X8442928Y-12977500D01*
X8414357Y-12963214D01*
X8371500Y-12963214D01*
X8342928Y-12977500D01*
X8328643Y-12991786D01*
X8642928Y-13163214D02*
X8614357Y-13148929D01*
X8600071Y-13134643D01*
X8585786Y-13106071D01*
X8585786Y-13020357D01*
X8600071Y-12991786D01*
X8614357Y-12977500D01*
X8642928Y-12963214D01*
X8685786Y-12963214D01*
X8714357Y-12977500D01*
X8728643Y-12991786D01*
X8742928Y-13020357D01*
X8742928Y-13106071D01*
X8728643Y-13134643D01*
X8714357Y-13148929D01*
X8685786Y-13163214D01*
X8642928Y-13163214D01*
X8914357Y-13163214D02*
X8885786Y-13148929D01*
X8871500Y-13120357D01*
X8871500Y-12863214D01*
X9142928Y-13148929D02*
X9114357Y-13163214D01*
X9057214Y-13163214D01*
X9028643Y-13148929D01*
X9014357Y-13120357D01*
X9014357Y-13006071D01*
X9028643Y-12977500D01*
X9057214Y-12963214D01*
X9114357Y-12963214D01*
X9142928Y-12977500D01*
X9157214Y-13006071D01*
X9157214Y-13034643D01*
X9014357Y-13063214D01*
X9271500Y-13148929D02*
X9300071Y-13163214D01*
X9357214Y-13163214D01*
X9385786Y-13148929D01*
X9400071Y-13120357D01*
X9400071Y-13106071D01*
X9385786Y-13077500D01*
X9357214Y-13063214D01*
X9314357Y-13063214D01*
X9285786Y-13048929D01*
X9271500Y-13020357D01*
X9271500Y-13006071D01*
X9285786Y-12977500D01*
X9314357Y-12963214D01*
X9357214Y-12963214D01*
X9385786Y-12977500D01*
X9500071Y-13277500D02*
X9514357Y-13263214D01*
X9542928Y-13220357D01*
X9557214Y-13191786D01*
X9571500Y-13148929D01*
X9585786Y-13077500D01*
X9585786Y-13020357D01*
X9571500Y-12948929D01*
X9557214Y-12906071D01*
X9542928Y-12877500D01*
X9514357Y-12834643D01*
X9500071Y-12820357D01*
M02*
