%TF.GenerationSoftware,KiCad,Pcbnew,5.99.0+really5.1.10+dfsg1-1*%
%TF.CreationDate,2022-01-09T16:24:14+01:00*%
%TF.ProjectId,ram_ps1_2121,72616d5f-7073-4315-9f32-3132312e6b69,rev?*%
%TF.SameCoordinates,Original*%
%TF.FileFunction,Other,Fab,Top*%
%FSLAX46Y46*%
G04 Gerber Fmt 4.6, Leading zero omitted, Abs format (unit mm)*
G04 Created by KiCad (PCBNEW 5.99.0+really5.1.10+dfsg1-1) date 2022-01-09 16:24:14*
%MOMM*%
%LPD*%
G01*
G04 APERTURE LIST*
%ADD10C,0.100000*%
%ADD11C,0.150000*%
%ADD12C,0.300000*%
%ADD13C,0.400000*%
%ADD14C,0.120000*%
G04 APERTURE END LIST*
D10*
D11*
X177002200Y-166007200D02*
X177002200Y-198007200D01*
X285002200Y-198007200D01*
X285002200Y-166007200D01*
X177002200Y-166007200D01*
D10*
D11*
X10000000Y-10000000D02*
X10000000Y-200007200D01*
X287002200Y-200007200D01*
X287002200Y-10000000D01*
X10000000Y-10000000D01*
D10*
D11*
X12000000Y-12000000D02*
X12000000Y-198007200D01*
X285002200Y-198007200D01*
X285002200Y-12000000D01*
X12000000Y-12000000D01*
D10*
D11*
X60000000Y-12000000D02*
X60000000Y-10000000D01*
D10*
D11*
X110000000Y-12000000D02*
X110000000Y-10000000D01*
D10*
D11*
X160000000Y-12000000D02*
X160000000Y-10000000D01*
D10*
D11*
X210000000Y-12000000D02*
X210000000Y-10000000D01*
D10*
D11*
X260000000Y-12000000D02*
X260000000Y-10000000D01*
D10*
D11*
X36065476Y-11588095D02*
X35322619Y-11588095D01*
X35694047Y-11588095D02*
X35694047Y-10288095D01*
X35570238Y-10473809D01*
X35446428Y-10597619D01*
X35322619Y-10659523D01*
D10*
D11*
X85322619Y-10411904D02*
X85384523Y-10350000D01*
X85508333Y-10288095D01*
X85817857Y-10288095D01*
X85941666Y-10350000D01*
X86003571Y-10411904D01*
X86065476Y-10535714D01*
X86065476Y-10659523D01*
X86003571Y-10845238D01*
X85260714Y-11588095D01*
X86065476Y-11588095D01*
D10*
D11*
X135260714Y-10288095D02*
X136065476Y-10288095D01*
X135632142Y-10783333D01*
X135817857Y-10783333D01*
X135941666Y-10845238D01*
X136003571Y-10907142D01*
X136065476Y-11030952D01*
X136065476Y-11340476D01*
X136003571Y-11464285D01*
X135941666Y-11526190D01*
X135817857Y-11588095D01*
X135446428Y-11588095D01*
X135322619Y-11526190D01*
X135260714Y-11464285D01*
D10*
D11*
X185941666Y-10721428D02*
X185941666Y-11588095D01*
X185632142Y-10226190D02*
X185322619Y-11154761D01*
X186127380Y-11154761D01*
D10*
D11*
X236003571Y-10288095D02*
X235384523Y-10288095D01*
X235322619Y-10907142D01*
X235384523Y-10845238D01*
X235508333Y-10783333D01*
X235817857Y-10783333D01*
X235941666Y-10845238D01*
X236003571Y-10907142D01*
X236065476Y-11030952D01*
X236065476Y-11340476D01*
X236003571Y-11464285D01*
X235941666Y-11526190D01*
X235817857Y-11588095D01*
X235508333Y-11588095D01*
X235384523Y-11526190D01*
X235322619Y-11464285D01*
D10*
D11*
X285941666Y-10288095D02*
X285694047Y-10288095D01*
X285570238Y-10350000D01*
X285508333Y-10411904D01*
X285384523Y-10597619D01*
X285322619Y-10845238D01*
X285322619Y-11340476D01*
X285384523Y-11464285D01*
X285446428Y-11526190D01*
X285570238Y-11588095D01*
X285817857Y-11588095D01*
X285941666Y-11526190D01*
X286003571Y-11464285D01*
X286065476Y-11340476D01*
X286065476Y-11030952D01*
X286003571Y-10907142D01*
X285941666Y-10845238D01*
X285817857Y-10783333D01*
X285570238Y-10783333D01*
X285446428Y-10845238D01*
X285384523Y-10907142D01*
X285322619Y-11030952D01*
D10*
D11*
X60000000Y-198007200D02*
X60000000Y-200007200D01*
D10*
D11*
X110000000Y-198007200D02*
X110000000Y-200007200D01*
D10*
D11*
X160000000Y-198007200D02*
X160000000Y-200007200D01*
D10*
D11*
X210000000Y-198007200D02*
X210000000Y-200007200D01*
D10*
D11*
X260000000Y-198007200D02*
X260000000Y-200007200D01*
D10*
D11*
X36065476Y-199595295D02*
X35322619Y-199595295D01*
X35694047Y-199595295D02*
X35694047Y-198295295D01*
X35570238Y-198481009D01*
X35446428Y-198604819D01*
X35322619Y-198666723D01*
D10*
D11*
X85322619Y-198419104D02*
X85384523Y-198357200D01*
X85508333Y-198295295D01*
X85817857Y-198295295D01*
X85941666Y-198357200D01*
X86003571Y-198419104D01*
X86065476Y-198542914D01*
X86065476Y-198666723D01*
X86003571Y-198852438D01*
X85260714Y-199595295D01*
X86065476Y-199595295D01*
D10*
D11*
X135260714Y-198295295D02*
X136065476Y-198295295D01*
X135632142Y-198790533D01*
X135817857Y-198790533D01*
X135941666Y-198852438D01*
X136003571Y-198914342D01*
X136065476Y-199038152D01*
X136065476Y-199347676D01*
X136003571Y-199471485D01*
X135941666Y-199533390D01*
X135817857Y-199595295D01*
X135446428Y-199595295D01*
X135322619Y-199533390D01*
X135260714Y-199471485D01*
D10*
D11*
X185941666Y-198728628D02*
X185941666Y-199595295D01*
X185632142Y-198233390D02*
X185322619Y-199161961D01*
X186127380Y-199161961D01*
D10*
D11*
X236003571Y-198295295D02*
X235384523Y-198295295D01*
X235322619Y-198914342D01*
X235384523Y-198852438D01*
X235508333Y-198790533D01*
X235817857Y-198790533D01*
X235941666Y-198852438D01*
X236003571Y-198914342D01*
X236065476Y-199038152D01*
X236065476Y-199347676D01*
X236003571Y-199471485D01*
X235941666Y-199533390D01*
X235817857Y-199595295D01*
X235508333Y-199595295D01*
X235384523Y-199533390D01*
X235322619Y-199471485D01*
D10*
D11*
X285941666Y-198295295D02*
X285694047Y-198295295D01*
X285570238Y-198357200D01*
X285508333Y-198419104D01*
X285384523Y-198604819D01*
X285322619Y-198852438D01*
X285322619Y-199347676D01*
X285384523Y-199471485D01*
X285446428Y-199533390D01*
X285570238Y-199595295D01*
X285817857Y-199595295D01*
X285941666Y-199533390D01*
X286003571Y-199471485D01*
X286065476Y-199347676D01*
X286065476Y-199038152D01*
X286003571Y-198914342D01*
X285941666Y-198852438D01*
X285817857Y-198790533D01*
X285570238Y-198790533D01*
X285446428Y-198852438D01*
X285384523Y-198914342D01*
X285322619Y-199038152D01*
D10*
D11*
X10000000Y-60000000D02*
X12000000Y-60000000D01*
D10*
D11*
X10000000Y-110000000D02*
X12000000Y-110000000D01*
D10*
D11*
X10000000Y-160000000D02*
X12000000Y-160000000D01*
D10*
D11*
X10690476Y-35216666D02*
X11309523Y-35216666D01*
X10566666Y-35588095D02*
X11000000Y-34288095D01*
X11433333Y-35588095D01*
D10*
D11*
X11092857Y-84907142D02*
X11278571Y-84969047D01*
X11340476Y-85030952D01*
X11402380Y-85154761D01*
X11402380Y-85340476D01*
X11340476Y-85464285D01*
X11278571Y-85526190D01*
X11154761Y-85588095D01*
X10659523Y-85588095D01*
X10659523Y-84288095D01*
X11092857Y-84288095D01*
X11216666Y-84350000D01*
X11278571Y-84411904D01*
X11340476Y-84535714D01*
X11340476Y-84659523D01*
X11278571Y-84783333D01*
X11216666Y-84845238D01*
X11092857Y-84907142D01*
X10659523Y-84907142D01*
D10*
D11*
X11402380Y-135464285D02*
X11340476Y-135526190D01*
X11154761Y-135588095D01*
X11030952Y-135588095D01*
X10845238Y-135526190D01*
X10721428Y-135402380D01*
X10659523Y-135278571D01*
X10597619Y-135030952D01*
X10597619Y-134845238D01*
X10659523Y-134597619D01*
X10721428Y-134473809D01*
X10845238Y-134350000D01*
X11030952Y-134288095D01*
X11154761Y-134288095D01*
X11340476Y-134350000D01*
X11402380Y-134411904D01*
D10*
D11*
X10659523Y-185588095D02*
X10659523Y-184288095D01*
X10969047Y-184288095D01*
X11154761Y-184350000D01*
X11278571Y-184473809D01*
X11340476Y-184597619D01*
X11402380Y-184845238D01*
X11402380Y-185030952D01*
X11340476Y-185278571D01*
X11278571Y-185402380D01*
X11154761Y-185526190D01*
X10969047Y-185588095D01*
X10659523Y-185588095D01*
D10*
D11*
X287002200Y-60000000D02*
X285002200Y-60000000D01*
D10*
D11*
X287002200Y-110000000D02*
X285002200Y-110000000D01*
D10*
D11*
X287002200Y-160000000D02*
X285002200Y-160000000D01*
D10*
D11*
X285692676Y-35216666D02*
X286311723Y-35216666D01*
X285568866Y-35588095D02*
X286002200Y-34288095D01*
X286435533Y-35588095D01*
D10*
D11*
X286095057Y-84907142D02*
X286280771Y-84969047D01*
X286342676Y-85030952D01*
X286404580Y-85154761D01*
X286404580Y-85340476D01*
X286342676Y-85464285D01*
X286280771Y-85526190D01*
X286156961Y-85588095D01*
X285661723Y-85588095D01*
X285661723Y-84288095D01*
X286095057Y-84288095D01*
X286218866Y-84350000D01*
X286280771Y-84411904D01*
X286342676Y-84535714D01*
X286342676Y-84659523D01*
X286280771Y-84783333D01*
X286218866Y-84845238D01*
X286095057Y-84907142D01*
X285661723Y-84907142D01*
D10*
D11*
X286404580Y-135464285D02*
X286342676Y-135526190D01*
X286156961Y-135588095D01*
X286033152Y-135588095D01*
X285847438Y-135526190D01*
X285723628Y-135402380D01*
X285661723Y-135278571D01*
X285599819Y-135030952D01*
X285599819Y-134845238D01*
X285661723Y-134597619D01*
X285723628Y-134473809D01*
X285847438Y-134350000D01*
X286033152Y-134288095D01*
X286156961Y-134288095D01*
X286342676Y-134350000D01*
X286404580Y-134411904D01*
D10*
D11*
X285661723Y-185588095D02*
X285661723Y-184288095D01*
X285971247Y-184288095D01*
X286156961Y-184350000D01*
X286280771Y-184473809D01*
X286342676Y-184597619D01*
X286404580Y-184845238D01*
X286404580Y-185030952D01*
X286342676Y-185278571D01*
X286280771Y-185402380D01*
X286156961Y-185526190D01*
X285971247Y-185588095D01*
X285661723Y-185588095D01*
D10*
D11*
X200434342Y-193785771D02*
X200434342Y-192285771D01*
X200791485Y-192285771D01*
X201005771Y-192357200D01*
X201148628Y-192500057D01*
X201220057Y-192642914D01*
X201291485Y-192928628D01*
X201291485Y-193142914D01*
X201220057Y-193428628D01*
X201148628Y-193571485D01*
X201005771Y-193714342D01*
X200791485Y-193785771D01*
X200434342Y-193785771D01*
X202577200Y-193785771D02*
X202577200Y-193000057D01*
X202505771Y-192857200D01*
X202362914Y-192785771D01*
X202077200Y-192785771D01*
X201934342Y-192857200D01*
X202577200Y-193714342D02*
X202434342Y-193785771D01*
X202077200Y-193785771D01*
X201934342Y-193714342D01*
X201862914Y-193571485D01*
X201862914Y-193428628D01*
X201934342Y-193285771D01*
X202077200Y-193214342D01*
X202434342Y-193214342D01*
X202577200Y-193142914D01*
X203077200Y-192785771D02*
X203648628Y-192785771D01*
X203291485Y-192285771D02*
X203291485Y-193571485D01*
X203362914Y-193714342D01*
X203505771Y-193785771D01*
X203648628Y-193785771D01*
X204720057Y-193714342D02*
X204577200Y-193785771D01*
X204291485Y-193785771D01*
X204148628Y-193714342D01*
X204077200Y-193571485D01*
X204077200Y-193000057D01*
X204148628Y-192857200D01*
X204291485Y-192785771D01*
X204577200Y-192785771D01*
X204720057Y-192857200D01*
X204791485Y-193000057D01*
X204791485Y-193142914D01*
X204077200Y-193285771D01*
X205434342Y-193642914D02*
X205505771Y-193714342D01*
X205434342Y-193785771D01*
X205362914Y-193714342D01*
X205434342Y-193642914D01*
X205434342Y-193785771D01*
X205434342Y-192857200D02*
X205505771Y-192928628D01*
X205434342Y-193000057D01*
X205362914Y-192928628D01*
X205434342Y-192857200D01*
X205434342Y-193000057D01*
D10*
D11*
X177002200Y-194507200D02*
X285002200Y-194507200D01*
D10*
D11*
X178434342Y-196585771D02*
X178434342Y-195085771D01*
X179291485Y-196585771D02*
X178648628Y-195728628D01*
X179291485Y-195085771D02*
X178434342Y-195942914D01*
X179934342Y-196585771D02*
X179934342Y-195585771D01*
X179934342Y-195085771D02*
X179862914Y-195157200D01*
X179934342Y-195228628D01*
X180005771Y-195157200D01*
X179934342Y-195085771D01*
X179934342Y-195228628D01*
X181505771Y-196442914D02*
X181434342Y-196514342D01*
X181220057Y-196585771D01*
X181077200Y-196585771D01*
X180862914Y-196514342D01*
X180720057Y-196371485D01*
X180648628Y-196228628D01*
X180577200Y-195942914D01*
X180577200Y-195728628D01*
X180648628Y-195442914D01*
X180720057Y-195300057D01*
X180862914Y-195157200D01*
X181077200Y-195085771D01*
X181220057Y-195085771D01*
X181434342Y-195157200D01*
X181505771Y-195228628D01*
X182791485Y-196585771D02*
X182791485Y-195800057D01*
X182720057Y-195657200D01*
X182577200Y-195585771D01*
X182291485Y-195585771D01*
X182148628Y-195657200D01*
X182791485Y-196514342D02*
X182648628Y-196585771D01*
X182291485Y-196585771D01*
X182148628Y-196514342D01*
X182077200Y-196371485D01*
X182077200Y-196228628D01*
X182148628Y-196085771D01*
X182291485Y-196014342D01*
X182648628Y-196014342D01*
X182791485Y-195942914D01*
X184148628Y-196585771D02*
X184148628Y-195085771D01*
X184148628Y-196514342D02*
X184005771Y-196585771D01*
X183720057Y-196585771D01*
X183577200Y-196514342D01*
X183505771Y-196442914D01*
X183434342Y-196300057D01*
X183434342Y-195871485D01*
X183505771Y-195728628D01*
X183577200Y-195657200D01*
X183720057Y-195585771D01*
X184005771Y-195585771D01*
X184148628Y-195657200D01*
X186005771Y-195800057D02*
X186505771Y-195800057D01*
X186720057Y-196585771D02*
X186005771Y-196585771D01*
X186005771Y-195085771D01*
X186720057Y-195085771D01*
X187362914Y-196442914D02*
X187434342Y-196514342D01*
X187362914Y-196585771D01*
X187291485Y-196514342D01*
X187362914Y-196442914D01*
X187362914Y-196585771D01*
X188077200Y-196585771D02*
X188077200Y-195085771D01*
X188434342Y-195085771D01*
X188648628Y-195157200D01*
X188791485Y-195300057D01*
X188862914Y-195442914D01*
X188934342Y-195728628D01*
X188934342Y-195942914D01*
X188862914Y-196228628D01*
X188791485Y-196371485D01*
X188648628Y-196514342D01*
X188434342Y-196585771D01*
X188077200Y-196585771D01*
X189577200Y-196442914D02*
X189648628Y-196514342D01*
X189577200Y-196585771D01*
X189505771Y-196514342D01*
X189577200Y-196442914D01*
X189577200Y-196585771D01*
X190220057Y-196157200D02*
X190934342Y-196157200D01*
X190077200Y-196585771D02*
X190577200Y-195085771D01*
X191077200Y-196585771D01*
X191577200Y-196442914D02*
X191648628Y-196514342D01*
X191577200Y-196585771D01*
X191505771Y-196514342D01*
X191577200Y-196442914D01*
X191577200Y-196585771D01*
X194577200Y-196585771D02*
X194577200Y-195085771D01*
X194720057Y-196014342D02*
X195148628Y-196585771D01*
X195148628Y-195585771D02*
X194577200Y-196157200D01*
X195791485Y-196585771D02*
X195791485Y-195585771D01*
X195791485Y-195085771D02*
X195720057Y-195157200D01*
X195791485Y-195228628D01*
X195862914Y-195157200D01*
X195791485Y-195085771D01*
X195791485Y-195228628D01*
X197148628Y-196514342D02*
X197005771Y-196585771D01*
X196720057Y-196585771D01*
X196577200Y-196514342D01*
X196505771Y-196442914D01*
X196434342Y-196300057D01*
X196434342Y-195871485D01*
X196505771Y-195728628D01*
X196577200Y-195657200D01*
X196720057Y-195585771D01*
X197005771Y-195585771D01*
X197148628Y-195657200D01*
X198434342Y-196585771D02*
X198434342Y-195800057D01*
X198362914Y-195657200D01*
X198220057Y-195585771D01*
X197934342Y-195585771D01*
X197791485Y-195657200D01*
X198434342Y-196514342D02*
X198291485Y-196585771D01*
X197934342Y-196585771D01*
X197791485Y-196514342D01*
X197720057Y-196371485D01*
X197720057Y-196228628D01*
X197791485Y-196085771D01*
X197934342Y-196014342D01*
X198291485Y-196014342D01*
X198434342Y-195942914D01*
X199791485Y-196585771D02*
X199791485Y-195085771D01*
X199791485Y-196514342D02*
X199648628Y-196585771D01*
X199362914Y-196585771D01*
X199220057Y-196514342D01*
X199148628Y-196442914D01*
X199077200Y-196300057D01*
X199077200Y-195871485D01*
X199148628Y-195728628D01*
X199220057Y-195657200D01*
X199362914Y-195585771D01*
X199648628Y-195585771D01*
X199791485Y-195657200D01*
X202362914Y-195085771D02*
X201648628Y-195085771D01*
X201577200Y-195800057D01*
X201648628Y-195728628D01*
X201791485Y-195657200D01*
X202148628Y-195657200D01*
X202291485Y-195728628D01*
X202362914Y-195800057D01*
X202434342Y-195942914D01*
X202434342Y-196300057D01*
X202362914Y-196442914D01*
X202291485Y-196514342D01*
X202148628Y-196585771D01*
X201791485Y-196585771D01*
X201648628Y-196514342D01*
X201577200Y-196442914D01*
X203077200Y-196442914D02*
X203148628Y-196514342D01*
X203077200Y-196585771D01*
X203005771Y-196514342D01*
X203077200Y-196442914D01*
X203077200Y-196585771D01*
X203862914Y-196585771D02*
X204148628Y-196585771D01*
X204291485Y-196514342D01*
X204362914Y-196442914D01*
X204505771Y-196228628D01*
X204577200Y-195942914D01*
X204577200Y-195371485D01*
X204505771Y-195228628D01*
X204434342Y-195157200D01*
X204291485Y-195085771D01*
X204005771Y-195085771D01*
X203862914Y-195157200D01*
X203791485Y-195228628D01*
X203720057Y-195371485D01*
X203720057Y-195728628D01*
X203791485Y-195871485D01*
X203862914Y-195942914D01*
X204005771Y-196014342D01*
X204291485Y-196014342D01*
X204434342Y-195942914D01*
X204505771Y-195871485D01*
X204577200Y-195728628D01*
X205291485Y-196585771D02*
X205577200Y-196585771D01*
X205720057Y-196514342D01*
X205791485Y-196442914D01*
X205934342Y-196228628D01*
X206005771Y-195942914D01*
X206005771Y-195371485D01*
X205934342Y-195228628D01*
X205862914Y-195157200D01*
X205720057Y-195085771D01*
X205434342Y-195085771D01*
X205291485Y-195157200D01*
X205220057Y-195228628D01*
X205148628Y-195371485D01*
X205148628Y-195728628D01*
X205220057Y-195871485D01*
X205291485Y-195942914D01*
X205434342Y-196014342D01*
X205720057Y-196014342D01*
X205862914Y-195942914D01*
X205934342Y-195871485D01*
X206005771Y-195728628D01*
X206648628Y-196442914D02*
X206720057Y-196514342D01*
X206648628Y-196585771D01*
X206577200Y-196514342D01*
X206648628Y-196442914D01*
X206648628Y-196585771D01*
X207648628Y-195085771D02*
X207791485Y-195085771D01*
X207934342Y-195157200D01*
X208005771Y-195228628D01*
X208077200Y-195371485D01*
X208148628Y-195657200D01*
X208148628Y-196014342D01*
X208077200Y-196300057D01*
X208005771Y-196442914D01*
X207934342Y-196514342D01*
X207791485Y-196585771D01*
X207648628Y-196585771D01*
X207505771Y-196514342D01*
X207434342Y-196442914D01*
X207362914Y-196300057D01*
X207291485Y-196014342D01*
X207291485Y-195657200D01*
X207362914Y-195371485D01*
X207434342Y-195228628D01*
X207505771Y-195157200D01*
X207648628Y-195085771D01*
X208791485Y-196014342D02*
X209934342Y-196014342D01*
X209362914Y-196585771D02*
X209362914Y-195442914D01*
X210648628Y-196585771D02*
X210648628Y-195585771D01*
X210648628Y-195871485D02*
X210720057Y-195728628D01*
X210791485Y-195657200D01*
X210934342Y-195585771D01*
X211077200Y-195585771D01*
X212148628Y-196514342D02*
X212005771Y-196585771D01*
X211720057Y-196585771D01*
X211577200Y-196514342D01*
X211505771Y-196371485D01*
X211505771Y-195800057D01*
X211577200Y-195657200D01*
X211720057Y-195585771D01*
X212005771Y-195585771D01*
X212148628Y-195657200D01*
X212220057Y-195800057D01*
X212220057Y-195942914D01*
X211505771Y-196085771D01*
X213505771Y-196585771D02*
X213505771Y-195800057D01*
X213434342Y-195657200D01*
X213291485Y-195585771D01*
X213005771Y-195585771D01*
X212862914Y-195657200D01*
X213505771Y-196514342D02*
X213362914Y-196585771D01*
X213005771Y-196585771D01*
X212862914Y-196514342D01*
X212791485Y-196371485D01*
X212791485Y-196228628D01*
X212862914Y-196085771D01*
X213005771Y-196014342D01*
X213362914Y-196014342D01*
X213505771Y-195942914D01*
X214434342Y-196585771D02*
X214291485Y-196514342D01*
X214220057Y-196371485D01*
X214220057Y-195085771D01*
X215220057Y-196585771D02*
X215077200Y-196514342D01*
X215005771Y-196371485D01*
X215005771Y-195085771D01*
X215648628Y-195585771D02*
X216005771Y-196585771D01*
X216362914Y-195585771D02*
X216005771Y-196585771D01*
X215862914Y-196942914D01*
X215791485Y-197014342D01*
X215648628Y-197085771D01*
X217648628Y-195085771D02*
X216934342Y-195085771D01*
X216862914Y-195800057D01*
X216934342Y-195728628D01*
X217077200Y-195657200D01*
X217434342Y-195657200D01*
X217577200Y-195728628D01*
X217648628Y-195800057D01*
X217720057Y-195942914D01*
X217720057Y-196300057D01*
X217648628Y-196442914D01*
X217577200Y-196514342D01*
X217434342Y-196585771D01*
X217077200Y-196585771D01*
X216934342Y-196514342D01*
X216862914Y-196442914D01*
X218362914Y-196442914D02*
X218434342Y-196514342D01*
X218362914Y-196585771D01*
X218291485Y-196514342D01*
X218362914Y-196442914D01*
X218362914Y-196585771D01*
X219862914Y-196585771D02*
X219005771Y-196585771D01*
X219434342Y-196585771D02*
X219434342Y-195085771D01*
X219291485Y-195300057D01*
X219148628Y-195442914D01*
X219005771Y-195514342D01*
X220505771Y-196442914D02*
X220577200Y-196514342D01*
X220505771Y-196585771D01*
X220434342Y-196514342D01*
X220505771Y-196442914D01*
X220505771Y-196585771D01*
X222005771Y-196585771D02*
X221148628Y-196585771D01*
X221577200Y-196585771D02*
X221577200Y-195085771D01*
X221434342Y-195300057D01*
X221291485Y-195442914D01*
X221148628Y-195514342D01*
X222934342Y-195085771D02*
X223077200Y-195085771D01*
X223220057Y-195157200D01*
X223291485Y-195228628D01*
X223362914Y-195371485D01*
X223434342Y-195657200D01*
X223434342Y-196014342D01*
X223362914Y-196300057D01*
X223291485Y-196442914D01*
X223220057Y-196514342D01*
X223077200Y-196585771D01*
X222934342Y-196585771D01*
X222791485Y-196514342D01*
X222720057Y-196442914D01*
X222648628Y-196300057D01*
X222577200Y-196014342D01*
X222577200Y-195657200D01*
X222648628Y-195371485D01*
X222720057Y-195228628D01*
X222791485Y-195157200D01*
X222934342Y-195085771D01*
X224077200Y-196014342D02*
X225220057Y-196014342D01*
X224648628Y-196585771D02*
X224648628Y-195442914D01*
X226577200Y-196585771D02*
X226577200Y-195085771D01*
X226577200Y-196514342D02*
X226434342Y-196585771D01*
X226148628Y-196585771D01*
X226005771Y-196514342D01*
X225934342Y-196442914D01*
X225862914Y-196300057D01*
X225862914Y-195871485D01*
X225934342Y-195728628D01*
X226005771Y-195657200D01*
X226148628Y-195585771D01*
X226434342Y-195585771D01*
X226577200Y-195657200D01*
X227077200Y-195585771D02*
X227648628Y-195585771D01*
X227291485Y-196585771D02*
X227291485Y-195300057D01*
X227362914Y-195157200D01*
X227505771Y-195085771D01*
X227648628Y-195085771D01*
X228077200Y-196514342D02*
X228220057Y-196585771D01*
X228505771Y-196585771D01*
X228648628Y-196514342D01*
X228720057Y-196371485D01*
X228720057Y-196300057D01*
X228648628Y-196157200D01*
X228505771Y-196085771D01*
X228291485Y-196085771D01*
X228148628Y-196014342D01*
X228077200Y-195871485D01*
X228077200Y-195800057D01*
X228148628Y-195657200D01*
X228291485Y-195585771D01*
X228505771Y-195585771D01*
X228648628Y-195657200D01*
X230005771Y-195585771D02*
X230005771Y-196800057D01*
X229934342Y-196942914D01*
X229862914Y-197014342D01*
X229720057Y-197085771D01*
X229505771Y-197085771D01*
X229362914Y-197014342D01*
X230005771Y-196514342D02*
X229862914Y-196585771D01*
X229577200Y-196585771D01*
X229434342Y-196514342D01*
X229362914Y-196442914D01*
X229291485Y-196300057D01*
X229291485Y-195871485D01*
X229362914Y-195728628D01*
X229434342Y-195657200D01*
X229577200Y-195585771D01*
X229862914Y-195585771D01*
X230005771Y-195657200D01*
X231505771Y-196585771D02*
X230648628Y-196585771D01*
X231077200Y-196585771D02*
X231077200Y-195085771D01*
X230934342Y-195300057D01*
X230791485Y-195442914D01*
X230648628Y-195514342D01*
X232148628Y-196014342D02*
X233291485Y-196014342D01*
X234791485Y-196585771D02*
X233934342Y-196585771D01*
X234362914Y-196585771D02*
X234362914Y-195085771D01*
X234220057Y-195300057D01*
X234077200Y-195442914D01*
X233934342Y-195514342D01*
D10*
D11*
X177002200Y-191507200D02*
X285002200Y-191507200D01*
D10*
D12*
X264411485Y-193785771D02*
X263911485Y-193071485D01*
X263554342Y-193785771D02*
X263554342Y-192285771D01*
X264125771Y-192285771D01*
X264268628Y-192357200D01*
X264340057Y-192428628D01*
X264411485Y-192571485D01*
X264411485Y-192785771D01*
X264340057Y-192928628D01*
X264268628Y-193000057D01*
X264125771Y-193071485D01*
X263554342Y-193071485D01*
X265625771Y-193714342D02*
X265482914Y-193785771D01*
X265197200Y-193785771D01*
X265054342Y-193714342D01*
X264982914Y-193571485D01*
X264982914Y-193000057D01*
X265054342Y-192857200D01*
X265197200Y-192785771D01*
X265482914Y-192785771D01*
X265625771Y-192857200D01*
X265697200Y-193000057D01*
X265697200Y-193142914D01*
X264982914Y-193285771D01*
X266197200Y-192785771D02*
X266554342Y-193785771D01*
X266911485Y-192785771D01*
X267482914Y-193642914D02*
X267554342Y-193714342D01*
X267482914Y-193785771D01*
X267411485Y-193714342D01*
X267482914Y-193642914D01*
X267482914Y-193785771D01*
X267482914Y-192857200D02*
X267554342Y-192928628D01*
X267482914Y-193000057D01*
X267411485Y-192928628D01*
X267482914Y-192857200D01*
X267482914Y-193000057D01*
D10*
D11*
X178362914Y-193714342D02*
X178577200Y-193785771D01*
X178934342Y-193785771D01*
X179077200Y-193714342D01*
X179148628Y-193642914D01*
X179220057Y-193500057D01*
X179220057Y-193357200D01*
X179148628Y-193214342D01*
X179077200Y-193142914D01*
X178934342Y-193071485D01*
X178648628Y-193000057D01*
X178505771Y-192928628D01*
X178434342Y-192857200D01*
X178362914Y-192714342D01*
X178362914Y-192571485D01*
X178434342Y-192428628D01*
X178505771Y-192357200D01*
X178648628Y-192285771D01*
X179005771Y-192285771D01*
X179220057Y-192357200D01*
X179862914Y-193785771D02*
X179862914Y-192785771D01*
X179862914Y-192285771D02*
X179791485Y-192357200D01*
X179862914Y-192428628D01*
X179934342Y-192357200D01*
X179862914Y-192285771D01*
X179862914Y-192428628D01*
X180434342Y-192785771D02*
X181220057Y-192785771D01*
X180434342Y-193785771D01*
X181220057Y-193785771D01*
X182362914Y-193714342D02*
X182220057Y-193785771D01*
X181934342Y-193785771D01*
X181791485Y-193714342D01*
X181720057Y-193571485D01*
X181720057Y-193000057D01*
X181791485Y-192857200D01*
X181934342Y-192785771D01*
X182220057Y-192785771D01*
X182362914Y-192857200D01*
X182434342Y-193000057D01*
X182434342Y-193142914D01*
X181720057Y-193285771D01*
X183077200Y-193642914D02*
X183148628Y-193714342D01*
X183077200Y-193785771D01*
X183005771Y-193714342D01*
X183077200Y-193642914D01*
X183077200Y-193785771D01*
X183077200Y-192857200D02*
X183148628Y-192928628D01*
X183077200Y-193000057D01*
X183005771Y-192928628D01*
X183077200Y-192857200D01*
X183077200Y-193000057D01*
X184862914Y-193357200D02*
X185577200Y-193357200D01*
X184720057Y-193785771D02*
X185220057Y-192285771D01*
X185720057Y-193785771D01*
X186862914Y-192785771D02*
X186862914Y-193785771D01*
X186505771Y-192214342D02*
X186148628Y-193285771D01*
X187077200Y-193285771D01*
D10*
D11*
X263434342Y-196585771D02*
X263434342Y-195085771D01*
X264791485Y-196585771D02*
X264791485Y-195085771D01*
X264791485Y-196514342D02*
X264648628Y-196585771D01*
X264362914Y-196585771D01*
X264220057Y-196514342D01*
X264148628Y-196442914D01*
X264077200Y-196300057D01*
X264077200Y-195871485D01*
X264148628Y-195728628D01*
X264220057Y-195657200D01*
X264362914Y-195585771D01*
X264648628Y-195585771D01*
X264791485Y-195657200D01*
X265505771Y-196442914D02*
X265577200Y-196514342D01*
X265505771Y-196585771D01*
X265434342Y-196514342D01*
X265505771Y-196442914D01*
X265505771Y-196585771D01*
X265505771Y-195657200D02*
X265577200Y-195728628D01*
X265505771Y-195800057D01*
X265434342Y-195728628D01*
X265505771Y-195657200D01*
X265505771Y-195800057D01*
X268148628Y-196585771D02*
X267291485Y-196585771D01*
X267720057Y-196585771D02*
X267720057Y-195085771D01*
X267577200Y-195300057D01*
X267434342Y-195442914D01*
X267291485Y-195514342D01*
X269862914Y-195014342D02*
X268577200Y-196942914D01*
X271148628Y-196585771D02*
X270291485Y-196585771D01*
X270720057Y-196585771D02*
X270720057Y-195085771D01*
X270577200Y-195300057D01*
X270434342Y-195442914D01*
X270291485Y-195514342D01*
D10*
D11*
X177002200Y-187507200D02*
X285002200Y-187507200D01*
D10*
D13*
X178714580Y-188211961D02*
X179857438Y-188211961D01*
X179036009Y-190211961D02*
X179286009Y-188211961D01*
X180274104Y-190211961D02*
X180440771Y-188878628D01*
X180524104Y-188211961D02*
X180416961Y-188307200D01*
X180500295Y-188402438D01*
X180607438Y-188307200D01*
X180524104Y-188211961D01*
X180500295Y-188402438D01*
X181107438Y-188878628D02*
X181869342Y-188878628D01*
X181476485Y-188211961D02*
X181262200Y-189926247D01*
X181333628Y-190116723D01*
X181512200Y-190211961D01*
X181702676Y-190211961D01*
X182655057Y-190211961D02*
X182476485Y-190116723D01*
X182405057Y-189926247D01*
X182619342Y-188211961D01*
X184190771Y-190116723D02*
X183988390Y-190211961D01*
X183607438Y-190211961D01*
X183428866Y-190116723D01*
X183357438Y-189926247D01*
X183452676Y-189164342D01*
X183571723Y-188973866D01*
X183774104Y-188878628D01*
X184155057Y-188878628D01*
X184333628Y-188973866D01*
X184405057Y-189164342D01*
X184381247Y-189354819D01*
X183405057Y-189545295D01*
X185155057Y-190021485D02*
X185238390Y-190116723D01*
X185131247Y-190211961D01*
X185047914Y-190116723D01*
X185155057Y-190021485D01*
X185131247Y-190211961D01*
X185286009Y-188973866D02*
X185369342Y-189069104D01*
X185262200Y-189164342D01*
X185178866Y-189069104D01*
X185286009Y-188973866D01*
X185262200Y-189164342D01*
D10*
D11*
X178934342Y-185600057D02*
X178434342Y-185600057D01*
X178434342Y-186385771D02*
X178434342Y-184885771D01*
X179148628Y-184885771D01*
X179720057Y-186385771D02*
X179720057Y-185385771D01*
X179720057Y-184885771D02*
X179648628Y-184957200D01*
X179720057Y-185028628D01*
X179791485Y-184957200D01*
X179720057Y-184885771D01*
X179720057Y-185028628D01*
X180648628Y-186385771D02*
X180505771Y-186314342D01*
X180434342Y-186171485D01*
X180434342Y-184885771D01*
X181791485Y-186314342D02*
X181648628Y-186385771D01*
X181362914Y-186385771D01*
X181220057Y-186314342D01*
X181148628Y-186171485D01*
X181148628Y-185600057D01*
X181220057Y-185457200D01*
X181362914Y-185385771D01*
X181648628Y-185385771D01*
X181791485Y-185457200D01*
X181862914Y-185600057D01*
X181862914Y-185742914D01*
X181148628Y-185885771D01*
X182505771Y-186242914D02*
X182577200Y-186314342D01*
X182505771Y-186385771D01*
X182434342Y-186314342D01*
X182505771Y-186242914D01*
X182505771Y-186385771D01*
X182505771Y-185457200D02*
X182577200Y-185528628D01*
X182505771Y-185600057D01*
X182434342Y-185528628D01*
X182505771Y-185457200D01*
X182505771Y-185600057D01*
X184362914Y-186385771D02*
X184362914Y-185385771D01*
X184362914Y-185671485D02*
X184434342Y-185528628D01*
X184505771Y-185457200D01*
X184648628Y-185385771D01*
X184791485Y-185385771D01*
X185934342Y-186385771D02*
X185934342Y-185600057D01*
X185862914Y-185457200D01*
X185720057Y-185385771D01*
X185434342Y-185385771D01*
X185291485Y-185457200D01*
X185934342Y-186314342D02*
X185791485Y-186385771D01*
X185434342Y-186385771D01*
X185291485Y-186314342D01*
X185220057Y-186171485D01*
X185220057Y-186028628D01*
X185291485Y-185885771D01*
X185434342Y-185814342D01*
X185791485Y-185814342D01*
X185934342Y-185742914D01*
X186648628Y-186385771D02*
X186648628Y-185385771D01*
X186648628Y-185528628D02*
X186720057Y-185457200D01*
X186862914Y-185385771D01*
X187077200Y-185385771D01*
X187220057Y-185457200D01*
X187291485Y-185600057D01*
X187291485Y-186385771D01*
X187291485Y-185600057D02*
X187362914Y-185457200D01*
X187505771Y-185385771D01*
X187720057Y-185385771D01*
X187862914Y-185457200D01*
X187934342Y-185600057D01*
X187934342Y-186385771D01*
X188291485Y-186528628D02*
X189434342Y-186528628D01*
X189791485Y-185385771D02*
X189791485Y-186885771D01*
X189791485Y-185457200D02*
X189934342Y-185385771D01*
X190220057Y-185385771D01*
X190362914Y-185457200D01*
X190434342Y-185528628D01*
X190505771Y-185671485D01*
X190505771Y-186100057D01*
X190434342Y-186242914D01*
X190362914Y-186314342D01*
X190220057Y-186385771D01*
X189934342Y-186385771D01*
X189791485Y-186314342D01*
X191077200Y-186314342D02*
X191220057Y-186385771D01*
X191505771Y-186385771D01*
X191648628Y-186314342D01*
X191720057Y-186171485D01*
X191720057Y-186100057D01*
X191648628Y-185957200D01*
X191505771Y-185885771D01*
X191291485Y-185885771D01*
X191148628Y-185814342D01*
X191077200Y-185671485D01*
X191077200Y-185600057D01*
X191148628Y-185457200D01*
X191291485Y-185385771D01*
X191505771Y-185385771D01*
X191648628Y-185457200D01*
X193148628Y-186385771D02*
X192291485Y-186385771D01*
X192720057Y-186385771D02*
X192720057Y-184885771D01*
X192577200Y-185100057D01*
X192434342Y-185242914D01*
X192291485Y-185314342D01*
X193434342Y-186528628D02*
X194577200Y-186528628D01*
X194862914Y-185028628D02*
X194934342Y-184957200D01*
X195077200Y-184885771D01*
X195434342Y-184885771D01*
X195577200Y-184957200D01*
X195648628Y-185028628D01*
X195720057Y-185171485D01*
X195720057Y-185314342D01*
X195648628Y-185528628D01*
X194791485Y-186385771D01*
X195720057Y-186385771D01*
X197148628Y-186385771D02*
X196291485Y-186385771D01*
X196720057Y-186385771D02*
X196720057Y-184885771D01*
X196577200Y-185100057D01*
X196434342Y-185242914D01*
X196291485Y-185314342D01*
X197720057Y-185028628D02*
X197791485Y-184957200D01*
X197934342Y-184885771D01*
X198291485Y-184885771D01*
X198434342Y-184957200D01*
X198505771Y-185028628D01*
X198577200Y-185171485D01*
X198577200Y-185314342D01*
X198505771Y-185528628D01*
X197648628Y-186385771D01*
X198577200Y-186385771D01*
X200005771Y-186385771D02*
X199148628Y-186385771D01*
X199577200Y-186385771D02*
X199577200Y-184885771D01*
X199434342Y-185100057D01*
X199291485Y-185242914D01*
X199148628Y-185314342D01*
X200648628Y-186242914D02*
X200720057Y-186314342D01*
X200648628Y-186385771D01*
X200577200Y-186314342D01*
X200648628Y-186242914D01*
X200648628Y-186385771D01*
X201362914Y-186385771D02*
X201362914Y-184885771D01*
X201505771Y-185814342D02*
X201934342Y-186385771D01*
X201934342Y-185385771D02*
X201362914Y-185957200D01*
X202577200Y-186385771D02*
X202577200Y-185385771D01*
X202577200Y-184885771D02*
X202505771Y-184957200D01*
X202577200Y-185028628D01*
X202648628Y-184957200D01*
X202577200Y-184885771D01*
X202577200Y-185028628D01*
X203934342Y-186314342D02*
X203791485Y-186385771D01*
X203505771Y-186385771D01*
X203362914Y-186314342D01*
X203291485Y-186242914D01*
X203220057Y-186100057D01*
X203220057Y-185671485D01*
X203291485Y-185528628D01*
X203362914Y-185457200D01*
X203505771Y-185385771D01*
X203791485Y-185385771D01*
X203934342Y-185457200D01*
X205220057Y-186385771D02*
X205220057Y-185600057D01*
X205148628Y-185457200D01*
X205005771Y-185385771D01*
X204720057Y-185385771D01*
X204577200Y-185457200D01*
X205220057Y-186314342D02*
X205077200Y-186385771D01*
X204720057Y-186385771D01*
X204577200Y-186314342D01*
X204505771Y-186171485D01*
X204505771Y-186028628D01*
X204577200Y-185885771D01*
X204720057Y-185814342D01*
X205077200Y-185814342D01*
X205220057Y-185742914D01*
X206577200Y-186385771D02*
X206577200Y-184885771D01*
X206577200Y-186314342D02*
X206434342Y-186385771D01*
X206148628Y-186385771D01*
X206005771Y-186314342D01*
X205934342Y-186242914D01*
X205862914Y-186100057D01*
X205862914Y-185671485D01*
X205934342Y-185528628D01*
X206005771Y-185457200D01*
X206148628Y-185385771D01*
X206434342Y-185385771D01*
X206577200Y-185457200D01*
X206934342Y-186528628D02*
X208077200Y-186528628D01*
X208434342Y-185385771D02*
X208434342Y-186885771D01*
X208434342Y-185457200D02*
X208577200Y-185385771D01*
X208862914Y-185385771D01*
X209005771Y-185457200D01*
X209077200Y-185528628D01*
X209148628Y-185671485D01*
X209148628Y-186100057D01*
X209077200Y-186242914D01*
X209005771Y-186314342D01*
X208862914Y-186385771D01*
X208577200Y-186385771D01*
X208434342Y-186314342D01*
X210434342Y-186314342D02*
X210291485Y-186385771D01*
X210005771Y-186385771D01*
X209862914Y-186314342D01*
X209791485Y-186242914D01*
X209720057Y-186100057D01*
X209720057Y-185671485D01*
X209791485Y-185528628D01*
X209862914Y-185457200D01*
X210005771Y-185385771D01*
X210291485Y-185385771D01*
X210434342Y-185457200D01*
X211077200Y-186385771D02*
X211077200Y-184885771D01*
X211077200Y-185457200D02*
X211220057Y-185385771D01*
X211505771Y-185385771D01*
X211648628Y-185457200D01*
X211720057Y-185528628D01*
X211791485Y-185671485D01*
X211791485Y-186100057D01*
X211720057Y-186242914D01*
X211648628Y-186314342D01*
X211505771Y-186385771D01*
X211220057Y-186385771D01*
X211077200Y-186314342D01*
D10*
D11*
X177002200Y-181507200D02*
X285002200Y-181507200D01*
D10*
D11*
X178362914Y-183614342D02*
X178577200Y-183685771D01*
X178934342Y-183685771D01*
X179077200Y-183614342D01*
X179148628Y-183542914D01*
X179220057Y-183400057D01*
X179220057Y-183257200D01*
X179148628Y-183114342D01*
X179077200Y-183042914D01*
X178934342Y-182971485D01*
X178648628Y-182900057D01*
X178505771Y-182828628D01*
X178434342Y-182757200D01*
X178362914Y-182614342D01*
X178362914Y-182471485D01*
X178434342Y-182328628D01*
X178505771Y-182257200D01*
X178648628Y-182185771D01*
X179005771Y-182185771D01*
X179220057Y-182257200D01*
X179862914Y-183685771D02*
X179862914Y-182185771D01*
X180505771Y-183685771D02*
X180505771Y-182900057D01*
X180434342Y-182757200D01*
X180291485Y-182685771D01*
X180077200Y-182685771D01*
X179934342Y-182757200D01*
X179862914Y-182828628D01*
X181791485Y-183614342D02*
X181648628Y-183685771D01*
X181362914Y-183685771D01*
X181220057Y-183614342D01*
X181148628Y-183471485D01*
X181148628Y-182900057D01*
X181220057Y-182757200D01*
X181362914Y-182685771D01*
X181648628Y-182685771D01*
X181791485Y-182757200D01*
X181862914Y-182900057D01*
X181862914Y-183042914D01*
X181148628Y-183185771D01*
X183077200Y-183614342D02*
X182934342Y-183685771D01*
X182648628Y-183685771D01*
X182505771Y-183614342D01*
X182434342Y-183471485D01*
X182434342Y-182900057D01*
X182505771Y-182757200D01*
X182648628Y-182685771D01*
X182934342Y-182685771D01*
X183077200Y-182757200D01*
X183148628Y-182900057D01*
X183148628Y-183042914D01*
X182434342Y-183185771D01*
X183577200Y-182685771D02*
X184148628Y-182685771D01*
X183791485Y-182185771D02*
X183791485Y-183471485D01*
X183862914Y-183614342D01*
X184005771Y-183685771D01*
X184148628Y-183685771D01*
X184648628Y-183542914D02*
X184720057Y-183614342D01*
X184648628Y-183685771D01*
X184577200Y-183614342D01*
X184648628Y-183542914D01*
X184648628Y-183685771D01*
X184648628Y-182757200D02*
X184720057Y-182828628D01*
X184648628Y-182900057D01*
X184577200Y-182828628D01*
X184648628Y-182757200D01*
X184648628Y-182900057D01*
D10*
D11*
X197002200Y-191507200D02*
X197002200Y-194507200D01*
D10*
D11*
X261002200Y-191507200D02*
X261002200Y-198007200D01*
D10*
%TO.C,C1*%
X35230000Y-79540000D02*
X35230000Y-77940000D01*
X35230000Y-77940000D02*
X38430000Y-77940000D01*
X38430000Y-77940000D02*
X38430000Y-79540000D01*
X38430000Y-79540000D02*
X35230000Y-79540000D01*
%TO.C,C2*%
X61085000Y-79540000D02*
X57885000Y-79540000D01*
X61085000Y-77940000D02*
X61085000Y-79540000D01*
X57885000Y-77940000D02*
X61085000Y-77940000D01*
X57885000Y-79540000D02*
X57885000Y-77940000D01*
%TD*%
%TO.C,U1*%
D11*
X44506190Y-104977380D02*
X44506190Y-103977380D01*
X44887142Y-103977380D01*
X44982380Y-104025000D01*
X45030000Y-104072619D01*
X45077619Y-104167857D01*
X45077619Y-104310714D01*
X45030000Y-104405952D01*
X44982380Y-104453571D01*
X44887142Y-104501190D01*
X44506190Y-104501190D01*
X45458571Y-104929761D02*
X45601428Y-104977380D01*
X45839523Y-104977380D01*
X45934761Y-104929761D01*
X45982380Y-104882142D01*
X46030000Y-104786904D01*
X46030000Y-104691666D01*
X45982380Y-104596428D01*
X45934761Y-104548809D01*
X45839523Y-104501190D01*
X45649047Y-104453571D01*
X45553809Y-104405952D01*
X45506190Y-104358333D01*
X45458571Y-104263095D01*
X45458571Y-104167857D01*
X45506190Y-104072619D01*
X45553809Y-104025000D01*
X45649047Y-103977380D01*
X45887142Y-103977380D01*
X46030000Y-104025000D01*
X46982380Y-104977380D02*
X46410952Y-104977380D01*
X46696666Y-104977380D02*
X46696666Y-103977380D01*
X46601428Y-104120238D01*
X46506190Y-104215476D01*
X46410952Y-104263095D01*
X47172857Y-105072619D02*
X47934761Y-105072619D01*
X48744285Y-104977380D02*
X48410952Y-104501190D01*
X48172857Y-104977380D02*
X48172857Y-103977380D01*
X48553809Y-103977380D01*
X48649047Y-104025000D01*
X48696666Y-104072619D01*
X48744285Y-104167857D01*
X48744285Y-104310714D01*
X48696666Y-104405952D01*
X48649047Y-104453571D01*
X48553809Y-104501190D01*
X48172857Y-104501190D01*
X49125238Y-104691666D02*
X49601428Y-104691666D01*
X49030000Y-104977380D02*
X49363333Y-103977380D01*
X49696666Y-104977380D01*
X50030000Y-104977380D02*
X50030000Y-103977380D01*
X50363333Y-104691666D01*
X50696666Y-103977380D01*
X50696666Y-104977380D01*
X50934761Y-105072619D02*
X51696666Y-105072619D01*
X51934761Y-104977380D02*
X51934761Y-103977380D01*
X52315714Y-103977380D01*
X52410952Y-104025000D01*
X52458571Y-104072619D01*
X52506190Y-104167857D01*
X52506190Y-104310714D01*
X52458571Y-104405952D01*
X52410952Y-104453571D01*
X52315714Y-104501190D01*
X51934761Y-104501190D01*
X53077619Y-104977380D02*
X52982380Y-104929761D01*
X52934761Y-104882142D01*
X52887142Y-104786904D01*
X52887142Y-104501190D01*
X52934761Y-104405952D01*
X52982380Y-104358333D01*
X53077619Y-104310714D01*
X53220476Y-104310714D01*
X53315714Y-104358333D01*
X53363333Y-104405952D01*
X53410952Y-104501190D01*
X53410952Y-104786904D01*
X53363333Y-104882142D01*
X53315714Y-104929761D01*
X53220476Y-104977380D01*
X53077619Y-104977380D01*
X53839523Y-104977380D02*
X53839523Y-104310714D01*
X53839523Y-104501190D02*
X53887142Y-104405952D01*
X53934761Y-104358333D01*
X54030000Y-104310714D01*
X54125238Y-104310714D01*
X54315714Y-104310714D02*
X54696666Y-104310714D01*
X54458571Y-103977380D02*
X54458571Y-104834523D01*
X54506190Y-104929761D01*
X54601428Y-104977380D01*
X54696666Y-104977380D01*
%TO.C,U2*%
X35377380Y-100059523D02*
X34377380Y-100059523D01*
X35282142Y-99011904D02*
X35329761Y-99059523D01*
X35377380Y-99202380D01*
X35377380Y-99297619D01*
X35329761Y-99440476D01*
X35234523Y-99535714D01*
X35139285Y-99583333D01*
X34948809Y-99630952D01*
X34805952Y-99630952D01*
X34615476Y-99583333D01*
X34520238Y-99535714D01*
X34425000Y-99440476D01*
X34377380Y-99297619D01*
X34377380Y-99202380D01*
X34425000Y-99059523D01*
X34472619Y-99011904D01*
X34710714Y-98154761D02*
X35377380Y-98154761D01*
X34329761Y-98392857D02*
X35044047Y-98630952D01*
X35044047Y-98011904D01*
X35377380Y-97107142D02*
X35377380Y-97678571D01*
X35377380Y-97392857D02*
X34377380Y-97392857D01*
X34520238Y-97488095D01*
X34615476Y-97583333D01*
X34663095Y-97678571D01*
X35282142Y-96107142D02*
X35329761Y-96154761D01*
X35377380Y-96297619D01*
X35377380Y-96392857D01*
X35329761Y-96535714D01*
X35234523Y-96630952D01*
X35139285Y-96678571D01*
X34948809Y-96726190D01*
X34805952Y-96726190D01*
X34615476Y-96678571D01*
X34520238Y-96630952D01*
X34425000Y-96535714D01*
X34377380Y-96392857D01*
X34377380Y-96297619D01*
X34425000Y-96154761D01*
X34472619Y-96107142D01*
X35377380Y-95154761D02*
X35377380Y-95726190D01*
X35377380Y-95440476D02*
X34377380Y-95440476D01*
X34520238Y-95535714D01*
X34615476Y-95630952D01*
X34663095Y-95726190D01*
X34377380Y-94297619D02*
X34377380Y-94488095D01*
X34425000Y-94583333D01*
X34472619Y-94630952D01*
X34615476Y-94726190D01*
X34805952Y-94773809D01*
X35186904Y-94773809D01*
X35282142Y-94726190D01*
X35329761Y-94678571D01*
X35377380Y-94583333D01*
X35377380Y-94392857D01*
X35329761Y-94297619D01*
X35282142Y-94250000D01*
X35186904Y-94202380D01*
X34948809Y-94202380D01*
X34853571Y-94250000D01*
X34805952Y-94297619D01*
X34758333Y-94392857D01*
X34758333Y-94583333D01*
X34805952Y-94678571D01*
X34853571Y-94726190D01*
X34948809Y-94773809D01*
X35377380Y-93250000D02*
X35377380Y-93821428D01*
X35377380Y-93535714D02*
X34377380Y-93535714D01*
X34520238Y-93630952D01*
X34615476Y-93726190D01*
X34663095Y-93821428D01*
X34377380Y-92630952D02*
X34377380Y-92535714D01*
X34425000Y-92440476D01*
X34472619Y-92392857D01*
X34567857Y-92345238D01*
X34758333Y-92297619D01*
X34996428Y-92297619D01*
X35186904Y-92345238D01*
X35282142Y-92392857D01*
X35329761Y-92440476D01*
X35377380Y-92535714D01*
X35377380Y-92630952D01*
X35329761Y-92726190D01*
X35282142Y-92773809D01*
X35186904Y-92821428D01*
X34996428Y-92869047D01*
X34758333Y-92869047D01*
X34567857Y-92821428D01*
X34472619Y-92773809D01*
X34425000Y-92726190D01*
X34377380Y-92630952D01*
X34377380Y-91678571D02*
X34377380Y-91583333D01*
X34425000Y-91488095D01*
X34472619Y-91440476D01*
X34567857Y-91392857D01*
X34758333Y-91345238D01*
X34996428Y-91345238D01*
X35186904Y-91392857D01*
X35282142Y-91440476D01*
X35329761Y-91488095D01*
X35377380Y-91583333D01*
X35377380Y-91678571D01*
X35329761Y-91773809D01*
X35282142Y-91821428D01*
X35186904Y-91869047D01*
X34996428Y-91916666D01*
X34758333Y-91916666D01*
X34567857Y-91869047D01*
X34472619Y-91821428D01*
X34425000Y-91773809D01*
X34377380Y-91678571D01*
X35329761Y-90964285D02*
X35377380Y-90821428D01*
X35377380Y-90583333D01*
X35329761Y-90488095D01*
X35282142Y-90440476D01*
X35186904Y-90392857D01*
X35091666Y-90392857D01*
X34996428Y-90440476D01*
X34948809Y-90488095D01*
X34901190Y-90583333D01*
X34853571Y-90773809D01*
X34805952Y-90869047D01*
X34758333Y-90916666D01*
X34663095Y-90964285D01*
X34567857Y-90964285D01*
X34472619Y-90916666D01*
X34425000Y-90869047D01*
X34377380Y-90773809D01*
X34377380Y-90535714D01*
X34425000Y-90392857D01*
%TO.C,C1*%
X35639523Y-81042380D02*
X35068095Y-81042380D01*
X35353809Y-81042380D02*
X35353809Y-80042380D01*
X35258571Y-80185238D01*
X35163333Y-80280476D01*
X35068095Y-80328095D01*
X36258571Y-80042380D02*
X36353809Y-80042380D01*
X36449047Y-80090000D01*
X36496666Y-80137619D01*
X36544285Y-80232857D01*
X36591904Y-80423333D01*
X36591904Y-80661428D01*
X36544285Y-80851904D01*
X36496666Y-80947142D01*
X36449047Y-80994761D01*
X36353809Y-81042380D01*
X36258571Y-81042380D01*
X36163333Y-80994761D01*
X36115714Y-80947142D01*
X36068095Y-80851904D01*
X36020476Y-80661428D01*
X36020476Y-80423333D01*
X36068095Y-80232857D01*
X36115714Y-80137619D01*
X36163333Y-80090000D01*
X36258571Y-80042380D01*
X37210952Y-80042380D02*
X37306190Y-80042380D01*
X37401428Y-80090000D01*
X37449047Y-80137619D01*
X37496666Y-80232857D01*
X37544285Y-80423333D01*
X37544285Y-80661428D01*
X37496666Y-80851904D01*
X37449047Y-80947142D01*
X37401428Y-80994761D01*
X37306190Y-81042380D01*
X37210952Y-81042380D01*
X37115714Y-80994761D01*
X37068095Y-80947142D01*
X37020476Y-80851904D01*
X36972857Y-80661428D01*
X36972857Y-80423333D01*
X37020476Y-80232857D01*
X37068095Y-80137619D01*
X37115714Y-80090000D01*
X37210952Y-80042380D01*
X37972857Y-81042380D02*
X37972857Y-80042380D01*
X38544285Y-81042380D01*
X38544285Y-80042380D01*
D14*
X36696666Y-79025714D02*
X36658571Y-79063809D01*
X36544285Y-79101904D01*
X36468095Y-79101904D01*
X36353809Y-79063809D01*
X36277619Y-78987619D01*
X36239523Y-78911428D01*
X36201428Y-78759047D01*
X36201428Y-78644761D01*
X36239523Y-78492380D01*
X36277619Y-78416190D01*
X36353809Y-78340000D01*
X36468095Y-78301904D01*
X36544285Y-78301904D01*
X36658571Y-78340000D01*
X36696666Y-78378095D01*
X37458571Y-79101904D02*
X37001428Y-79101904D01*
X37230000Y-79101904D02*
X37230000Y-78301904D01*
X37153809Y-78416190D01*
X37077619Y-78492380D01*
X37001428Y-78530476D01*
%TO.C,C2*%
D11*
X58294523Y-81042380D02*
X57723095Y-81042380D01*
X58008809Y-81042380D02*
X58008809Y-80042380D01*
X57913571Y-80185238D01*
X57818333Y-80280476D01*
X57723095Y-80328095D01*
X58913571Y-80042380D02*
X59008809Y-80042380D01*
X59104047Y-80090000D01*
X59151666Y-80137619D01*
X59199285Y-80232857D01*
X59246904Y-80423333D01*
X59246904Y-80661428D01*
X59199285Y-80851904D01*
X59151666Y-80947142D01*
X59104047Y-80994761D01*
X59008809Y-81042380D01*
X58913571Y-81042380D01*
X58818333Y-80994761D01*
X58770714Y-80947142D01*
X58723095Y-80851904D01*
X58675476Y-80661428D01*
X58675476Y-80423333D01*
X58723095Y-80232857D01*
X58770714Y-80137619D01*
X58818333Y-80090000D01*
X58913571Y-80042380D01*
X59865952Y-80042380D02*
X59961190Y-80042380D01*
X60056428Y-80090000D01*
X60104047Y-80137619D01*
X60151666Y-80232857D01*
X60199285Y-80423333D01*
X60199285Y-80661428D01*
X60151666Y-80851904D01*
X60104047Y-80947142D01*
X60056428Y-80994761D01*
X59961190Y-81042380D01*
X59865952Y-81042380D01*
X59770714Y-80994761D01*
X59723095Y-80947142D01*
X59675476Y-80851904D01*
X59627857Y-80661428D01*
X59627857Y-80423333D01*
X59675476Y-80232857D01*
X59723095Y-80137619D01*
X59770714Y-80090000D01*
X59865952Y-80042380D01*
X60627857Y-81042380D02*
X60627857Y-80042380D01*
X61199285Y-81042380D01*
X61199285Y-80042380D01*
D14*
X59351666Y-79025714D02*
X59313571Y-79063809D01*
X59199285Y-79101904D01*
X59123095Y-79101904D01*
X59008809Y-79063809D01*
X58932619Y-78987619D01*
X58894523Y-78911428D01*
X58856428Y-78759047D01*
X58856428Y-78644761D01*
X58894523Y-78492380D01*
X58932619Y-78416190D01*
X59008809Y-78340000D01*
X59123095Y-78301904D01*
X59199285Y-78301904D01*
X59313571Y-78340000D01*
X59351666Y-78378095D01*
X59656428Y-78378095D02*
X59694523Y-78340000D01*
X59770714Y-78301904D01*
X59961190Y-78301904D01*
X60037380Y-78340000D01*
X60075476Y-78378095D01*
X60113571Y-78454285D01*
X60113571Y-78530476D01*
X60075476Y-78644761D01*
X59618333Y-79101904D01*
X60113571Y-79101904D01*
%TO.C,SecBank*%
D11*
X77234761Y-88621190D02*
X77282380Y-88478333D01*
X77282380Y-88240238D01*
X77234761Y-88145000D01*
X77187142Y-88097380D01*
X77091904Y-88049761D01*
X76996666Y-88049761D01*
X76901428Y-88097380D01*
X76853809Y-88145000D01*
X76806190Y-88240238D01*
X76758571Y-88430714D01*
X76710952Y-88525952D01*
X76663333Y-88573571D01*
X76568095Y-88621190D01*
X76472857Y-88621190D01*
X76377619Y-88573571D01*
X76330000Y-88525952D01*
X76282380Y-88430714D01*
X76282380Y-88192619D01*
X76330000Y-88049761D01*
X77282380Y-87478333D02*
X77234761Y-87573571D01*
X77187142Y-87621190D01*
X77091904Y-87668809D01*
X76806190Y-87668809D01*
X76710952Y-87621190D01*
X76663333Y-87573571D01*
X76615714Y-87478333D01*
X76615714Y-87335476D01*
X76663333Y-87240238D01*
X76710952Y-87192619D01*
X76806190Y-87145000D01*
X77091904Y-87145000D01*
X77187142Y-87192619D01*
X77234761Y-87240238D01*
X77282380Y-87335476D01*
X77282380Y-87478333D01*
X77282380Y-86573571D02*
X77234761Y-86668809D01*
X77139523Y-86716428D01*
X76282380Y-86716428D01*
X77282380Y-85764047D02*
X76282380Y-85764047D01*
X77234761Y-85764047D02*
X77282380Y-85859285D01*
X77282380Y-86049761D01*
X77234761Y-86145000D01*
X77187142Y-86192619D01*
X77091904Y-86240238D01*
X76806190Y-86240238D01*
X76710952Y-86192619D01*
X76663333Y-86145000D01*
X76615714Y-86049761D01*
X76615714Y-85859285D01*
X76663333Y-85764047D01*
X77234761Y-84906904D02*
X77282380Y-85002142D01*
X77282380Y-85192619D01*
X77234761Y-85287857D01*
X77139523Y-85335476D01*
X76758571Y-85335476D01*
X76663333Y-85287857D01*
X76615714Y-85192619D01*
X76615714Y-85002142D01*
X76663333Y-84906904D01*
X76758571Y-84859285D01*
X76853809Y-84859285D01*
X76949047Y-85335476D01*
X77282380Y-84430714D02*
X76615714Y-84430714D01*
X76806190Y-84430714D02*
X76710952Y-84383095D01*
X76663333Y-84335476D01*
X76615714Y-84240238D01*
X76615714Y-84145000D01*
X76282380Y-83525952D02*
X76996666Y-83525952D01*
X77139523Y-83573571D01*
X77234761Y-83668809D01*
X77282380Y-83811666D01*
X77282380Y-83906904D01*
X76615714Y-82621190D02*
X77282380Y-82621190D01*
X76615714Y-83049761D02*
X77139523Y-83049761D01*
X77234761Y-83002142D01*
X77282380Y-82906904D01*
X77282380Y-82764047D01*
X77234761Y-82668809D01*
X77187142Y-82621190D01*
X77282380Y-82145000D02*
X76615714Y-82145000D01*
X76710952Y-82145000D02*
X76663333Y-82097380D01*
X76615714Y-82002142D01*
X76615714Y-81859285D01*
X76663333Y-81764047D01*
X76758571Y-81716428D01*
X77282380Y-81716428D01*
X76758571Y-81716428D02*
X76663333Y-81668809D01*
X76615714Y-81573571D01*
X76615714Y-81430714D01*
X76663333Y-81335476D01*
X76758571Y-81287857D01*
X77282380Y-81287857D01*
X76615714Y-80811666D02*
X77615714Y-80811666D01*
X76663333Y-80811666D02*
X76615714Y-80716428D01*
X76615714Y-80525952D01*
X76663333Y-80430714D01*
X76710952Y-80383095D01*
X76806190Y-80335476D01*
X77091904Y-80335476D01*
X77187142Y-80383095D01*
X77234761Y-80430714D01*
X77282380Y-80525952D01*
X77282380Y-80716428D01*
X77234761Y-80811666D01*
X77234761Y-79525952D02*
X77282380Y-79621190D01*
X77282380Y-79811666D01*
X77234761Y-79906904D01*
X77139523Y-79954523D01*
X76758571Y-79954523D01*
X76663333Y-79906904D01*
X76615714Y-79811666D01*
X76615714Y-79621190D01*
X76663333Y-79525952D01*
X76758571Y-79478333D01*
X76853809Y-79478333D01*
X76949047Y-79954523D01*
X77282380Y-79049761D02*
X76615714Y-79049761D01*
X76806190Y-79049761D02*
X76710952Y-79002142D01*
X76663333Y-78954523D01*
X76615714Y-78859285D01*
X76615714Y-78764047D01*
X77377619Y-78668809D02*
X77377619Y-77906904D01*
X76282380Y-77764047D02*
X76282380Y-77145000D01*
X76663333Y-77478333D01*
X76663333Y-77335476D01*
X76710952Y-77240238D01*
X76758571Y-77192619D01*
X76853809Y-77145000D01*
X77091904Y-77145000D01*
X77187142Y-77192619D01*
X77234761Y-77240238D01*
X77282380Y-77335476D01*
X77282380Y-77621190D01*
X77234761Y-77716428D01*
X77187142Y-77764047D01*
X77377619Y-76954523D02*
X77377619Y-76192619D01*
X76282380Y-75764047D02*
X76282380Y-75573571D01*
X76330000Y-75478333D01*
X76425238Y-75383095D01*
X76615714Y-75335476D01*
X76949047Y-75335476D01*
X77139523Y-75383095D01*
X77234761Y-75478333D01*
X77282380Y-75573571D01*
X77282380Y-75764047D01*
X77234761Y-75859285D01*
X77139523Y-75954523D01*
X76949047Y-76002142D01*
X76615714Y-76002142D01*
X76425238Y-75954523D01*
X76330000Y-75859285D01*
X76282380Y-75764047D01*
X76615714Y-74906904D02*
X77615714Y-74906904D01*
X76663333Y-74906904D02*
X76615714Y-74811666D01*
X76615714Y-74621190D01*
X76663333Y-74525952D01*
X76710952Y-74478333D01*
X76806190Y-74430714D01*
X77091904Y-74430714D01*
X77187142Y-74478333D01*
X77234761Y-74525952D01*
X77282380Y-74621190D01*
X77282380Y-74811666D01*
X77234761Y-74906904D01*
X77234761Y-73621190D02*
X77282380Y-73716428D01*
X77282380Y-73906904D01*
X77234761Y-74002142D01*
X77139523Y-74049761D01*
X76758571Y-74049761D01*
X76663333Y-74002142D01*
X76615714Y-73906904D01*
X76615714Y-73716428D01*
X76663333Y-73621190D01*
X76758571Y-73573571D01*
X76853809Y-73573571D01*
X76949047Y-74049761D01*
X76615714Y-73145000D02*
X77282380Y-73145000D01*
X76710952Y-73145000D02*
X76663333Y-73097380D01*
X76615714Y-73002142D01*
X76615714Y-72859285D01*
X76663333Y-72764047D01*
X76758571Y-72716428D01*
X77282380Y-72716428D01*
%TO.C,1MB_CD*%
X72789761Y-88621190D02*
X72837380Y-88478333D01*
X72837380Y-88240238D01*
X72789761Y-88145000D01*
X72742142Y-88097380D01*
X72646904Y-88049761D01*
X72551666Y-88049761D01*
X72456428Y-88097380D01*
X72408809Y-88145000D01*
X72361190Y-88240238D01*
X72313571Y-88430714D01*
X72265952Y-88525952D01*
X72218333Y-88573571D01*
X72123095Y-88621190D01*
X72027857Y-88621190D01*
X71932619Y-88573571D01*
X71885000Y-88525952D01*
X71837380Y-88430714D01*
X71837380Y-88192619D01*
X71885000Y-88049761D01*
X72837380Y-87478333D02*
X72789761Y-87573571D01*
X72742142Y-87621190D01*
X72646904Y-87668809D01*
X72361190Y-87668809D01*
X72265952Y-87621190D01*
X72218333Y-87573571D01*
X72170714Y-87478333D01*
X72170714Y-87335476D01*
X72218333Y-87240238D01*
X72265952Y-87192619D01*
X72361190Y-87145000D01*
X72646904Y-87145000D01*
X72742142Y-87192619D01*
X72789761Y-87240238D01*
X72837380Y-87335476D01*
X72837380Y-87478333D01*
X72837380Y-86573571D02*
X72789761Y-86668809D01*
X72694523Y-86716428D01*
X71837380Y-86716428D01*
X72837380Y-85764047D02*
X71837380Y-85764047D01*
X72789761Y-85764047D02*
X72837380Y-85859285D01*
X72837380Y-86049761D01*
X72789761Y-86145000D01*
X72742142Y-86192619D01*
X72646904Y-86240238D01*
X72361190Y-86240238D01*
X72265952Y-86192619D01*
X72218333Y-86145000D01*
X72170714Y-86049761D01*
X72170714Y-85859285D01*
X72218333Y-85764047D01*
X72789761Y-84906904D02*
X72837380Y-85002142D01*
X72837380Y-85192619D01*
X72789761Y-85287857D01*
X72694523Y-85335476D01*
X72313571Y-85335476D01*
X72218333Y-85287857D01*
X72170714Y-85192619D01*
X72170714Y-85002142D01*
X72218333Y-84906904D01*
X72313571Y-84859285D01*
X72408809Y-84859285D01*
X72504047Y-85335476D01*
X72837380Y-84430714D02*
X72170714Y-84430714D01*
X72361190Y-84430714D02*
X72265952Y-84383095D01*
X72218333Y-84335476D01*
X72170714Y-84240238D01*
X72170714Y-84145000D01*
X71837380Y-83525952D02*
X72551666Y-83525952D01*
X72694523Y-83573571D01*
X72789761Y-83668809D01*
X72837380Y-83811666D01*
X72837380Y-83906904D01*
X72170714Y-82621190D02*
X72837380Y-82621190D01*
X72170714Y-83049761D02*
X72694523Y-83049761D01*
X72789761Y-83002142D01*
X72837380Y-82906904D01*
X72837380Y-82764047D01*
X72789761Y-82668809D01*
X72742142Y-82621190D01*
X72837380Y-82145000D02*
X72170714Y-82145000D01*
X72265952Y-82145000D02*
X72218333Y-82097380D01*
X72170714Y-82002142D01*
X72170714Y-81859285D01*
X72218333Y-81764047D01*
X72313571Y-81716428D01*
X72837380Y-81716428D01*
X72313571Y-81716428D02*
X72218333Y-81668809D01*
X72170714Y-81573571D01*
X72170714Y-81430714D01*
X72218333Y-81335476D01*
X72313571Y-81287857D01*
X72837380Y-81287857D01*
X72170714Y-80811666D02*
X73170714Y-80811666D01*
X72218333Y-80811666D02*
X72170714Y-80716428D01*
X72170714Y-80525952D01*
X72218333Y-80430714D01*
X72265952Y-80383095D01*
X72361190Y-80335476D01*
X72646904Y-80335476D01*
X72742142Y-80383095D01*
X72789761Y-80430714D01*
X72837380Y-80525952D01*
X72837380Y-80716428D01*
X72789761Y-80811666D01*
X72789761Y-79525952D02*
X72837380Y-79621190D01*
X72837380Y-79811666D01*
X72789761Y-79906904D01*
X72694523Y-79954523D01*
X72313571Y-79954523D01*
X72218333Y-79906904D01*
X72170714Y-79811666D01*
X72170714Y-79621190D01*
X72218333Y-79525952D01*
X72313571Y-79478333D01*
X72408809Y-79478333D01*
X72504047Y-79954523D01*
X72837380Y-79049761D02*
X72170714Y-79049761D01*
X72361190Y-79049761D02*
X72265952Y-79002142D01*
X72218333Y-78954523D01*
X72170714Y-78859285D01*
X72170714Y-78764047D01*
X72932619Y-78668809D02*
X72932619Y-77906904D01*
X71837380Y-77764047D02*
X71837380Y-77145000D01*
X72218333Y-77478333D01*
X72218333Y-77335476D01*
X72265952Y-77240238D01*
X72313571Y-77192619D01*
X72408809Y-77145000D01*
X72646904Y-77145000D01*
X72742142Y-77192619D01*
X72789761Y-77240238D01*
X72837380Y-77335476D01*
X72837380Y-77621190D01*
X72789761Y-77716428D01*
X72742142Y-77764047D01*
X72932619Y-76954523D02*
X72932619Y-76192619D01*
X71837380Y-75764047D02*
X71837380Y-75573571D01*
X71885000Y-75478333D01*
X71980238Y-75383095D01*
X72170714Y-75335476D01*
X72504047Y-75335476D01*
X72694523Y-75383095D01*
X72789761Y-75478333D01*
X72837380Y-75573571D01*
X72837380Y-75764047D01*
X72789761Y-75859285D01*
X72694523Y-75954523D01*
X72504047Y-76002142D01*
X72170714Y-76002142D01*
X71980238Y-75954523D01*
X71885000Y-75859285D01*
X71837380Y-75764047D01*
X72170714Y-74906904D02*
X73170714Y-74906904D01*
X72218333Y-74906904D02*
X72170714Y-74811666D01*
X72170714Y-74621190D01*
X72218333Y-74525952D01*
X72265952Y-74478333D01*
X72361190Y-74430714D01*
X72646904Y-74430714D01*
X72742142Y-74478333D01*
X72789761Y-74525952D01*
X72837380Y-74621190D01*
X72837380Y-74811666D01*
X72789761Y-74906904D01*
X72789761Y-73621190D02*
X72837380Y-73716428D01*
X72837380Y-73906904D01*
X72789761Y-74002142D01*
X72694523Y-74049761D01*
X72313571Y-74049761D01*
X72218333Y-74002142D01*
X72170714Y-73906904D01*
X72170714Y-73716428D01*
X72218333Y-73621190D01*
X72313571Y-73573571D01*
X72408809Y-73573571D01*
X72504047Y-74049761D01*
X72170714Y-73145000D02*
X72837380Y-73145000D01*
X72265952Y-73145000D02*
X72218333Y-73097380D01*
X72170714Y-73002142D01*
X72170714Y-72859285D01*
X72218333Y-72764047D01*
X72313571Y-72716428D01*
X72837380Y-72716428D01*
%TO.C,U3*%
X57602380Y-100059523D02*
X56602380Y-100059523D01*
X57507142Y-99011904D02*
X57554761Y-99059523D01*
X57602380Y-99202380D01*
X57602380Y-99297619D01*
X57554761Y-99440476D01*
X57459523Y-99535714D01*
X57364285Y-99583333D01*
X57173809Y-99630952D01*
X57030952Y-99630952D01*
X56840476Y-99583333D01*
X56745238Y-99535714D01*
X56650000Y-99440476D01*
X56602380Y-99297619D01*
X56602380Y-99202380D01*
X56650000Y-99059523D01*
X56697619Y-99011904D01*
X56935714Y-98154761D02*
X57602380Y-98154761D01*
X56554761Y-98392857D02*
X57269047Y-98630952D01*
X57269047Y-98011904D01*
X57602380Y-97107142D02*
X57602380Y-97678571D01*
X57602380Y-97392857D02*
X56602380Y-97392857D01*
X56745238Y-97488095D01*
X56840476Y-97583333D01*
X56888095Y-97678571D01*
X57507142Y-96107142D02*
X57554761Y-96154761D01*
X57602380Y-96297619D01*
X57602380Y-96392857D01*
X57554761Y-96535714D01*
X57459523Y-96630952D01*
X57364285Y-96678571D01*
X57173809Y-96726190D01*
X57030952Y-96726190D01*
X56840476Y-96678571D01*
X56745238Y-96630952D01*
X56650000Y-96535714D01*
X56602380Y-96392857D01*
X56602380Y-96297619D01*
X56650000Y-96154761D01*
X56697619Y-96107142D01*
X57602380Y-95154761D02*
X57602380Y-95726190D01*
X57602380Y-95440476D02*
X56602380Y-95440476D01*
X56745238Y-95535714D01*
X56840476Y-95630952D01*
X56888095Y-95726190D01*
X56602380Y-94297619D02*
X56602380Y-94488095D01*
X56650000Y-94583333D01*
X56697619Y-94630952D01*
X56840476Y-94726190D01*
X57030952Y-94773809D01*
X57411904Y-94773809D01*
X57507142Y-94726190D01*
X57554761Y-94678571D01*
X57602380Y-94583333D01*
X57602380Y-94392857D01*
X57554761Y-94297619D01*
X57507142Y-94250000D01*
X57411904Y-94202380D01*
X57173809Y-94202380D01*
X57078571Y-94250000D01*
X57030952Y-94297619D01*
X56983333Y-94392857D01*
X56983333Y-94583333D01*
X57030952Y-94678571D01*
X57078571Y-94726190D01*
X57173809Y-94773809D01*
X57602380Y-93250000D02*
X57602380Y-93821428D01*
X57602380Y-93535714D02*
X56602380Y-93535714D01*
X56745238Y-93630952D01*
X56840476Y-93726190D01*
X56888095Y-93821428D01*
X56602380Y-92630952D02*
X56602380Y-92535714D01*
X56650000Y-92440476D01*
X56697619Y-92392857D01*
X56792857Y-92345238D01*
X56983333Y-92297619D01*
X57221428Y-92297619D01*
X57411904Y-92345238D01*
X57507142Y-92392857D01*
X57554761Y-92440476D01*
X57602380Y-92535714D01*
X57602380Y-92630952D01*
X57554761Y-92726190D01*
X57507142Y-92773809D01*
X57411904Y-92821428D01*
X57221428Y-92869047D01*
X56983333Y-92869047D01*
X56792857Y-92821428D01*
X56697619Y-92773809D01*
X56650000Y-92726190D01*
X56602380Y-92630952D01*
X56602380Y-91678571D02*
X56602380Y-91583333D01*
X56650000Y-91488095D01*
X56697619Y-91440476D01*
X56792857Y-91392857D01*
X56983333Y-91345238D01*
X57221428Y-91345238D01*
X57411904Y-91392857D01*
X57507142Y-91440476D01*
X57554761Y-91488095D01*
X57602380Y-91583333D01*
X57602380Y-91678571D01*
X57554761Y-91773809D01*
X57507142Y-91821428D01*
X57411904Y-91869047D01*
X57221428Y-91916666D01*
X56983333Y-91916666D01*
X56792857Y-91869047D01*
X56697619Y-91821428D01*
X56650000Y-91773809D01*
X56602380Y-91678571D01*
X57554761Y-90964285D02*
X57602380Y-90821428D01*
X57602380Y-90583333D01*
X57554761Y-90488095D01*
X57507142Y-90440476D01*
X57411904Y-90392857D01*
X57316666Y-90392857D01*
X57221428Y-90440476D01*
X57173809Y-90488095D01*
X57126190Y-90583333D01*
X57078571Y-90773809D01*
X57030952Y-90869047D01*
X56983333Y-90916666D01*
X56888095Y-90964285D01*
X56792857Y-90964285D01*
X56697619Y-90916666D01*
X56650000Y-90869047D01*
X56602380Y-90773809D01*
X56602380Y-90535714D01*
X56650000Y-90392857D01*
%TD*%
M02*
