%TF.GenerationSoftware,KiCad,Pcbnew,5.99.0+really5.1.10+dfsg1-1*%
%TF.CreationDate,2022-01-09T16:24:14+01:00*%
%TF.ProjectId,ram_ps1_2121,72616d5f-7073-4315-9f32-3132312e6b69,rev?*%
%TF.SameCoordinates,Original*%
%TF.FileFunction,Legend,Top*%
%TF.FilePolarity,Positive*%
%FSLAX46Y46*%
G04 Gerber Fmt 4.6, Leading zero omitted, Abs format (unit mm)*
G04 Created by KiCad (PCBNEW 5.99.0+really5.1.10+dfsg1-1) date 2022-01-09 16:24:14*
%MOMM*%
%LPD*%
G01*
G04 APERTURE LIST*
%ADD10C,0.100000*%
%ADD11C,0.150000*%
%ADD12C,0.300000*%
%ADD13C,0.400000*%
%ADD14C,0.120000*%
G04 APERTURE END LIST*
D10*
D11*
X177002200Y-166007200D02*
X177002200Y-198007200D01*
X285002200Y-198007200D01*
X285002200Y-166007200D01*
X177002200Y-166007200D01*
D10*
D11*
X10000000Y-10000000D02*
X10000000Y-200007200D01*
X287002200Y-200007200D01*
X287002200Y-10000000D01*
X10000000Y-10000000D01*
D10*
D11*
X12000000Y-12000000D02*
X12000000Y-198007200D01*
X285002200Y-198007200D01*
X285002200Y-12000000D01*
X12000000Y-12000000D01*
D10*
D11*
X60000000Y-12000000D02*
X60000000Y-10000000D01*
D10*
D11*
X110000000Y-12000000D02*
X110000000Y-10000000D01*
D10*
D11*
X160000000Y-12000000D02*
X160000000Y-10000000D01*
D10*
D11*
X210000000Y-12000000D02*
X210000000Y-10000000D01*
D10*
D11*
X260000000Y-12000000D02*
X260000000Y-10000000D01*
D10*
D11*
X36065476Y-11588095D02*
X35322619Y-11588095D01*
X35694047Y-11588095D02*
X35694047Y-10288095D01*
X35570238Y-10473809D01*
X35446428Y-10597619D01*
X35322619Y-10659523D01*
D10*
D11*
X85322619Y-10411904D02*
X85384523Y-10350000D01*
X85508333Y-10288095D01*
X85817857Y-10288095D01*
X85941666Y-10350000D01*
X86003571Y-10411904D01*
X86065476Y-10535714D01*
X86065476Y-10659523D01*
X86003571Y-10845238D01*
X85260714Y-11588095D01*
X86065476Y-11588095D01*
D10*
D11*
X135260714Y-10288095D02*
X136065476Y-10288095D01*
X135632142Y-10783333D01*
X135817857Y-10783333D01*
X135941666Y-10845238D01*
X136003571Y-10907142D01*
X136065476Y-11030952D01*
X136065476Y-11340476D01*
X136003571Y-11464285D01*
X135941666Y-11526190D01*
X135817857Y-11588095D01*
X135446428Y-11588095D01*
X135322619Y-11526190D01*
X135260714Y-11464285D01*
D10*
D11*
X185941666Y-10721428D02*
X185941666Y-11588095D01*
X185632142Y-10226190D02*
X185322619Y-11154761D01*
X186127380Y-11154761D01*
D10*
D11*
X236003571Y-10288095D02*
X235384523Y-10288095D01*
X235322619Y-10907142D01*
X235384523Y-10845238D01*
X235508333Y-10783333D01*
X235817857Y-10783333D01*
X235941666Y-10845238D01*
X236003571Y-10907142D01*
X236065476Y-11030952D01*
X236065476Y-11340476D01*
X236003571Y-11464285D01*
X235941666Y-11526190D01*
X235817857Y-11588095D01*
X235508333Y-11588095D01*
X235384523Y-11526190D01*
X235322619Y-11464285D01*
D10*
D11*
X285941666Y-10288095D02*
X285694047Y-10288095D01*
X285570238Y-10350000D01*
X285508333Y-10411904D01*
X285384523Y-10597619D01*
X285322619Y-10845238D01*
X285322619Y-11340476D01*
X285384523Y-11464285D01*
X285446428Y-11526190D01*
X285570238Y-11588095D01*
X285817857Y-11588095D01*
X285941666Y-11526190D01*
X286003571Y-11464285D01*
X286065476Y-11340476D01*
X286065476Y-11030952D01*
X286003571Y-10907142D01*
X285941666Y-10845238D01*
X285817857Y-10783333D01*
X285570238Y-10783333D01*
X285446428Y-10845238D01*
X285384523Y-10907142D01*
X285322619Y-11030952D01*
D10*
D11*
X60000000Y-198007200D02*
X60000000Y-200007200D01*
D10*
D11*
X110000000Y-198007200D02*
X110000000Y-200007200D01*
D10*
D11*
X160000000Y-198007200D02*
X160000000Y-200007200D01*
D10*
D11*
X210000000Y-198007200D02*
X210000000Y-200007200D01*
D10*
D11*
X260000000Y-198007200D02*
X260000000Y-200007200D01*
D10*
D11*
X36065476Y-199595295D02*
X35322619Y-199595295D01*
X35694047Y-199595295D02*
X35694047Y-198295295D01*
X35570238Y-198481009D01*
X35446428Y-198604819D01*
X35322619Y-198666723D01*
D10*
D11*
X85322619Y-198419104D02*
X85384523Y-198357200D01*
X85508333Y-198295295D01*
X85817857Y-198295295D01*
X85941666Y-198357200D01*
X86003571Y-198419104D01*
X86065476Y-198542914D01*
X86065476Y-198666723D01*
X86003571Y-198852438D01*
X85260714Y-199595295D01*
X86065476Y-199595295D01*
D10*
D11*
X135260714Y-198295295D02*
X136065476Y-198295295D01*
X135632142Y-198790533D01*
X135817857Y-198790533D01*
X135941666Y-198852438D01*
X136003571Y-198914342D01*
X136065476Y-199038152D01*
X136065476Y-199347676D01*
X136003571Y-199471485D01*
X135941666Y-199533390D01*
X135817857Y-199595295D01*
X135446428Y-199595295D01*
X135322619Y-199533390D01*
X135260714Y-199471485D01*
D10*
D11*
X185941666Y-198728628D02*
X185941666Y-199595295D01*
X185632142Y-198233390D02*
X185322619Y-199161961D01*
X186127380Y-199161961D01*
D10*
D11*
X236003571Y-198295295D02*
X235384523Y-198295295D01*
X235322619Y-198914342D01*
X235384523Y-198852438D01*
X235508333Y-198790533D01*
X235817857Y-198790533D01*
X235941666Y-198852438D01*
X236003571Y-198914342D01*
X236065476Y-199038152D01*
X236065476Y-199347676D01*
X236003571Y-199471485D01*
X235941666Y-199533390D01*
X235817857Y-199595295D01*
X235508333Y-199595295D01*
X235384523Y-199533390D01*
X235322619Y-199471485D01*
D10*
D11*
X285941666Y-198295295D02*
X285694047Y-198295295D01*
X285570238Y-198357200D01*
X285508333Y-198419104D01*
X285384523Y-198604819D01*
X285322619Y-198852438D01*
X285322619Y-199347676D01*
X285384523Y-199471485D01*
X285446428Y-199533390D01*
X285570238Y-199595295D01*
X285817857Y-199595295D01*
X285941666Y-199533390D01*
X286003571Y-199471485D01*
X286065476Y-199347676D01*
X286065476Y-199038152D01*
X286003571Y-198914342D01*
X285941666Y-198852438D01*
X285817857Y-198790533D01*
X285570238Y-198790533D01*
X285446428Y-198852438D01*
X285384523Y-198914342D01*
X285322619Y-199038152D01*
D10*
D11*
X10000000Y-60000000D02*
X12000000Y-60000000D01*
D10*
D11*
X10000000Y-110000000D02*
X12000000Y-110000000D01*
D10*
D11*
X10000000Y-160000000D02*
X12000000Y-160000000D01*
D10*
D11*
X10690476Y-35216666D02*
X11309523Y-35216666D01*
X10566666Y-35588095D02*
X11000000Y-34288095D01*
X11433333Y-35588095D01*
D10*
D11*
X11092857Y-84907142D02*
X11278571Y-84969047D01*
X11340476Y-85030952D01*
X11402380Y-85154761D01*
X11402380Y-85340476D01*
X11340476Y-85464285D01*
X11278571Y-85526190D01*
X11154761Y-85588095D01*
X10659523Y-85588095D01*
X10659523Y-84288095D01*
X11092857Y-84288095D01*
X11216666Y-84350000D01*
X11278571Y-84411904D01*
X11340476Y-84535714D01*
X11340476Y-84659523D01*
X11278571Y-84783333D01*
X11216666Y-84845238D01*
X11092857Y-84907142D01*
X10659523Y-84907142D01*
D10*
D11*
X11402380Y-135464285D02*
X11340476Y-135526190D01*
X11154761Y-135588095D01*
X11030952Y-135588095D01*
X10845238Y-135526190D01*
X10721428Y-135402380D01*
X10659523Y-135278571D01*
X10597619Y-135030952D01*
X10597619Y-134845238D01*
X10659523Y-134597619D01*
X10721428Y-134473809D01*
X10845238Y-134350000D01*
X11030952Y-134288095D01*
X11154761Y-134288095D01*
X11340476Y-134350000D01*
X11402380Y-134411904D01*
D10*
D11*
X10659523Y-185588095D02*
X10659523Y-184288095D01*
X10969047Y-184288095D01*
X11154761Y-184350000D01*
X11278571Y-184473809D01*
X11340476Y-184597619D01*
X11402380Y-184845238D01*
X11402380Y-185030952D01*
X11340476Y-185278571D01*
X11278571Y-185402380D01*
X11154761Y-185526190D01*
X10969047Y-185588095D01*
X10659523Y-185588095D01*
D10*
D11*
X287002200Y-60000000D02*
X285002200Y-60000000D01*
D10*
D11*
X287002200Y-110000000D02*
X285002200Y-110000000D01*
D10*
D11*
X287002200Y-160000000D02*
X285002200Y-160000000D01*
D10*
D11*
X285692676Y-35216666D02*
X286311723Y-35216666D01*
X285568866Y-35588095D02*
X286002200Y-34288095D01*
X286435533Y-35588095D01*
D10*
D11*
X286095057Y-84907142D02*
X286280771Y-84969047D01*
X286342676Y-85030952D01*
X286404580Y-85154761D01*
X286404580Y-85340476D01*
X286342676Y-85464285D01*
X286280771Y-85526190D01*
X286156961Y-85588095D01*
X285661723Y-85588095D01*
X285661723Y-84288095D01*
X286095057Y-84288095D01*
X286218866Y-84350000D01*
X286280771Y-84411904D01*
X286342676Y-84535714D01*
X286342676Y-84659523D01*
X286280771Y-84783333D01*
X286218866Y-84845238D01*
X286095057Y-84907142D01*
X285661723Y-84907142D01*
D10*
D11*
X286404580Y-135464285D02*
X286342676Y-135526190D01*
X286156961Y-135588095D01*
X286033152Y-135588095D01*
X285847438Y-135526190D01*
X285723628Y-135402380D01*
X285661723Y-135278571D01*
X285599819Y-135030952D01*
X285599819Y-134845238D01*
X285661723Y-134597619D01*
X285723628Y-134473809D01*
X285847438Y-134350000D01*
X286033152Y-134288095D01*
X286156961Y-134288095D01*
X286342676Y-134350000D01*
X286404580Y-134411904D01*
D10*
D11*
X285661723Y-185588095D02*
X285661723Y-184288095D01*
X285971247Y-184288095D01*
X286156961Y-184350000D01*
X286280771Y-184473809D01*
X286342676Y-184597619D01*
X286404580Y-184845238D01*
X286404580Y-185030952D01*
X286342676Y-185278571D01*
X286280771Y-185402380D01*
X286156961Y-185526190D01*
X285971247Y-185588095D01*
X285661723Y-185588095D01*
D10*
D11*
X200434342Y-193785771D02*
X200434342Y-192285771D01*
X200791485Y-192285771D01*
X201005771Y-192357200D01*
X201148628Y-192500057D01*
X201220057Y-192642914D01*
X201291485Y-192928628D01*
X201291485Y-193142914D01*
X201220057Y-193428628D01*
X201148628Y-193571485D01*
X201005771Y-193714342D01*
X200791485Y-193785771D01*
X200434342Y-193785771D01*
X202577200Y-193785771D02*
X202577200Y-193000057D01*
X202505771Y-192857200D01*
X202362914Y-192785771D01*
X202077200Y-192785771D01*
X201934342Y-192857200D01*
X202577200Y-193714342D02*
X202434342Y-193785771D01*
X202077200Y-193785771D01*
X201934342Y-193714342D01*
X201862914Y-193571485D01*
X201862914Y-193428628D01*
X201934342Y-193285771D01*
X202077200Y-193214342D01*
X202434342Y-193214342D01*
X202577200Y-193142914D01*
X203077200Y-192785771D02*
X203648628Y-192785771D01*
X203291485Y-192285771D02*
X203291485Y-193571485D01*
X203362914Y-193714342D01*
X203505771Y-193785771D01*
X203648628Y-193785771D01*
X204720057Y-193714342D02*
X204577200Y-193785771D01*
X204291485Y-193785771D01*
X204148628Y-193714342D01*
X204077200Y-193571485D01*
X204077200Y-193000057D01*
X204148628Y-192857200D01*
X204291485Y-192785771D01*
X204577200Y-192785771D01*
X204720057Y-192857200D01*
X204791485Y-193000057D01*
X204791485Y-193142914D01*
X204077200Y-193285771D01*
X205434342Y-193642914D02*
X205505771Y-193714342D01*
X205434342Y-193785771D01*
X205362914Y-193714342D01*
X205434342Y-193642914D01*
X205434342Y-193785771D01*
X205434342Y-192857200D02*
X205505771Y-192928628D01*
X205434342Y-193000057D01*
X205362914Y-192928628D01*
X205434342Y-192857200D01*
X205434342Y-193000057D01*
D10*
D11*
X177002200Y-194507200D02*
X285002200Y-194507200D01*
D10*
D11*
X178434342Y-196585771D02*
X178434342Y-195085771D01*
X179291485Y-196585771D02*
X178648628Y-195728628D01*
X179291485Y-195085771D02*
X178434342Y-195942914D01*
X179934342Y-196585771D02*
X179934342Y-195585771D01*
X179934342Y-195085771D02*
X179862914Y-195157200D01*
X179934342Y-195228628D01*
X180005771Y-195157200D01*
X179934342Y-195085771D01*
X179934342Y-195228628D01*
X181505771Y-196442914D02*
X181434342Y-196514342D01*
X181220057Y-196585771D01*
X181077200Y-196585771D01*
X180862914Y-196514342D01*
X180720057Y-196371485D01*
X180648628Y-196228628D01*
X180577200Y-195942914D01*
X180577200Y-195728628D01*
X180648628Y-195442914D01*
X180720057Y-195300057D01*
X180862914Y-195157200D01*
X181077200Y-195085771D01*
X181220057Y-195085771D01*
X181434342Y-195157200D01*
X181505771Y-195228628D01*
X182791485Y-196585771D02*
X182791485Y-195800057D01*
X182720057Y-195657200D01*
X182577200Y-195585771D01*
X182291485Y-195585771D01*
X182148628Y-195657200D01*
X182791485Y-196514342D02*
X182648628Y-196585771D01*
X182291485Y-196585771D01*
X182148628Y-196514342D01*
X182077200Y-196371485D01*
X182077200Y-196228628D01*
X182148628Y-196085771D01*
X182291485Y-196014342D01*
X182648628Y-196014342D01*
X182791485Y-195942914D01*
X184148628Y-196585771D02*
X184148628Y-195085771D01*
X184148628Y-196514342D02*
X184005771Y-196585771D01*
X183720057Y-196585771D01*
X183577200Y-196514342D01*
X183505771Y-196442914D01*
X183434342Y-196300057D01*
X183434342Y-195871485D01*
X183505771Y-195728628D01*
X183577200Y-195657200D01*
X183720057Y-195585771D01*
X184005771Y-195585771D01*
X184148628Y-195657200D01*
X186005771Y-195800057D02*
X186505771Y-195800057D01*
X186720057Y-196585771D02*
X186005771Y-196585771D01*
X186005771Y-195085771D01*
X186720057Y-195085771D01*
X187362914Y-196442914D02*
X187434342Y-196514342D01*
X187362914Y-196585771D01*
X187291485Y-196514342D01*
X187362914Y-196442914D01*
X187362914Y-196585771D01*
X188077200Y-196585771D02*
X188077200Y-195085771D01*
X188434342Y-195085771D01*
X188648628Y-195157200D01*
X188791485Y-195300057D01*
X188862914Y-195442914D01*
X188934342Y-195728628D01*
X188934342Y-195942914D01*
X188862914Y-196228628D01*
X188791485Y-196371485D01*
X188648628Y-196514342D01*
X188434342Y-196585771D01*
X188077200Y-196585771D01*
X189577200Y-196442914D02*
X189648628Y-196514342D01*
X189577200Y-196585771D01*
X189505771Y-196514342D01*
X189577200Y-196442914D01*
X189577200Y-196585771D01*
X190220057Y-196157200D02*
X190934342Y-196157200D01*
X190077200Y-196585771D02*
X190577200Y-195085771D01*
X191077200Y-196585771D01*
X191577200Y-196442914D02*
X191648628Y-196514342D01*
X191577200Y-196585771D01*
X191505771Y-196514342D01*
X191577200Y-196442914D01*
X191577200Y-196585771D01*
X194577200Y-196585771D02*
X194577200Y-195085771D01*
X194720057Y-196014342D02*
X195148628Y-196585771D01*
X195148628Y-195585771D02*
X194577200Y-196157200D01*
X195791485Y-196585771D02*
X195791485Y-195585771D01*
X195791485Y-195085771D02*
X195720057Y-195157200D01*
X195791485Y-195228628D01*
X195862914Y-195157200D01*
X195791485Y-195085771D01*
X195791485Y-195228628D01*
X197148628Y-196514342D02*
X197005771Y-196585771D01*
X196720057Y-196585771D01*
X196577200Y-196514342D01*
X196505771Y-196442914D01*
X196434342Y-196300057D01*
X196434342Y-195871485D01*
X196505771Y-195728628D01*
X196577200Y-195657200D01*
X196720057Y-195585771D01*
X197005771Y-195585771D01*
X197148628Y-195657200D01*
X198434342Y-196585771D02*
X198434342Y-195800057D01*
X198362914Y-195657200D01*
X198220057Y-195585771D01*
X197934342Y-195585771D01*
X197791485Y-195657200D01*
X198434342Y-196514342D02*
X198291485Y-196585771D01*
X197934342Y-196585771D01*
X197791485Y-196514342D01*
X197720057Y-196371485D01*
X197720057Y-196228628D01*
X197791485Y-196085771D01*
X197934342Y-196014342D01*
X198291485Y-196014342D01*
X198434342Y-195942914D01*
X199791485Y-196585771D02*
X199791485Y-195085771D01*
X199791485Y-196514342D02*
X199648628Y-196585771D01*
X199362914Y-196585771D01*
X199220057Y-196514342D01*
X199148628Y-196442914D01*
X199077200Y-196300057D01*
X199077200Y-195871485D01*
X199148628Y-195728628D01*
X199220057Y-195657200D01*
X199362914Y-195585771D01*
X199648628Y-195585771D01*
X199791485Y-195657200D01*
X202362914Y-195085771D02*
X201648628Y-195085771D01*
X201577200Y-195800057D01*
X201648628Y-195728628D01*
X201791485Y-195657200D01*
X202148628Y-195657200D01*
X202291485Y-195728628D01*
X202362914Y-195800057D01*
X202434342Y-195942914D01*
X202434342Y-196300057D01*
X202362914Y-196442914D01*
X202291485Y-196514342D01*
X202148628Y-196585771D01*
X201791485Y-196585771D01*
X201648628Y-196514342D01*
X201577200Y-196442914D01*
X203077200Y-196442914D02*
X203148628Y-196514342D01*
X203077200Y-196585771D01*
X203005771Y-196514342D01*
X203077200Y-196442914D01*
X203077200Y-196585771D01*
X203862914Y-196585771D02*
X204148628Y-196585771D01*
X204291485Y-196514342D01*
X204362914Y-196442914D01*
X204505771Y-196228628D01*
X204577200Y-195942914D01*
X204577200Y-195371485D01*
X204505771Y-195228628D01*
X204434342Y-195157200D01*
X204291485Y-195085771D01*
X204005771Y-195085771D01*
X203862914Y-195157200D01*
X203791485Y-195228628D01*
X203720057Y-195371485D01*
X203720057Y-195728628D01*
X203791485Y-195871485D01*
X203862914Y-195942914D01*
X204005771Y-196014342D01*
X204291485Y-196014342D01*
X204434342Y-195942914D01*
X204505771Y-195871485D01*
X204577200Y-195728628D01*
X205291485Y-196585771D02*
X205577200Y-196585771D01*
X205720057Y-196514342D01*
X205791485Y-196442914D01*
X205934342Y-196228628D01*
X206005771Y-195942914D01*
X206005771Y-195371485D01*
X205934342Y-195228628D01*
X205862914Y-195157200D01*
X205720057Y-195085771D01*
X205434342Y-195085771D01*
X205291485Y-195157200D01*
X205220057Y-195228628D01*
X205148628Y-195371485D01*
X205148628Y-195728628D01*
X205220057Y-195871485D01*
X205291485Y-195942914D01*
X205434342Y-196014342D01*
X205720057Y-196014342D01*
X205862914Y-195942914D01*
X205934342Y-195871485D01*
X206005771Y-195728628D01*
X206648628Y-196442914D02*
X206720057Y-196514342D01*
X206648628Y-196585771D01*
X206577200Y-196514342D01*
X206648628Y-196442914D01*
X206648628Y-196585771D01*
X207648628Y-195085771D02*
X207791485Y-195085771D01*
X207934342Y-195157200D01*
X208005771Y-195228628D01*
X208077200Y-195371485D01*
X208148628Y-195657200D01*
X208148628Y-196014342D01*
X208077200Y-196300057D01*
X208005771Y-196442914D01*
X207934342Y-196514342D01*
X207791485Y-196585771D01*
X207648628Y-196585771D01*
X207505771Y-196514342D01*
X207434342Y-196442914D01*
X207362914Y-196300057D01*
X207291485Y-196014342D01*
X207291485Y-195657200D01*
X207362914Y-195371485D01*
X207434342Y-195228628D01*
X207505771Y-195157200D01*
X207648628Y-195085771D01*
X208791485Y-196014342D02*
X209934342Y-196014342D01*
X209362914Y-196585771D02*
X209362914Y-195442914D01*
X210648628Y-196585771D02*
X210648628Y-195585771D01*
X210648628Y-195871485D02*
X210720057Y-195728628D01*
X210791485Y-195657200D01*
X210934342Y-195585771D01*
X211077200Y-195585771D01*
X212148628Y-196514342D02*
X212005771Y-196585771D01*
X211720057Y-196585771D01*
X211577200Y-196514342D01*
X211505771Y-196371485D01*
X211505771Y-195800057D01*
X211577200Y-195657200D01*
X211720057Y-195585771D01*
X212005771Y-195585771D01*
X212148628Y-195657200D01*
X212220057Y-195800057D01*
X212220057Y-195942914D01*
X211505771Y-196085771D01*
X213505771Y-196585771D02*
X213505771Y-195800057D01*
X213434342Y-195657200D01*
X213291485Y-195585771D01*
X213005771Y-195585771D01*
X212862914Y-195657200D01*
X213505771Y-196514342D02*
X213362914Y-196585771D01*
X213005771Y-196585771D01*
X212862914Y-196514342D01*
X212791485Y-196371485D01*
X212791485Y-196228628D01*
X212862914Y-196085771D01*
X213005771Y-196014342D01*
X213362914Y-196014342D01*
X213505771Y-195942914D01*
X214434342Y-196585771D02*
X214291485Y-196514342D01*
X214220057Y-196371485D01*
X214220057Y-195085771D01*
X215220057Y-196585771D02*
X215077200Y-196514342D01*
X215005771Y-196371485D01*
X215005771Y-195085771D01*
X215648628Y-195585771D02*
X216005771Y-196585771D01*
X216362914Y-195585771D02*
X216005771Y-196585771D01*
X215862914Y-196942914D01*
X215791485Y-197014342D01*
X215648628Y-197085771D01*
X217648628Y-195085771D02*
X216934342Y-195085771D01*
X216862914Y-195800057D01*
X216934342Y-195728628D01*
X217077200Y-195657200D01*
X217434342Y-195657200D01*
X217577200Y-195728628D01*
X217648628Y-195800057D01*
X217720057Y-195942914D01*
X217720057Y-196300057D01*
X217648628Y-196442914D01*
X217577200Y-196514342D01*
X217434342Y-196585771D01*
X217077200Y-196585771D01*
X216934342Y-196514342D01*
X216862914Y-196442914D01*
X218362914Y-196442914D02*
X218434342Y-196514342D01*
X218362914Y-196585771D01*
X218291485Y-196514342D01*
X218362914Y-196442914D01*
X218362914Y-196585771D01*
X219862914Y-196585771D02*
X219005771Y-196585771D01*
X219434342Y-196585771D02*
X219434342Y-195085771D01*
X219291485Y-195300057D01*
X219148628Y-195442914D01*
X219005771Y-195514342D01*
X220505771Y-196442914D02*
X220577200Y-196514342D01*
X220505771Y-196585771D01*
X220434342Y-196514342D01*
X220505771Y-196442914D01*
X220505771Y-196585771D01*
X222005771Y-196585771D02*
X221148628Y-196585771D01*
X221577200Y-196585771D02*
X221577200Y-195085771D01*
X221434342Y-195300057D01*
X221291485Y-195442914D01*
X221148628Y-195514342D01*
X222934342Y-195085771D02*
X223077200Y-195085771D01*
X223220057Y-195157200D01*
X223291485Y-195228628D01*
X223362914Y-195371485D01*
X223434342Y-195657200D01*
X223434342Y-196014342D01*
X223362914Y-196300057D01*
X223291485Y-196442914D01*
X223220057Y-196514342D01*
X223077200Y-196585771D01*
X222934342Y-196585771D01*
X222791485Y-196514342D01*
X222720057Y-196442914D01*
X222648628Y-196300057D01*
X222577200Y-196014342D01*
X222577200Y-195657200D01*
X222648628Y-195371485D01*
X222720057Y-195228628D01*
X222791485Y-195157200D01*
X222934342Y-195085771D01*
X224077200Y-196014342D02*
X225220057Y-196014342D01*
X224648628Y-196585771D02*
X224648628Y-195442914D01*
X226577200Y-196585771D02*
X226577200Y-195085771D01*
X226577200Y-196514342D02*
X226434342Y-196585771D01*
X226148628Y-196585771D01*
X226005771Y-196514342D01*
X225934342Y-196442914D01*
X225862914Y-196300057D01*
X225862914Y-195871485D01*
X225934342Y-195728628D01*
X226005771Y-195657200D01*
X226148628Y-195585771D01*
X226434342Y-195585771D01*
X226577200Y-195657200D01*
X227077200Y-195585771D02*
X227648628Y-195585771D01*
X227291485Y-196585771D02*
X227291485Y-195300057D01*
X227362914Y-195157200D01*
X227505771Y-195085771D01*
X227648628Y-195085771D01*
X228077200Y-196514342D02*
X228220057Y-196585771D01*
X228505771Y-196585771D01*
X228648628Y-196514342D01*
X228720057Y-196371485D01*
X228720057Y-196300057D01*
X228648628Y-196157200D01*
X228505771Y-196085771D01*
X228291485Y-196085771D01*
X228148628Y-196014342D01*
X228077200Y-195871485D01*
X228077200Y-195800057D01*
X228148628Y-195657200D01*
X228291485Y-195585771D01*
X228505771Y-195585771D01*
X228648628Y-195657200D01*
X230005771Y-195585771D02*
X230005771Y-196800057D01*
X229934342Y-196942914D01*
X229862914Y-197014342D01*
X229720057Y-197085771D01*
X229505771Y-197085771D01*
X229362914Y-197014342D01*
X230005771Y-196514342D02*
X229862914Y-196585771D01*
X229577200Y-196585771D01*
X229434342Y-196514342D01*
X229362914Y-196442914D01*
X229291485Y-196300057D01*
X229291485Y-195871485D01*
X229362914Y-195728628D01*
X229434342Y-195657200D01*
X229577200Y-195585771D01*
X229862914Y-195585771D01*
X230005771Y-195657200D01*
X231505771Y-196585771D02*
X230648628Y-196585771D01*
X231077200Y-196585771D02*
X231077200Y-195085771D01*
X230934342Y-195300057D01*
X230791485Y-195442914D01*
X230648628Y-195514342D01*
X232148628Y-196014342D02*
X233291485Y-196014342D01*
X234791485Y-196585771D02*
X233934342Y-196585771D01*
X234362914Y-196585771D02*
X234362914Y-195085771D01*
X234220057Y-195300057D01*
X234077200Y-195442914D01*
X233934342Y-195514342D01*
D10*
D11*
X177002200Y-191507200D02*
X285002200Y-191507200D01*
D10*
D12*
X264411485Y-193785771D02*
X263911485Y-193071485D01*
X263554342Y-193785771D02*
X263554342Y-192285771D01*
X264125771Y-192285771D01*
X264268628Y-192357200D01*
X264340057Y-192428628D01*
X264411485Y-192571485D01*
X264411485Y-192785771D01*
X264340057Y-192928628D01*
X264268628Y-193000057D01*
X264125771Y-193071485D01*
X263554342Y-193071485D01*
X265625771Y-193714342D02*
X265482914Y-193785771D01*
X265197200Y-193785771D01*
X265054342Y-193714342D01*
X264982914Y-193571485D01*
X264982914Y-193000057D01*
X265054342Y-192857200D01*
X265197200Y-192785771D01*
X265482914Y-192785771D01*
X265625771Y-192857200D01*
X265697200Y-193000057D01*
X265697200Y-193142914D01*
X264982914Y-193285771D01*
X266197200Y-192785771D02*
X266554342Y-193785771D01*
X266911485Y-192785771D01*
X267482914Y-193642914D02*
X267554342Y-193714342D01*
X267482914Y-193785771D01*
X267411485Y-193714342D01*
X267482914Y-193642914D01*
X267482914Y-193785771D01*
X267482914Y-192857200D02*
X267554342Y-192928628D01*
X267482914Y-193000057D01*
X267411485Y-192928628D01*
X267482914Y-192857200D01*
X267482914Y-193000057D01*
D10*
D11*
X178362914Y-193714342D02*
X178577200Y-193785771D01*
X178934342Y-193785771D01*
X179077200Y-193714342D01*
X179148628Y-193642914D01*
X179220057Y-193500057D01*
X179220057Y-193357200D01*
X179148628Y-193214342D01*
X179077200Y-193142914D01*
X178934342Y-193071485D01*
X178648628Y-193000057D01*
X178505771Y-192928628D01*
X178434342Y-192857200D01*
X178362914Y-192714342D01*
X178362914Y-192571485D01*
X178434342Y-192428628D01*
X178505771Y-192357200D01*
X178648628Y-192285771D01*
X179005771Y-192285771D01*
X179220057Y-192357200D01*
X179862914Y-193785771D02*
X179862914Y-192785771D01*
X179862914Y-192285771D02*
X179791485Y-192357200D01*
X179862914Y-192428628D01*
X179934342Y-192357200D01*
X179862914Y-192285771D01*
X179862914Y-192428628D01*
X180434342Y-192785771D02*
X181220057Y-192785771D01*
X180434342Y-193785771D01*
X181220057Y-193785771D01*
X182362914Y-193714342D02*
X182220057Y-193785771D01*
X181934342Y-193785771D01*
X181791485Y-193714342D01*
X181720057Y-193571485D01*
X181720057Y-193000057D01*
X181791485Y-192857200D01*
X181934342Y-192785771D01*
X182220057Y-192785771D01*
X182362914Y-192857200D01*
X182434342Y-193000057D01*
X182434342Y-193142914D01*
X181720057Y-193285771D01*
X183077200Y-193642914D02*
X183148628Y-193714342D01*
X183077200Y-193785771D01*
X183005771Y-193714342D01*
X183077200Y-193642914D01*
X183077200Y-193785771D01*
X183077200Y-192857200D02*
X183148628Y-192928628D01*
X183077200Y-193000057D01*
X183005771Y-192928628D01*
X183077200Y-192857200D01*
X183077200Y-193000057D01*
X184862914Y-193357200D02*
X185577200Y-193357200D01*
X184720057Y-193785771D02*
X185220057Y-192285771D01*
X185720057Y-193785771D01*
X186862914Y-192785771D02*
X186862914Y-193785771D01*
X186505771Y-192214342D02*
X186148628Y-193285771D01*
X187077200Y-193285771D01*
D10*
D11*
X263434342Y-196585771D02*
X263434342Y-195085771D01*
X264791485Y-196585771D02*
X264791485Y-195085771D01*
X264791485Y-196514342D02*
X264648628Y-196585771D01*
X264362914Y-196585771D01*
X264220057Y-196514342D01*
X264148628Y-196442914D01*
X264077200Y-196300057D01*
X264077200Y-195871485D01*
X264148628Y-195728628D01*
X264220057Y-195657200D01*
X264362914Y-195585771D01*
X264648628Y-195585771D01*
X264791485Y-195657200D01*
X265505771Y-196442914D02*
X265577200Y-196514342D01*
X265505771Y-196585771D01*
X265434342Y-196514342D01*
X265505771Y-196442914D01*
X265505771Y-196585771D01*
X265505771Y-195657200D02*
X265577200Y-195728628D01*
X265505771Y-195800057D01*
X265434342Y-195728628D01*
X265505771Y-195657200D01*
X265505771Y-195800057D01*
X268148628Y-196585771D02*
X267291485Y-196585771D01*
X267720057Y-196585771D02*
X267720057Y-195085771D01*
X267577200Y-195300057D01*
X267434342Y-195442914D01*
X267291485Y-195514342D01*
X269862914Y-195014342D02*
X268577200Y-196942914D01*
X271148628Y-196585771D02*
X270291485Y-196585771D01*
X270720057Y-196585771D02*
X270720057Y-195085771D01*
X270577200Y-195300057D01*
X270434342Y-195442914D01*
X270291485Y-195514342D01*
D10*
D11*
X177002200Y-187507200D02*
X285002200Y-187507200D01*
D10*
D13*
X178714580Y-188211961D02*
X179857438Y-188211961D01*
X179036009Y-190211961D02*
X179286009Y-188211961D01*
X180274104Y-190211961D02*
X180440771Y-188878628D01*
X180524104Y-188211961D02*
X180416961Y-188307200D01*
X180500295Y-188402438D01*
X180607438Y-188307200D01*
X180524104Y-188211961D01*
X180500295Y-188402438D01*
X181107438Y-188878628D02*
X181869342Y-188878628D01*
X181476485Y-188211961D02*
X181262200Y-189926247D01*
X181333628Y-190116723D01*
X181512200Y-190211961D01*
X181702676Y-190211961D01*
X182655057Y-190211961D02*
X182476485Y-190116723D01*
X182405057Y-189926247D01*
X182619342Y-188211961D01*
X184190771Y-190116723D02*
X183988390Y-190211961D01*
X183607438Y-190211961D01*
X183428866Y-190116723D01*
X183357438Y-189926247D01*
X183452676Y-189164342D01*
X183571723Y-188973866D01*
X183774104Y-188878628D01*
X184155057Y-188878628D01*
X184333628Y-188973866D01*
X184405057Y-189164342D01*
X184381247Y-189354819D01*
X183405057Y-189545295D01*
X185155057Y-190021485D02*
X185238390Y-190116723D01*
X185131247Y-190211961D01*
X185047914Y-190116723D01*
X185155057Y-190021485D01*
X185131247Y-190211961D01*
X185286009Y-188973866D02*
X185369342Y-189069104D01*
X185262200Y-189164342D01*
X185178866Y-189069104D01*
X185286009Y-188973866D01*
X185262200Y-189164342D01*
D10*
D11*
X178934342Y-185600057D02*
X178434342Y-185600057D01*
X178434342Y-186385771D02*
X178434342Y-184885771D01*
X179148628Y-184885771D01*
X179720057Y-186385771D02*
X179720057Y-185385771D01*
X179720057Y-184885771D02*
X179648628Y-184957200D01*
X179720057Y-185028628D01*
X179791485Y-184957200D01*
X179720057Y-184885771D01*
X179720057Y-185028628D01*
X180648628Y-186385771D02*
X180505771Y-186314342D01*
X180434342Y-186171485D01*
X180434342Y-184885771D01*
X181791485Y-186314342D02*
X181648628Y-186385771D01*
X181362914Y-186385771D01*
X181220057Y-186314342D01*
X181148628Y-186171485D01*
X181148628Y-185600057D01*
X181220057Y-185457200D01*
X181362914Y-185385771D01*
X181648628Y-185385771D01*
X181791485Y-185457200D01*
X181862914Y-185600057D01*
X181862914Y-185742914D01*
X181148628Y-185885771D01*
X182505771Y-186242914D02*
X182577200Y-186314342D01*
X182505771Y-186385771D01*
X182434342Y-186314342D01*
X182505771Y-186242914D01*
X182505771Y-186385771D01*
X182505771Y-185457200D02*
X182577200Y-185528628D01*
X182505771Y-185600057D01*
X182434342Y-185528628D01*
X182505771Y-185457200D01*
X182505771Y-185600057D01*
X184362914Y-186385771D02*
X184362914Y-185385771D01*
X184362914Y-185671485D02*
X184434342Y-185528628D01*
X184505771Y-185457200D01*
X184648628Y-185385771D01*
X184791485Y-185385771D01*
X185934342Y-186385771D02*
X185934342Y-185600057D01*
X185862914Y-185457200D01*
X185720057Y-185385771D01*
X185434342Y-185385771D01*
X185291485Y-185457200D01*
X185934342Y-186314342D02*
X185791485Y-186385771D01*
X185434342Y-186385771D01*
X185291485Y-186314342D01*
X185220057Y-186171485D01*
X185220057Y-186028628D01*
X185291485Y-185885771D01*
X185434342Y-185814342D01*
X185791485Y-185814342D01*
X185934342Y-185742914D01*
X186648628Y-186385771D02*
X186648628Y-185385771D01*
X186648628Y-185528628D02*
X186720057Y-185457200D01*
X186862914Y-185385771D01*
X187077200Y-185385771D01*
X187220057Y-185457200D01*
X187291485Y-185600057D01*
X187291485Y-186385771D01*
X187291485Y-185600057D02*
X187362914Y-185457200D01*
X187505771Y-185385771D01*
X187720057Y-185385771D01*
X187862914Y-185457200D01*
X187934342Y-185600057D01*
X187934342Y-186385771D01*
X188291485Y-186528628D02*
X189434342Y-186528628D01*
X189791485Y-185385771D02*
X189791485Y-186885771D01*
X189791485Y-185457200D02*
X189934342Y-185385771D01*
X190220057Y-185385771D01*
X190362914Y-185457200D01*
X190434342Y-185528628D01*
X190505771Y-185671485D01*
X190505771Y-186100057D01*
X190434342Y-186242914D01*
X190362914Y-186314342D01*
X190220057Y-186385771D01*
X189934342Y-186385771D01*
X189791485Y-186314342D01*
X191077200Y-186314342D02*
X191220057Y-186385771D01*
X191505771Y-186385771D01*
X191648628Y-186314342D01*
X191720057Y-186171485D01*
X191720057Y-186100057D01*
X191648628Y-185957200D01*
X191505771Y-185885771D01*
X191291485Y-185885771D01*
X191148628Y-185814342D01*
X191077200Y-185671485D01*
X191077200Y-185600057D01*
X191148628Y-185457200D01*
X191291485Y-185385771D01*
X191505771Y-185385771D01*
X191648628Y-185457200D01*
X193148628Y-186385771D02*
X192291485Y-186385771D01*
X192720057Y-186385771D02*
X192720057Y-184885771D01*
X192577200Y-185100057D01*
X192434342Y-185242914D01*
X192291485Y-185314342D01*
X193434342Y-186528628D02*
X194577200Y-186528628D01*
X194862914Y-185028628D02*
X194934342Y-184957200D01*
X195077200Y-184885771D01*
X195434342Y-184885771D01*
X195577200Y-184957200D01*
X195648628Y-185028628D01*
X195720057Y-185171485D01*
X195720057Y-185314342D01*
X195648628Y-185528628D01*
X194791485Y-186385771D01*
X195720057Y-186385771D01*
X197148628Y-186385771D02*
X196291485Y-186385771D01*
X196720057Y-186385771D02*
X196720057Y-184885771D01*
X196577200Y-185100057D01*
X196434342Y-185242914D01*
X196291485Y-185314342D01*
X197720057Y-185028628D02*
X197791485Y-184957200D01*
X197934342Y-184885771D01*
X198291485Y-184885771D01*
X198434342Y-184957200D01*
X198505771Y-185028628D01*
X198577200Y-185171485D01*
X198577200Y-185314342D01*
X198505771Y-185528628D01*
X197648628Y-186385771D01*
X198577200Y-186385771D01*
X200005771Y-186385771D02*
X199148628Y-186385771D01*
X199577200Y-186385771D02*
X199577200Y-184885771D01*
X199434342Y-185100057D01*
X199291485Y-185242914D01*
X199148628Y-185314342D01*
X200648628Y-186242914D02*
X200720057Y-186314342D01*
X200648628Y-186385771D01*
X200577200Y-186314342D01*
X200648628Y-186242914D01*
X200648628Y-186385771D01*
X201362914Y-186385771D02*
X201362914Y-184885771D01*
X201505771Y-185814342D02*
X201934342Y-186385771D01*
X201934342Y-185385771D02*
X201362914Y-185957200D01*
X202577200Y-186385771D02*
X202577200Y-185385771D01*
X202577200Y-184885771D02*
X202505771Y-184957200D01*
X202577200Y-185028628D01*
X202648628Y-184957200D01*
X202577200Y-184885771D01*
X202577200Y-185028628D01*
X203934342Y-186314342D02*
X203791485Y-186385771D01*
X203505771Y-186385771D01*
X203362914Y-186314342D01*
X203291485Y-186242914D01*
X203220057Y-186100057D01*
X203220057Y-185671485D01*
X203291485Y-185528628D01*
X203362914Y-185457200D01*
X203505771Y-185385771D01*
X203791485Y-185385771D01*
X203934342Y-185457200D01*
X205220057Y-186385771D02*
X205220057Y-185600057D01*
X205148628Y-185457200D01*
X205005771Y-185385771D01*
X204720057Y-185385771D01*
X204577200Y-185457200D01*
X205220057Y-186314342D02*
X205077200Y-186385771D01*
X204720057Y-186385771D01*
X204577200Y-186314342D01*
X204505771Y-186171485D01*
X204505771Y-186028628D01*
X204577200Y-185885771D01*
X204720057Y-185814342D01*
X205077200Y-185814342D01*
X205220057Y-185742914D01*
X206577200Y-186385771D02*
X206577200Y-184885771D01*
X206577200Y-186314342D02*
X206434342Y-186385771D01*
X206148628Y-186385771D01*
X206005771Y-186314342D01*
X205934342Y-186242914D01*
X205862914Y-186100057D01*
X205862914Y-185671485D01*
X205934342Y-185528628D01*
X206005771Y-185457200D01*
X206148628Y-185385771D01*
X206434342Y-185385771D01*
X206577200Y-185457200D01*
X206934342Y-186528628D02*
X208077200Y-186528628D01*
X208434342Y-185385771D02*
X208434342Y-186885771D01*
X208434342Y-185457200D02*
X208577200Y-185385771D01*
X208862914Y-185385771D01*
X209005771Y-185457200D01*
X209077200Y-185528628D01*
X209148628Y-185671485D01*
X209148628Y-186100057D01*
X209077200Y-186242914D01*
X209005771Y-186314342D01*
X208862914Y-186385771D01*
X208577200Y-186385771D01*
X208434342Y-186314342D01*
X210434342Y-186314342D02*
X210291485Y-186385771D01*
X210005771Y-186385771D01*
X209862914Y-186314342D01*
X209791485Y-186242914D01*
X209720057Y-186100057D01*
X209720057Y-185671485D01*
X209791485Y-185528628D01*
X209862914Y-185457200D01*
X210005771Y-185385771D01*
X210291485Y-185385771D01*
X210434342Y-185457200D01*
X211077200Y-186385771D02*
X211077200Y-184885771D01*
X211077200Y-185457200D02*
X211220057Y-185385771D01*
X211505771Y-185385771D01*
X211648628Y-185457200D01*
X211720057Y-185528628D01*
X211791485Y-185671485D01*
X211791485Y-186100057D01*
X211720057Y-186242914D01*
X211648628Y-186314342D01*
X211505771Y-186385771D01*
X211220057Y-186385771D01*
X211077200Y-186314342D01*
D10*
D11*
X177002200Y-181507200D02*
X285002200Y-181507200D01*
D10*
D11*
X178362914Y-183614342D02*
X178577200Y-183685771D01*
X178934342Y-183685771D01*
X179077200Y-183614342D01*
X179148628Y-183542914D01*
X179220057Y-183400057D01*
X179220057Y-183257200D01*
X179148628Y-183114342D01*
X179077200Y-183042914D01*
X178934342Y-182971485D01*
X178648628Y-182900057D01*
X178505771Y-182828628D01*
X178434342Y-182757200D01*
X178362914Y-182614342D01*
X178362914Y-182471485D01*
X178434342Y-182328628D01*
X178505771Y-182257200D01*
X178648628Y-182185771D01*
X179005771Y-182185771D01*
X179220057Y-182257200D01*
X179862914Y-183685771D02*
X179862914Y-182185771D01*
X180505771Y-183685771D02*
X180505771Y-182900057D01*
X180434342Y-182757200D01*
X180291485Y-182685771D01*
X180077200Y-182685771D01*
X179934342Y-182757200D01*
X179862914Y-182828628D01*
X181791485Y-183614342D02*
X181648628Y-183685771D01*
X181362914Y-183685771D01*
X181220057Y-183614342D01*
X181148628Y-183471485D01*
X181148628Y-182900057D01*
X181220057Y-182757200D01*
X181362914Y-182685771D01*
X181648628Y-182685771D01*
X181791485Y-182757200D01*
X181862914Y-182900057D01*
X181862914Y-183042914D01*
X181148628Y-183185771D01*
X183077200Y-183614342D02*
X182934342Y-183685771D01*
X182648628Y-183685771D01*
X182505771Y-183614342D01*
X182434342Y-183471485D01*
X182434342Y-182900057D01*
X182505771Y-182757200D01*
X182648628Y-182685771D01*
X182934342Y-182685771D01*
X183077200Y-182757200D01*
X183148628Y-182900057D01*
X183148628Y-183042914D01*
X182434342Y-183185771D01*
X183577200Y-182685771D02*
X184148628Y-182685771D01*
X183791485Y-182185771D02*
X183791485Y-183471485D01*
X183862914Y-183614342D01*
X184005771Y-183685771D01*
X184148628Y-183685771D01*
X184648628Y-183542914D02*
X184720057Y-183614342D01*
X184648628Y-183685771D01*
X184577200Y-183614342D01*
X184648628Y-183542914D01*
X184648628Y-183685771D01*
X184648628Y-182757200D02*
X184720057Y-182828628D01*
X184648628Y-182900057D01*
X184577200Y-182828628D01*
X184648628Y-182757200D01*
X184648628Y-182900057D01*
D10*
D11*
X197002200Y-191507200D02*
X197002200Y-194507200D01*
D10*
D11*
X261002200Y-191507200D02*
X261002200Y-198007200D01*
%TO.C,U2*%
X36068000Y-83058000D02*
G75*
G03*
X36068000Y-83058000I-1270000J0D01*
G01*
X33020000Y-108966000D02*
X40640000Y-108966000D01*
X33020000Y-81534000D02*
X40640000Y-81534000D01*
X33020000Y-108966000D02*
X33020000Y-81534000D01*
X40640000Y-81534000D02*
X40640000Y-108966000D01*
D14*
%TO.C,C1*%
X36118748Y-77830000D02*
X37541252Y-77830000D01*
X36118748Y-79650000D02*
X37541252Y-79650000D01*
%TO.C,C2*%
X58773748Y-79650000D02*
X60196252Y-79650000D01*
X58773748Y-77830000D02*
X60196252Y-77830000D01*
%TO.C,SecBank*%
X73930000Y-82045000D02*
X73930000Y-79245000D01*
X74630000Y-78595000D02*
X75230000Y-78595000D01*
X75930000Y-79245000D02*
X75930000Y-82045000D01*
X75230000Y-82695000D02*
X74630000Y-82695000D01*
X74630000Y-82695000D02*
G75*
G02*
X73930000Y-81995000I0J700000D01*
G01*
X75930000Y-81995000D02*
G75*
G02*
X75230000Y-82695000I-700000J0D01*
G01*
X75230000Y-78595000D02*
G75*
G02*
X75930000Y-79295000I0J-700000D01*
G01*
X73930000Y-79295000D02*
G75*
G02*
X74630000Y-78595000I700000J0D01*
G01*
%TO.C,1MB_CD*%
X70785000Y-82695000D02*
X70185000Y-82695000D01*
X71485000Y-79245000D02*
X71485000Y-82045000D01*
X70185000Y-78595000D02*
X70785000Y-78595000D01*
X69485000Y-82045000D02*
X69485000Y-79245000D01*
X69485000Y-79295000D02*
G75*
G02*
X70185000Y-78595000I700000J0D01*
G01*
X70785000Y-78595000D02*
G75*
G02*
X71485000Y-79295000I0J-700000D01*
G01*
X71485000Y-81995000D02*
G75*
G02*
X70785000Y-82695000I-700000J0D01*
G01*
X70185000Y-82695000D02*
G75*
G02*
X69485000Y-81995000I0J700000D01*
G01*
D11*
%TO.C,U3*%
X62865000Y-81534000D02*
X62865000Y-108966000D01*
X55245000Y-108966000D02*
X55245000Y-81534000D01*
X55245000Y-81534000D02*
X62865000Y-81534000D01*
X55245000Y-108966000D02*
X62865000Y-108966000D01*
X58293000Y-83058000D02*
G75*
G03*
X58293000Y-83058000I-1270000J0D01*
G01*
%TO.C,U1*%
X48768095Y-104977380D02*
X48768095Y-105786904D01*
X48815714Y-105882142D01*
X48863333Y-105929761D01*
X48958571Y-105977380D01*
X49149047Y-105977380D01*
X49244285Y-105929761D01*
X49291904Y-105882142D01*
X49339523Y-105786904D01*
X49339523Y-104977380D01*
X50339523Y-105977380D02*
X49768095Y-105977380D01*
X50053809Y-105977380D02*
X50053809Y-104977380D01*
X49958571Y-105120238D01*
X49863333Y-105215476D01*
X49768095Y-105263095D01*
X28392380Y-110843095D02*
X27392380Y-110843095D01*
X27392380Y-110605000D01*
X27440000Y-110462142D01*
X27535238Y-110366904D01*
X27630476Y-110319285D01*
X27820952Y-110271666D01*
X27963809Y-110271666D01*
X28154285Y-110319285D01*
X28249523Y-110366904D01*
X28344761Y-110462142D01*
X28392380Y-110605000D01*
X28392380Y-110843095D01*
X27392380Y-109652619D02*
X27392380Y-109557380D01*
X27440000Y-109462142D01*
X27487619Y-109414523D01*
X27582857Y-109366904D01*
X27773333Y-109319285D01*
X28011428Y-109319285D01*
X28201904Y-109366904D01*
X28297142Y-109414523D01*
X28344761Y-109462142D01*
X28392380Y-109557380D01*
X28392380Y-109652619D01*
X28344761Y-109747857D01*
X28297142Y-109795476D01*
X28201904Y-109843095D01*
X28011428Y-109890714D01*
X27773333Y-109890714D01*
X27582857Y-109843095D01*
X27487619Y-109795476D01*
X27440000Y-109747857D01*
X27392380Y-109652619D01*
X30932380Y-110843095D02*
X29932380Y-110843095D01*
X29932380Y-110605000D01*
X29980000Y-110462142D01*
X30075238Y-110366904D01*
X30170476Y-110319285D01*
X30360952Y-110271666D01*
X30503809Y-110271666D01*
X30694285Y-110319285D01*
X30789523Y-110366904D01*
X30884761Y-110462142D01*
X30932380Y-110605000D01*
X30932380Y-110843095D01*
X30932380Y-109319285D02*
X30932380Y-109890714D01*
X30932380Y-109605000D02*
X29932380Y-109605000D01*
X30075238Y-109700238D01*
X30170476Y-109795476D01*
X30218095Y-109890714D01*
X33472380Y-110843095D02*
X32472380Y-110843095D01*
X32472380Y-110605000D01*
X32520000Y-110462142D01*
X32615238Y-110366904D01*
X32710476Y-110319285D01*
X32900952Y-110271666D01*
X33043809Y-110271666D01*
X33234285Y-110319285D01*
X33329523Y-110366904D01*
X33424761Y-110462142D01*
X33472380Y-110605000D01*
X33472380Y-110843095D01*
X32567619Y-109890714D02*
X32520000Y-109843095D01*
X32472380Y-109747857D01*
X32472380Y-109509761D01*
X32520000Y-109414523D01*
X32567619Y-109366904D01*
X32662857Y-109319285D01*
X32758095Y-109319285D01*
X32900952Y-109366904D01*
X33472380Y-109938333D01*
X33472380Y-109319285D01*
X36012380Y-110843095D02*
X35012380Y-110843095D01*
X35012380Y-110605000D01*
X35060000Y-110462142D01*
X35155238Y-110366904D01*
X35250476Y-110319285D01*
X35440952Y-110271666D01*
X35583809Y-110271666D01*
X35774285Y-110319285D01*
X35869523Y-110366904D01*
X35964761Y-110462142D01*
X36012380Y-110605000D01*
X36012380Y-110843095D01*
X35012380Y-109938333D02*
X35012380Y-109319285D01*
X35393333Y-109652619D01*
X35393333Y-109509761D01*
X35440952Y-109414523D01*
X35488571Y-109366904D01*
X35583809Y-109319285D01*
X35821904Y-109319285D01*
X35917142Y-109366904D01*
X35964761Y-109414523D01*
X36012380Y-109509761D01*
X36012380Y-109795476D01*
X35964761Y-109890714D01*
X35917142Y-109938333D01*
X37600000Y-110866904D02*
X37552380Y-110962142D01*
X37552380Y-111105000D01*
X37600000Y-111247857D01*
X37695238Y-111343095D01*
X37790476Y-111390714D01*
X37980952Y-111438333D01*
X38123809Y-111438333D01*
X38314285Y-111390714D01*
X38409523Y-111343095D01*
X38504761Y-111247857D01*
X38552380Y-111105000D01*
X38552380Y-111009761D01*
X38504761Y-110866904D01*
X38457142Y-110819285D01*
X38123809Y-110819285D01*
X38123809Y-111009761D01*
X38552380Y-110390714D02*
X37552380Y-110390714D01*
X38552380Y-109819285D01*
X37552380Y-109819285D01*
X38552380Y-109343095D02*
X37552380Y-109343095D01*
X37552380Y-109105000D01*
X37600000Y-108962142D01*
X37695238Y-108866904D01*
X37790476Y-108819285D01*
X37980952Y-108771666D01*
X38123809Y-108771666D01*
X38314285Y-108819285D01*
X38409523Y-108866904D01*
X38504761Y-108962142D01*
X38552380Y-109105000D01*
X38552380Y-109343095D01*
X41092380Y-110843095D02*
X40092380Y-110843095D01*
X40092380Y-110605000D01*
X40140000Y-110462142D01*
X40235238Y-110366904D01*
X40330476Y-110319285D01*
X40520952Y-110271666D01*
X40663809Y-110271666D01*
X40854285Y-110319285D01*
X40949523Y-110366904D01*
X41044761Y-110462142D01*
X41092380Y-110605000D01*
X41092380Y-110843095D01*
X40425714Y-109414523D02*
X41092380Y-109414523D01*
X40044761Y-109652619D02*
X40759047Y-109890714D01*
X40759047Y-109271666D01*
X43632380Y-110843095D02*
X42632380Y-110843095D01*
X42632380Y-110605000D01*
X42680000Y-110462142D01*
X42775238Y-110366904D01*
X42870476Y-110319285D01*
X43060952Y-110271666D01*
X43203809Y-110271666D01*
X43394285Y-110319285D01*
X43489523Y-110366904D01*
X43584761Y-110462142D01*
X43632380Y-110605000D01*
X43632380Y-110843095D01*
X42632380Y-109366904D02*
X42632380Y-109843095D01*
X43108571Y-109890714D01*
X43060952Y-109843095D01*
X43013333Y-109747857D01*
X43013333Y-109509761D01*
X43060952Y-109414523D01*
X43108571Y-109366904D01*
X43203809Y-109319285D01*
X43441904Y-109319285D01*
X43537142Y-109366904D01*
X43584761Y-109414523D01*
X43632380Y-109509761D01*
X43632380Y-109747857D01*
X43584761Y-109843095D01*
X43537142Y-109890714D01*
X46172380Y-110843095D02*
X45172380Y-110843095D01*
X45172380Y-110605000D01*
X45220000Y-110462142D01*
X45315238Y-110366904D01*
X45410476Y-110319285D01*
X45600952Y-110271666D01*
X45743809Y-110271666D01*
X45934285Y-110319285D01*
X46029523Y-110366904D01*
X46124761Y-110462142D01*
X46172380Y-110605000D01*
X46172380Y-110843095D01*
X45172380Y-109414523D02*
X45172380Y-109605000D01*
X45220000Y-109700238D01*
X45267619Y-109747857D01*
X45410476Y-109843095D01*
X45600952Y-109890714D01*
X45981904Y-109890714D01*
X46077142Y-109843095D01*
X46124761Y-109795476D01*
X46172380Y-109700238D01*
X46172380Y-109509761D01*
X46124761Y-109414523D01*
X46077142Y-109366904D01*
X45981904Y-109319285D01*
X45743809Y-109319285D01*
X45648571Y-109366904D01*
X45600952Y-109414523D01*
X45553333Y-109509761D01*
X45553333Y-109700238D01*
X45600952Y-109795476D01*
X45648571Y-109843095D01*
X45743809Y-109890714D01*
X50300000Y-110866904D02*
X50252380Y-110962142D01*
X50252380Y-111105000D01*
X50300000Y-111247857D01*
X50395238Y-111343095D01*
X50490476Y-111390714D01*
X50680952Y-111438333D01*
X50823809Y-111438333D01*
X51014285Y-111390714D01*
X51109523Y-111343095D01*
X51204761Y-111247857D01*
X51252380Y-111105000D01*
X51252380Y-111009761D01*
X51204761Y-110866904D01*
X51157142Y-110819285D01*
X50823809Y-110819285D01*
X50823809Y-111009761D01*
X51252380Y-110390714D02*
X50252380Y-110390714D01*
X51252380Y-109819285D01*
X50252380Y-109819285D01*
X51252380Y-109343095D02*
X50252380Y-109343095D01*
X50252380Y-109105000D01*
X50300000Y-108962142D01*
X50395238Y-108866904D01*
X50490476Y-108819285D01*
X50680952Y-108771666D01*
X50823809Y-108771666D01*
X51014285Y-108819285D01*
X51109523Y-108866904D01*
X51204761Y-108962142D01*
X51252380Y-109105000D01*
X51252380Y-109343095D01*
X48712380Y-110843095D02*
X47712380Y-110843095D01*
X47712380Y-110605000D01*
X47760000Y-110462142D01*
X47855238Y-110366904D01*
X47950476Y-110319285D01*
X48140952Y-110271666D01*
X48283809Y-110271666D01*
X48474285Y-110319285D01*
X48569523Y-110366904D01*
X48664761Y-110462142D01*
X48712380Y-110605000D01*
X48712380Y-110843095D01*
X47712380Y-109938333D02*
X47712380Y-109271666D01*
X48712380Y-109700238D01*
X53792380Y-110843095D02*
X52792380Y-110843095D01*
X52792380Y-110605000D01*
X52840000Y-110462142D01*
X52935238Y-110366904D01*
X53030476Y-110319285D01*
X53220952Y-110271666D01*
X53363809Y-110271666D01*
X53554285Y-110319285D01*
X53649523Y-110366904D01*
X53744761Y-110462142D01*
X53792380Y-110605000D01*
X53792380Y-110843095D01*
X53220952Y-109700238D02*
X53173333Y-109795476D01*
X53125714Y-109843095D01*
X53030476Y-109890714D01*
X52982857Y-109890714D01*
X52887619Y-109843095D01*
X52840000Y-109795476D01*
X52792380Y-109700238D01*
X52792380Y-109509761D01*
X52840000Y-109414523D01*
X52887619Y-109366904D01*
X52982857Y-109319285D01*
X53030476Y-109319285D01*
X53125714Y-109366904D01*
X53173333Y-109414523D01*
X53220952Y-109509761D01*
X53220952Y-109700238D01*
X53268571Y-109795476D01*
X53316190Y-109843095D01*
X53411428Y-109890714D01*
X53601904Y-109890714D01*
X53697142Y-109843095D01*
X53744761Y-109795476D01*
X53792380Y-109700238D01*
X53792380Y-109509761D01*
X53744761Y-109414523D01*
X53697142Y-109366904D01*
X53601904Y-109319285D01*
X53411428Y-109319285D01*
X53316190Y-109366904D01*
X53268571Y-109414523D01*
X53220952Y-109509761D01*
X56332380Y-110843095D02*
X55332380Y-110843095D01*
X55332380Y-110605000D01*
X55380000Y-110462142D01*
X55475238Y-110366904D01*
X55570476Y-110319285D01*
X55760952Y-110271666D01*
X55903809Y-110271666D01*
X56094285Y-110319285D01*
X56189523Y-110366904D01*
X56284761Y-110462142D01*
X56332380Y-110605000D01*
X56332380Y-110843095D01*
X56332380Y-109795476D02*
X56332380Y-109605000D01*
X56284761Y-109509761D01*
X56237142Y-109462142D01*
X56094285Y-109366904D01*
X55903809Y-109319285D01*
X55522857Y-109319285D01*
X55427619Y-109366904D01*
X55380000Y-109414523D01*
X55332380Y-109509761D01*
X55332380Y-109700238D01*
X55380000Y-109795476D01*
X55427619Y-109843095D01*
X55522857Y-109890714D01*
X55760952Y-109890714D01*
X55856190Y-109843095D01*
X55903809Y-109795476D01*
X55951428Y-109700238D01*
X55951428Y-109509761D01*
X55903809Y-109414523D01*
X55856190Y-109366904D01*
X55760952Y-109319285D01*
X58872380Y-111319285D02*
X57872380Y-111319285D01*
X57872380Y-111081190D01*
X57920000Y-110938333D01*
X58015238Y-110843095D01*
X58110476Y-110795476D01*
X58300952Y-110747857D01*
X58443809Y-110747857D01*
X58634285Y-110795476D01*
X58729523Y-110843095D01*
X58824761Y-110938333D01*
X58872380Y-111081190D01*
X58872380Y-111319285D01*
X58872380Y-109795476D02*
X58872380Y-110366904D01*
X58872380Y-110081190D02*
X57872380Y-110081190D01*
X58015238Y-110176428D01*
X58110476Y-110271666D01*
X58158095Y-110366904D01*
X57872380Y-109176428D02*
X57872380Y-109081190D01*
X57920000Y-108985952D01*
X57967619Y-108938333D01*
X58062857Y-108890714D01*
X58253333Y-108843095D01*
X58491428Y-108843095D01*
X58681904Y-108890714D01*
X58777142Y-108938333D01*
X58824761Y-108985952D01*
X58872380Y-109081190D01*
X58872380Y-109176428D01*
X58824761Y-109271666D01*
X58777142Y-109319285D01*
X58681904Y-109366904D01*
X58491428Y-109414523D01*
X58253333Y-109414523D01*
X58062857Y-109366904D01*
X57967619Y-109319285D01*
X57920000Y-109271666D01*
X57872380Y-109176428D01*
X61412380Y-111319285D02*
X60412380Y-111319285D01*
X60412380Y-111081190D01*
X60460000Y-110938333D01*
X60555238Y-110843095D01*
X60650476Y-110795476D01*
X60840952Y-110747857D01*
X60983809Y-110747857D01*
X61174285Y-110795476D01*
X61269523Y-110843095D01*
X61364761Y-110938333D01*
X61412380Y-111081190D01*
X61412380Y-111319285D01*
X61412380Y-109795476D02*
X61412380Y-110366904D01*
X61412380Y-110081190D02*
X60412380Y-110081190D01*
X60555238Y-110176428D01*
X60650476Y-110271666D01*
X60698095Y-110366904D01*
X61412380Y-108843095D02*
X61412380Y-109414523D01*
X61412380Y-109128809D02*
X60412380Y-109128809D01*
X60555238Y-109224047D01*
X60650476Y-109319285D01*
X60698095Y-109414523D01*
X63000000Y-110866904D02*
X62952380Y-110962142D01*
X62952380Y-111105000D01*
X63000000Y-111247857D01*
X63095238Y-111343095D01*
X63190476Y-111390714D01*
X63380952Y-111438333D01*
X63523809Y-111438333D01*
X63714285Y-111390714D01*
X63809523Y-111343095D01*
X63904761Y-111247857D01*
X63952380Y-111105000D01*
X63952380Y-111009761D01*
X63904761Y-110866904D01*
X63857142Y-110819285D01*
X63523809Y-110819285D01*
X63523809Y-111009761D01*
X63952380Y-110390714D02*
X62952380Y-110390714D01*
X63952380Y-109819285D01*
X62952380Y-109819285D01*
X63952380Y-109343095D02*
X62952380Y-109343095D01*
X62952380Y-109105000D01*
X63000000Y-108962142D01*
X63095238Y-108866904D01*
X63190476Y-108819285D01*
X63380952Y-108771666D01*
X63523809Y-108771666D01*
X63714285Y-108819285D01*
X63809523Y-108866904D01*
X63904761Y-108962142D01*
X63952380Y-109105000D01*
X63952380Y-109343095D01*
X66492380Y-111319285D02*
X65492380Y-111319285D01*
X65492380Y-111081190D01*
X65540000Y-110938333D01*
X65635238Y-110843095D01*
X65730476Y-110795476D01*
X65920952Y-110747857D01*
X66063809Y-110747857D01*
X66254285Y-110795476D01*
X66349523Y-110843095D01*
X66444761Y-110938333D01*
X66492380Y-111081190D01*
X66492380Y-111319285D01*
X66492380Y-109795476D02*
X66492380Y-110366904D01*
X66492380Y-110081190D02*
X65492380Y-110081190D01*
X65635238Y-110176428D01*
X65730476Y-110271666D01*
X65778095Y-110366904D01*
X65587619Y-109414523D02*
X65540000Y-109366904D01*
X65492380Y-109271666D01*
X65492380Y-109033571D01*
X65540000Y-108938333D01*
X65587619Y-108890714D01*
X65682857Y-108843095D01*
X65778095Y-108843095D01*
X65920952Y-108890714D01*
X66492380Y-109462142D01*
X66492380Y-108843095D01*
X69032380Y-111319285D02*
X68032380Y-111319285D01*
X68032380Y-111081190D01*
X68080000Y-110938333D01*
X68175238Y-110843095D01*
X68270476Y-110795476D01*
X68460952Y-110747857D01*
X68603809Y-110747857D01*
X68794285Y-110795476D01*
X68889523Y-110843095D01*
X68984761Y-110938333D01*
X69032380Y-111081190D01*
X69032380Y-111319285D01*
X69032380Y-109795476D02*
X69032380Y-110366904D01*
X69032380Y-110081190D02*
X68032380Y-110081190D01*
X68175238Y-110176428D01*
X68270476Y-110271666D01*
X68318095Y-110366904D01*
X68032380Y-109462142D02*
X68032380Y-108843095D01*
X68413333Y-109176428D01*
X68413333Y-109033571D01*
X68460952Y-108938333D01*
X68508571Y-108890714D01*
X68603809Y-108843095D01*
X68841904Y-108843095D01*
X68937142Y-108890714D01*
X68984761Y-108938333D01*
X69032380Y-109033571D01*
X69032380Y-109319285D01*
X68984761Y-109414523D01*
X68937142Y-109462142D01*
X71572380Y-111319285D02*
X70572380Y-111319285D01*
X70572380Y-111081190D01*
X70620000Y-110938333D01*
X70715238Y-110843095D01*
X70810476Y-110795476D01*
X71000952Y-110747857D01*
X71143809Y-110747857D01*
X71334285Y-110795476D01*
X71429523Y-110843095D01*
X71524761Y-110938333D01*
X71572380Y-111081190D01*
X71572380Y-111319285D01*
X71572380Y-109795476D02*
X71572380Y-110366904D01*
X71572380Y-110081190D02*
X70572380Y-110081190D01*
X70715238Y-110176428D01*
X70810476Y-110271666D01*
X70858095Y-110366904D01*
X70905714Y-108938333D02*
X71572380Y-108938333D01*
X70524761Y-109176428D02*
X71239047Y-109414523D01*
X71239047Y-108795476D01*
X74112380Y-111319285D02*
X73112380Y-111319285D01*
X73112380Y-111081190D01*
X73160000Y-110938333D01*
X73255238Y-110843095D01*
X73350476Y-110795476D01*
X73540952Y-110747857D01*
X73683809Y-110747857D01*
X73874285Y-110795476D01*
X73969523Y-110843095D01*
X74064761Y-110938333D01*
X74112380Y-111081190D01*
X74112380Y-111319285D01*
X74112380Y-109795476D02*
X74112380Y-110366904D01*
X74112380Y-110081190D02*
X73112380Y-110081190D01*
X73255238Y-110176428D01*
X73350476Y-110271666D01*
X73398095Y-110366904D01*
X73112380Y-108890714D02*
X73112380Y-109366904D01*
X73588571Y-109414523D01*
X73540952Y-109366904D01*
X73493333Y-109271666D01*
X73493333Y-109033571D01*
X73540952Y-108938333D01*
X73588571Y-108890714D01*
X73683809Y-108843095D01*
X73921904Y-108843095D01*
X74017142Y-108890714D01*
X74064761Y-108938333D01*
X74112380Y-109033571D01*
X74112380Y-109271666D01*
X74064761Y-109366904D01*
X74017142Y-109414523D01*
X75700000Y-110866904D02*
X75652380Y-110962142D01*
X75652380Y-111105000D01*
X75700000Y-111247857D01*
X75795238Y-111343095D01*
X75890476Y-111390714D01*
X76080952Y-111438333D01*
X76223809Y-111438333D01*
X76414285Y-111390714D01*
X76509523Y-111343095D01*
X76604761Y-111247857D01*
X76652380Y-111105000D01*
X76652380Y-111009761D01*
X76604761Y-110866904D01*
X76557142Y-110819285D01*
X76223809Y-110819285D01*
X76223809Y-111009761D01*
X76652380Y-110390714D02*
X75652380Y-110390714D01*
X76652380Y-109819285D01*
X75652380Y-109819285D01*
X76652380Y-109343095D02*
X75652380Y-109343095D01*
X75652380Y-109105000D01*
X75700000Y-108962142D01*
X75795238Y-108866904D01*
X75890476Y-108819285D01*
X76080952Y-108771666D01*
X76223809Y-108771666D01*
X76414285Y-108819285D01*
X76509523Y-108866904D01*
X76604761Y-108962142D01*
X76652380Y-109105000D01*
X76652380Y-109343095D01*
%TO.C,U2*%
X38187380Y-96011904D02*
X38996904Y-96011904D01*
X39092142Y-95964285D01*
X39139761Y-95916666D01*
X39187380Y-95821428D01*
X39187380Y-95630952D01*
X39139761Y-95535714D01*
X39092142Y-95488095D01*
X38996904Y-95440476D01*
X38187380Y-95440476D01*
X38282619Y-95011904D02*
X38235000Y-94964285D01*
X38187380Y-94869047D01*
X38187380Y-94630952D01*
X38235000Y-94535714D01*
X38282619Y-94488095D01*
X38377857Y-94440476D01*
X38473095Y-94440476D01*
X38615952Y-94488095D01*
X39187380Y-95059523D01*
X39187380Y-94440476D01*
%TO.C,C1*%
X36663333Y-77247142D02*
X36615714Y-77294761D01*
X36472857Y-77342380D01*
X36377619Y-77342380D01*
X36234761Y-77294761D01*
X36139523Y-77199523D01*
X36091904Y-77104285D01*
X36044285Y-76913809D01*
X36044285Y-76770952D01*
X36091904Y-76580476D01*
X36139523Y-76485238D01*
X36234761Y-76390000D01*
X36377619Y-76342380D01*
X36472857Y-76342380D01*
X36615714Y-76390000D01*
X36663333Y-76437619D01*
X37615714Y-77342380D02*
X37044285Y-77342380D01*
X37330000Y-77342380D02*
X37330000Y-76342380D01*
X37234761Y-76485238D01*
X37139523Y-76580476D01*
X37044285Y-76628095D01*
%TO.C,C2*%
X59318333Y-77247142D02*
X59270714Y-77294761D01*
X59127857Y-77342380D01*
X59032619Y-77342380D01*
X58889761Y-77294761D01*
X58794523Y-77199523D01*
X58746904Y-77104285D01*
X58699285Y-76913809D01*
X58699285Y-76770952D01*
X58746904Y-76580476D01*
X58794523Y-76485238D01*
X58889761Y-76390000D01*
X59032619Y-76342380D01*
X59127857Y-76342380D01*
X59270714Y-76390000D01*
X59318333Y-76437619D01*
X59699285Y-76437619D02*
X59746904Y-76390000D01*
X59842142Y-76342380D01*
X60080238Y-76342380D01*
X60175476Y-76390000D01*
X60223095Y-76437619D01*
X60270714Y-76532857D01*
X60270714Y-76628095D01*
X60223095Y-76770952D01*
X59651666Y-77342380D01*
X60270714Y-77342380D01*
%TO.C,SecBank*%
X73534761Y-83597380D02*
X73582380Y-83454523D01*
X73582380Y-83216428D01*
X73534761Y-83121190D01*
X73487142Y-83073571D01*
X73391904Y-83025952D01*
X73296666Y-83025952D01*
X73201428Y-83073571D01*
X73153809Y-83121190D01*
X73106190Y-83216428D01*
X73058571Y-83406904D01*
X73010952Y-83502142D01*
X72963333Y-83549761D01*
X72868095Y-83597380D01*
X72772857Y-83597380D01*
X72677619Y-83549761D01*
X72630000Y-83502142D01*
X72582380Y-83406904D01*
X72582380Y-83168809D01*
X72630000Y-83025952D01*
X73534761Y-82216428D02*
X73582380Y-82311666D01*
X73582380Y-82502142D01*
X73534761Y-82597380D01*
X73439523Y-82645000D01*
X73058571Y-82645000D01*
X72963333Y-82597380D01*
X72915714Y-82502142D01*
X72915714Y-82311666D01*
X72963333Y-82216428D01*
X73058571Y-82168809D01*
X73153809Y-82168809D01*
X73249047Y-82645000D01*
X73534761Y-81311666D02*
X73582380Y-81406904D01*
X73582380Y-81597380D01*
X73534761Y-81692619D01*
X73487142Y-81740238D01*
X73391904Y-81787857D01*
X73106190Y-81787857D01*
X73010952Y-81740238D01*
X72963333Y-81692619D01*
X72915714Y-81597380D01*
X72915714Y-81406904D01*
X72963333Y-81311666D01*
X73058571Y-80549761D02*
X73106190Y-80406904D01*
X73153809Y-80359285D01*
X73249047Y-80311666D01*
X73391904Y-80311666D01*
X73487142Y-80359285D01*
X73534761Y-80406904D01*
X73582380Y-80502142D01*
X73582380Y-80883095D01*
X72582380Y-80883095D01*
X72582380Y-80549761D01*
X72630000Y-80454523D01*
X72677619Y-80406904D01*
X72772857Y-80359285D01*
X72868095Y-80359285D01*
X72963333Y-80406904D01*
X73010952Y-80454523D01*
X73058571Y-80549761D01*
X73058571Y-80883095D01*
X73582380Y-79454523D02*
X73058571Y-79454523D01*
X72963333Y-79502142D01*
X72915714Y-79597380D01*
X72915714Y-79787857D01*
X72963333Y-79883095D01*
X73534761Y-79454523D02*
X73582380Y-79549761D01*
X73582380Y-79787857D01*
X73534761Y-79883095D01*
X73439523Y-79930714D01*
X73344285Y-79930714D01*
X73249047Y-79883095D01*
X73201428Y-79787857D01*
X73201428Y-79549761D01*
X73153809Y-79454523D01*
X72915714Y-78978333D02*
X73582380Y-78978333D01*
X73010952Y-78978333D02*
X72963333Y-78930714D01*
X72915714Y-78835476D01*
X72915714Y-78692619D01*
X72963333Y-78597380D01*
X73058571Y-78549761D01*
X73582380Y-78549761D01*
X73582380Y-78073571D02*
X72582380Y-78073571D01*
X73201428Y-77978333D02*
X73582380Y-77692619D01*
X72915714Y-77692619D02*
X73296666Y-78073571D01*
X75382380Y-82959285D02*
X75382380Y-83530714D01*
X75382380Y-83245000D02*
X74382380Y-83245000D01*
X74525238Y-83340238D01*
X74620476Y-83435476D01*
X74668095Y-83530714D01*
X74382380Y-78378333D02*
X74382380Y-77759285D01*
X74763333Y-78092619D01*
X74763333Y-77949761D01*
X74810952Y-77854523D01*
X74858571Y-77806904D01*
X74953809Y-77759285D01*
X75191904Y-77759285D01*
X75287142Y-77806904D01*
X75334761Y-77854523D01*
X75382380Y-77949761D01*
X75382380Y-78235476D01*
X75334761Y-78330714D01*
X75287142Y-78378333D01*
%TO.C,1MB_CD*%
X69137380Y-82811666D02*
X69137380Y-83383095D01*
X69137380Y-83097380D02*
X68137380Y-83097380D01*
X68280238Y-83192619D01*
X68375476Y-83287857D01*
X68423095Y-83383095D01*
X69137380Y-82383095D02*
X68137380Y-82383095D01*
X68851666Y-82049761D01*
X68137380Y-81716428D01*
X69137380Y-81716428D01*
X68613571Y-80906904D02*
X68661190Y-80764047D01*
X68708809Y-80716428D01*
X68804047Y-80668809D01*
X68946904Y-80668809D01*
X69042142Y-80716428D01*
X69089761Y-80764047D01*
X69137380Y-80859285D01*
X69137380Y-81240238D01*
X68137380Y-81240238D01*
X68137380Y-80906904D01*
X68185000Y-80811666D01*
X68232619Y-80764047D01*
X68327857Y-80716428D01*
X68423095Y-80716428D01*
X68518333Y-80764047D01*
X68565952Y-80811666D01*
X68613571Y-80906904D01*
X68613571Y-81240238D01*
X69232619Y-80478333D02*
X69232619Y-79716428D01*
X69042142Y-78906904D02*
X69089761Y-78954523D01*
X69137380Y-79097380D01*
X69137380Y-79192619D01*
X69089761Y-79335476D01*
X68994523Y-79430714D01*
X68899285Y-79478333D01*
X68708809Y-79525952D01*
X68565952Y-79525952D01*
X68375476Y-79478333D01*
X68280238Y-79430714D01*
X68185000Y-79335476D01*
X68137380Y-79192619D01*
X68137380Y-79097380D01*
X68185000Y-78954523D01*
X68232619Y-78906904D01*
X69137380Y-78478333D02*
X68137380Y-78478333D01*
X68137380Y-78240238D01*
X68185000Y-78097380D01*
X68280238Y-78002142D01*
X68375476Y-77954523D01*
X68565952Y-77906904D01*
X68708809Y-77906904D01*
X68899285Y-77954523D01*
X68994523Y-78002142D01*
X69089761Y-78097380D01*
X69137380Y-78240238D01*
X69137380Y-78478333D01*
X69937380Y-78378333D02*
X69937380Y-77759285D01*
X70318333Y-78092619D01*
X70318333Y-77949761D01*
X70365952Y-77854523D01*
X70413571Y-77806904D01*
X70508809Y-77759285D01*
X70746904Y-77759285D01*
X70842142Y-77806904D01*
X70889761Y-77854523D01*
X70937380Y-77949761D01*
X70937380Y-78235476D01*
X70889761Y-78330714D01*
X70842142Y-78378333D01*
X70937380Y-82959285D02*
X70937380Y-83530714D01*
X70937380Y-83245000D02*
X69937380Y-83245000D01*
X70080238Y-83340238D01*
X70175476Y-83435476D01*
X70223095Y-83530714D01*
%TO.C,U3*%
X60412380Y-96011904D02*
X61221904Y-96011904D01*
X61317142Y-95964285D01*
X61364761Y-95916666D01*
X61412380Y-95821428D01*
X61412380Y-95630952D01*
X61364761Y-95535714D01*
X61317142Y-95488095D01*
X61221904Y-95440476D01*
X60412380Y-95440476D01*
X60412380Y-95059523D02*
X60412380Y-94440476D01*
X60793333Y-94773809D01*
X60793333Y-94630952D01*
X60840952Y-94535714D01*
X60888571Y-94488095D01*
X60983809Y-94440476D01*
X61221904Y-94440476D01*
X61317142Y-94488095D01*
X61364761Y-94535714D01*
X61412380Y-94630952D01*
X61412380Y-94916666D01*
X61364761Y-95011904D01*
X61317142Y-95059523D01*
%TD*%
M02*
