%TF.GenerationSoftware,KiCad,Pcbnew,5.99.0+really5.1.10+dfsg1-1*%
%TF.CreationDate,2022-01-09T16:24:14+01:00*%
%TF.ProjectId,ram_ps1_2121,72616d5f-7073-4315-9f32-3132312e6b69,rev?*%
%TF.SameCoordinates,Original*%
%TF.FileFunction,Legend,Bot*%
%TF.FilePolarity,Positive*%
%FSLAX46Y46*%
G04 Gerber Fmt 4.6, Leading zero omitted, Abs format (unit mm)*
G04 Created by KiCad (PCBNEW 5.99.0+really5.1.10+dfsg1-1) date 2022-01-09 16:24:14*
%MOMM*%
%LPD*%
G01*
G04 APERTURE LIST*
%ADD10C,0.100000*%
%ADD11C,0.150000*%
%ADD12C,0.300000*%
%ADD13C,0.400000*%
G04 APERTURE END LIST*
D10*
D11*
X177002200Y-166007200D02*
X177002200Y-198007200D01*
X285002200Y-198007200D01*
X285002200Y-166007200D01*
X177002200Y-166007200D01*
D10*
D11*
X10000000Y-10000000D02*
X10000000Y-200007200D01*
X287002200Y-200007200D01*
X287002200Y-10000000D01*
X10000000Y-10000000D01*
D10*
D11*
X12000000Y-12000000D02*
X12000000Y-198007200D01*
X285002200Y-198007200D01*
X285002200Y-12000000D01*
X12000000Y-12000000D01*
D10*
D11*
X60000000Y-12000000D02*
X60000000Y-10000000D01*
D10*
D11*
X110000000Y-12000000D02*
X110000000Y-10000000D01*
D10*
D11*
X160000000Y-12000000D02*
X160000000Y-10000000D01*
D10*
D11*
X210000000Y-12000000D02*
X210000000Y-10000000D01*
D10*
D11*
X260000000Y-12000000D02*
X260000000Y-10000000D01*
D10*
D11*
X36065476Y-11588095D02*
X35322619Y-11588095D01*
X35694047Y-11588095D02*
X35694047Y-10288095D01*
X35570238Y-10473809D01*
X35446428Y-10597619D01*
X35322619Y-10659523D01*
D10*
D11*
X85322619Y-10411904D02*
X85384523Y-10350000D01*
X85508333Y-10288095D01*
X85817857Y-10288095D01*
X85941666Y-10350000D01*
X86003571Y-10411904D01*
X86065476Y-10535714D01*
X86065476Y-10659523D01*
X86003571Y-10845238D01*
X85260714Y-11588095D01*
X86065476Y-11588095D01*
D10*
D11*
X135260714Y-10288095D02*
X136065476Y-10288095D01*
X135632142Y-10783333D01*
X135817857Y-10783333D01*
X135941666Y-10845238D01*
X136003571Y-10907142D01*
X136065476Y-11030952D01*
X136065476Y-11340476D01*
X136003571Y-11464285D01*
X135941666Y-11526190D01*
X135817857Y-11588095D01*
X135446428Y-11588095D01*
X135322619Y-11526190D01*
X135260714Y-11464285D01*
D10*
D11*
X185941666Y-10721428D02*
X185941666Y-11588095D01*
X185632142Y-10226190D02*
X185322619Y-11154761D01*
X186127380Y-11154761D01*
D10*
D11*
X236003571Y-10288095D02*
X235384523Y-10288095D01*
X235322619Y-10907142D01*
X235384523Y-10845238D01*
X235508333Y-10783333D01*
X235817857Y-10783333D01*
X235941666Y-10845238D01*
X236003571Y-10907142D01*
X236065476Y-11030952D01*
X236065476Y-11340476D01*
X236003571Y-11464285D01*
X235941666Y-11526190D01*
X235817857Y-11588095D01*
X235508333Y-11588095D01*
X235384523Y-11526190D01*
X235322619Y-11464285D01*
D10*
D11*
X285941666Y-10288095D02*
X285694047Y-10288095D01*
X285570238Y-10350000D01*
X285508333Y-10411904D01*
X285384523Y-10597619D01*
X285322619Y-10845238D01*
X285322619Y-11340476D01*
X285384523Y-11464285D01*
X285446428Y-11526190D01*
X285570238Y-11588095D01*
X285817857Y-11588095D01*
X285941666Y-11526190D01*
X286003571Y-11464285D01*
X286065476Y-11340476D01*
X286065476Y-11030952D01*
X286003571Y-10907142D01*
X285941666Y-10845238D01*
X285817857Y-10783333D01*
X285570238Y-10783333D01*
X285446428Y-10845238D01*
X285384523Y-10907142D01*
X285322619Y-11030952D01*
D10*
D11*
X60000000Y-198007200D02*
X60000000Y-200007200D01*
D10*
D11*
X110000000Y-198007200D02*
X110000000Y-200007200D01*
D10*
D11*
X160000000Y-198007200D02*
X160000000Y-200007200D01*
D10*
D11*
X210000000Y-198007200D02*
X210000000Y-200007200D01*
D10*
D11*
X260000000Y-198007200D02*
X260000000Y-200007200D01*
D10*
D11*
X36065476Y-199595295D02*
X35322619Y-199595295D01*
X35694047Y-199595295D02*
X35694047Y-198295295D01*
X35570238Y-198481009D01*
X35446428Y-198604819D01*
X35322619Y-198666723D01*
D10*
D11*
X85322619Y-198419104D02*
X85384523Y-198357200D01*
X85508333Y-198295295D01*
X85817857Y-198295295D01*
X85941666Y-198357200D01*
X86003571Y-198419104D01*
X86065476Y-198542914D01*
X86065476Y-198666723D01*
X86003571Y-198852438D01*
X85260714Y-199595295D01*
X86065476Y-199595295D01*
D10*
D11*
X135260714Y-198295295D02*
X136065476Y-198295295D01*
X135632142Y-198790533D01*
X135817857Y-198790533D01*
X135941666Y-198852438D01*
X136003571Y-198914342D01*
X136065476Y-199038152D01*
X136065476Y-199347676D01*
X136003571Y-199471485D01*
X135941666Y-199533390D01*
X135817857Y-199595295D01*
X135446428Y-199595295D01*
X135322619Y-199533390D01*
X135260714Y-199471485D01*
D10*
D11*
X185941666Y-198728628D02*
X185941666Y-199595295D01*
X185632142Y-198233390D02*
X185322619Y-199161961D01*
X186127380Y-199161961D01*
D10*
D11*
X236003571Y-198295295D02*
X235384523Y-198295295D01*
X235322619Y-198914342D01*
X235384523Y-198852438D01*
X235508333Y-198790533D01*
X235817857Y-198790533D01*
X235941666Y-198852438D01*
X236003571Y-198914342D01*
X236065476Y-199038152D01*
X236065476Y-199347676D01*
X236003571Y-199471485D01*
X235941666Y-199533390D01*
X235817857Y-199595295D01*
X235508333Y-199595295D01*
X235384523Y-199533390D01*
X235322619Y-199471485D01*
D10*
D11*
X285941666Y-198295295D02*
X285694047Y-198295295D01*
X285570238Y-198357200D01*
X285508333Y-198419104D01*
X285384523Y-198604819D01*
X285322619Y-198852438D01*
X285322619Y-199347676D01*
X285384523Y-199471485D01*
X285446428Y-199533390D01*
X285570238Y-199595295D01*
X285817857Y-199595295D01*
X285941666Y-199533390D01*
X286003571Y-199471485D01*
X286065476Y-199347676D01*
X286065476Y-199038152D01*
X286003571Y-198914342D01*
X285941666Y-198852438D01*
X285817857Y-198790533D01*
X285570238Y-198790533D01*
X285446428Y-198852438D01*
X285384523Y-198914342D01*
X285322619Y-199038152D01*
D10*
D11*
X10000000Y-60000000D02*
X12000000Y-60000000D01*
D10*
D11*
X10000000Y-110000000D02*
X12000000Y-110000000D01*
D10*
D11*
X10000000Y-160000000D02*
X12000000Y-160000000D01*
D10*
D11*
X10690476Y-35216666D02*
X11309523Y-35216666D01*
X10566666Y-35588095D02*
X11000000Y-34288095D01*
X11433333Y-35588095D01*
D10*
D11*
X11092857Y-84907142D02*
X11278571Y-84969047D01*
X11340476Y-85030952D01*
X11402380Y-85154761D01*
X11402380Y-85340476D01*
X11340476Y-85464285D01*
X11278571Y-85526190D01*
X11154761Y-85588095D01*
X10659523Y-85588095D01*
X10659523Y-84288095D01*
X11092857Y-84288095D01*
X11216666Y-84350000D01*
X11278571Y-84411904D01*
X11340476Y-84535714D01*
X11340476Y-84659523D01*
X11278571Y-84783333D01*
X11216666Y-84845238D01*
X11092857Y-84907142D01*
X10659523Y-84907142D01*
D10*
D11*
X11402380Y-135464285D02*
X11340476Y-135526190D01*
X11154761Y-135588095D01*
X11030952Y-135588095D01*
X10845238Y-135526190D01*
X10721428Y-135402380D01*
X10659523Y-135278571D01*
X10597619Y-135030952D01*
X10597619Y-134845238D01*
X10659523Y-134597619D01*
X10721428Y-134473809D01*
X10845238Y-134350000D01*
X11030952Y-134288095D01*
X11154761Y-134288095D01*
X11340476Y-134350000D01*
X11402380Y-134411904D01*
D10*
D11*
X10659523Y-185588095D02*
X10659523Y-184288095D01*
X10969047Y-184288095D01*
X11154761Y-184350000D01*
X11278571Y-184473809D01*
X11340476Y-184597619D01*
X11402380Y-184845238D01*
X11402380Y-185030952D01*
X11340476Y-185278571D01*
X11278571Y-185402380D01*
X11154761Y-185526190D01*
X10969047Y-185588095D01*
X10659523Y-185588095D01*
D10*
D11*
X287002200Y-60000000D02*
X285002200Y-60000000D01*
D10*
D11*
X287002200Y-110000000D02*
X285002200Y-110000000D01*
D10*
D11*
X287002200Y-160000000D02*
X285002200Y-160000000D01*
D10*
D11*
X285692676Y-35216666D02*
X286311723Y-35216666D01*
X285568866Y-35588095D02*
X286002200Y-34288095D01*
X286435533Y-35588095D01*
D10*
D11*
X286095057Y-84907142D02*
X286280771Y-84969047D01*
X286342676Y-85030952D01*
X286404580Y-85154761D01*
X286404580Y-85340476D01*
X286342676Y-85464285D01*
X286280771Y-85526190D01*
X286156961Y-85588095D01*
X285661723Y-85588095D01*
X285661723Y-84288095D01*
X286095057Y-84288095D01*
X286218866Y-84350000D01*
X286280771Y-84411904D01*
X286342676Y-84535714D01*
X286342676Y-84659523D01*
X286280771Y-84783333D01*
X286218866Y-84845238D01*
X286095057Y-84907142D01*
X285661723Y-84907142D01*
D10*
D11*
X286404580Y-135464285D02*
X286342676Y-135526190D01*
X286156961Y-135588095D01*
X286033152Y-135588095D01*
X285847438Y-135526190D01*
X285723628Y-135402380D01*
X285661723Y-135278571D01*
X285599819Y-135030952D01*
X285599819Y-134845238D01*
X285661723Y-134597619D01*
X285723628Y-134473809D01*
X285847438Y-134350000D01*
X286033152Y-134288095D01*
X286156961Y-134288095D01*
X286342676Y-134350000D01*
X286404580Y-134411904D01*
D10*
D11*
X285661723Y-185588095D02*
X285661723Y-184288095D01*
X285971247Y-184288095D01*
X286156961Y-184350000D01*
X286280771Y-184473809D01*
X286342676Y-184597619D01*
X286404580Y-184845238D01*
X286404580Y-185030952D01*
X286342676Y-185278571D01*
X286280771Y-185402380D01*
X286156961Y-185526190D01*
X285971247Y-185588095D01*
X285661723Y-185588095D01*
D10*
D11*
X200434342Y-193785771D02*
X200434342Y-192285771D01*
X200791485Y-192285771D01*
X201005771Y-192357200D01*
X201148628Y-192500057D01*
X201220057Y-192642914D01*
X201291485Y-192928628D01*
X201291485Y-193142914D01*
X201220057Y-193428628D01*
X201148628Y-193571485D01*
X201005771Y-193714342D01*
X200791485Y-193785771D01*
X200434342Y-193785771D01*
X202577200Y-193785771D02*
X202577200Y-193000057D01*
X202505771Y-192857200D01*
X202362914Y-192785771D01*
X202077200Y-192785771D01*
X201934342Y-192857200D01*
X202577200Y-193714342D02*
X202434342Y-193785771D01*
X202077200Y-193785771D01*
X201934342Y-193714342D01*
X201862914Y-193571485D01*
X201862914Y-193428628D01*
X201934342Y-193285771D01*
X202077200Y-193214342D01*
X202434342Y-193214342D01*
X202577200Y-193142914D01*
X203077200Y-192785771D02*
X203648628Y-192785771D01*
X203291485Y-192285771D02*
X203291485Y-193571485D01*
X203362914Y-193714342D01*
X203505771Y-193785771D01*
X203648628Y-193785771D01*
X204720057Y-193714342D02*
X204577200Y-193785771D01*
X204291485Y-193785771D01*
X204148628Y-193714342D01*
X204077200Y-193571485D01*
X204077200Y-193000057D01*
X204148628Y-192857200D01*
X204291485Y-192785771D01*
X204577200Y-192785771D01*
X204720057Y-192857200D01*
X204791485Y-193000057D01*
X204791485Y-193142914D01*
X204077200Y-193285771D01*
X205434342Y-193642914D02*
X205505771Y-193714342D01*
X205434342Y-193785771D01*
X205362914Y-193714342D01*
X205434342Y-193642914D01*
X205434342Y-193785771D01*
X205434342Y-192857200D02*
X205505771Y-192928628D01*
X205434342Y-193000057D01*
X205362914Y-192928628D01*
X205434342Y-192857200D01*
X205434342Y-193000057D01*
D10*
D11*
X177002200Y-194507200D02*
X285002200Y-194507200D01*
D10*
D11*
X178434342Y-196585771D02*
X178434342Y-195085771D01*
X179291485Y-196585771D02*
X178648628Y-195728628D01*
X179291485Y-195085771D02*
X178434342Y-195942914D01*
X179934342Y-196585771D02*
X179934342Y-195585771D01*
X179934342Y-195085771D02*
X179862914Y-195157200D01*
X179934342Y-195228628D01*
X180005771Y-195157200D01*
X179934342Y-195085771D01*
X179934342Y-195228628D01*
X181505771Y-196442914D02*
X181434342Y-196514342D01*
X181220057Y-196585771D01*
X181077200Y-196585771D01*
X180862914Y-196514342D01*
X180720057Y-196371485D01*
X180648628Y-196228628D01*
X180577200Y-195942914D01*
X180577200Y-195728628D01*
X180648628Y-195442914D01*
X180720057Y-195300057D01*
X180862914Y-195157200D01*
X181077200Y-195085771D01*
X181220057Y-195085771D01*
X181434342Y-195157200D01*
X181505771Y-195228628D01*
X182791485Y-196585771D02*
X182791485Y-195800057D01*
X182720057Y-195657200D01*
X182577200Y-195585771D01*
X182291485Y-195585771D01*
X182148628Y-195657200D01*
X182791485Y-196514342D02*
X182648628Y-196585771D01*
X182291485Y-196585771D01*
X182148628Y-196514342D01*
X182077200Y-196371485D01*
X182077200Y-196228628D01*
X182148628Y-196085771D01*
X182291485Y-196014342D01*
X182648628Y-196014342D01*
X182791485Y-195942914D01*
X184148628Y-196585771D02*
X184148628Y-195085771D01*
X184148628Y-196514342D02*
X184005771Y-196585771D01*
X183720057Y-196585771D01*
X183577200Y-196514342D01*
X183505771Y-196442914D01*
X183434342Y-196300057D01*
X183434342Y-195871485D01*
X183505771Y-195728628D01*
X183577200Y-195657200D01*
X183720057Y-195585771D01*
X184005771Y-195585771D01*
X184148628Y-195657200D01*
X186005771Y-195800057D02*
X186505771Y-195800057D01*
X186720057Y-196585771D02*
X186005771Y-196585771D01*
X186005771Y-195085771D01*
X186720057Y-195085771D01*
X187362914Y-196442914D02*
X187434342Y-196514342D01*
X187362914Y-196585771D01*
X187291485Y-196514342D01*
X187362914Y-196442914D01*
X187362914Y-196585771D01*
X188077200Y-196585771D02*
X188077200Y-195085771D01*
X188434342Y-195085771D01*
X188648628Y-195157200D01*
X188791485Y-195300057D01*
X188862914Y-195442914D01*
X188934342Y-195728628D01*
X188934342Y-195942914D01*
X188862914Y-196228628D01*
X188791485Y-196371485D01*
X188648628Y-196514342D01*
X188434342Y-196585771D01*
X188077200Y-196585771D01*
X189577200Y-196442914D02*
X189648628Y-196514342D01*
X189577200Y-196585771D01*
X189505771Y-196514342D01*
X189577200Y-196442914D01*
X189577200Y-196585771D01*
X190220057Y-196157200D02*
X190934342Y-196157200D01*
X190077200Y-196585771D02*
X190577200Y-195085771D01*
X191077200Y-196585771D01*
X191577200Y-196442914D02*
X191648628Y-196514342D01*
X191577200Y-196585771D01*
X191505771Y-196514342D01*
X191577200Y-196442914D01*
X191577200Y-196585771D01*
X194577200Y-196585771D02*
X194577200Y-195085771D01*
X194720057Y-196014342D02*
X195148628Y-196585771D01*
X195148628Y-195585771D02*
X194577200Y-196157200D01*
X195791485Y-196585771D02*
X195791485Y-195585771D01*
X195791485Y-195085771D02*
X195720057Y-195157200D01*
X195791485Y-195228628D01*
X195862914Y-195157200D01*
X195791485Y-195085771D01*
X195791485Y-195228628D01*
X197148628Y-196514342D02*
X197005771Y-196585771D01*
X196720057Y-196585771D01*
X196577200Y-196514342D01*
X196505771Y-196442914D01*
X196434342Y-196300057D01*
X196434342Y-195871485D01*
X196505771Y-195728628D01*
X196577200Y-195657200D01*
X196720057Y-195585771D01*
X197005771Y-195585771D01*
X197148628Y-195657200D01*
X198434342Y-196585771D02*
X198434342Y-195800057D01*
X198362914Y-195657200D01*
X198220057Y-195585771D01*
X197934342Y-195585771D01*
X197791485Y-195657200D01*
X198434342Y-196514342D02*
X198291485Y-196585771D01*
X197934342Y-196585771D01*
X197791485Y-196514342D01*
X197720057Y-196371485D01*
X197720057Y-196228628D01*
X197791485Y-196085771D01*
X197934342Y-196014342D01*
X198291485Y-196014342D01*
X198434342Y-195942914D01*
X199791485Y-196585771D02*
X199791485Y-195085771D01*
X199791485Y-196514342D02*
X199648628Y-196585771D01*
X199362914Y-196585771D01*
X199220057Y-196514342D01*
X199148628Y-196442914D01*
X199077200Y-196300057D01*
X199077200Y-195871485D01*
X199148628Y-195728628D01*
X199220057Y-195657200D01*
X199362914Y-195585771D01*
X199648628Y-195585771D01*
X199791485Y-195657200D01*
X202362914Y-195085771D02*
X201648628Y-195085771D01*
X201577200Y-195800057D01*
X201648628Y-195728628D01*
X201791485Y-195657200D01*
X202148628Y-195657200D01*
X202291485Y-195728628D01*
X202362914Y-195800057D01*
X202434342Y-195942914D01*
X202434342Y-196300057D01*
X202362914Y-196442914D01*
X202291485Y-196514342D01*
X202148628Y-196585771D01*
X201791485Y-196585771D01*
X201648628Y-196514342D01*
X201577200Y-196442914D01*
X203077200Y-196442914D02*
X203148628Y-196514342D01*
X203077200Y-196585771D01*
X203005771Y-196514342D01*
X203077200Y-196442914D01*
X203077200Y-196585771D01*
X203862914Y-196585771D02*
X204148628Y-196585771D01*
X204291485Y-196514342D01*
X204362914Y-196442914D01*
X204505771Y-196228628D01*
X204577200Y-195942914D01*
X204577200Y-195371485D01*
X204505771Y-195228628D01*
X204434342Y-195157200D01*
X204291485Y-195085771D01*
X204005771Y-195085771D01*
X203862914Y-195157200D01*
X203791485Y-195228628D01*
X203720057Y-195371485D01*
X203720057Y-195728628D01*
X203791485Y-195871485D01*
X203862914Y-195942914D01*
X204005771Y-196014342D01*
X204291485Y-196014342D01*
X204434342Y-195942914D01*
X204505771Y-195871485D01*
X204577200Y-195728628D01*
X205291485Y-196585771D02*
X205577200Y-196585771D01*
X205720057Y-196514342D01*
X205791485Y-196442914D01*
X205934342Y-196228628D01*
X206005771Y-195942914D01*
X206005771Y-195371485D01*
X205934342Y-195228628D01*
X205862914Y-195157200D01*
X205720057Y-195085771D01*
X205434342Y-195085771D01*
X205291485Y-195157200D01*
X205220057Y-195228628D01*
X205148628Y-195371485D01*
X205148628Y-195728628D01*
X205220057Y-195871485D01*
X205291485Y-195942914D01*
X205434342Y-196014342D01*
X205720057Y-196014342D01*
X205862914Y-195942914D01*
X205934342Y-195871485D01*
X206005771Y-195728628D01*
X206648628Y-196442914D02*
X206720057Y-196514342D01*
X206648628Y-196585771D01*
X206577200Y-196514342D01*
X206648628Y-196442914D01*
X206648628Y-196585771D01*
X207648628Y-195085771D02*
X207791485Y-195085771D01*
X207934342Y-195157200D01*
X208005771Y-195228628D01*
X208077200Y-195371485D01*
X208148628Y-195657200D01*
X208148628Y-196014342D01*
X208077200Y-196300057D01*
X208005771Y-196442914D01*
X207934342Y-196514342D01*
X207791485Y-196585771D01*
X207648628Y-196585771D01*
X207505771Y-196514342D01*
X207434342Y-196442914D01*
X207362914Y-196300057D01*
X207291485Y-196014342D01*
X207291485Y-195657200D01*
X207362914Y-195371485D01*
X207434342Y-195228628D01*
X207505771Y-195157200D01*
X207648628Y-195085771D01*
X208791485Y-196014342D02*
X209934342Y-196014342D01*
X209362914Y-196585771D02*
X209362914Y-195442914D01*
X210648628Y-196585771D02*
X210648628Y-195585771D01*
X210648628Y-195871485D02*
X210720057Y-195728628D01*
X210791485Y-195657200D01*
X210934342Y-195585771D01*
X211077200Y-195585771D01*
X212148628Y-196514342D02*
X212005771Y-196585771D01*
X211720057Y-196585771D01*
X211577200Y-196514342D01*
X211505771Y-196371485D01*
X211505771Y-195800057D01*
X211577200Y-195657200D01*
X211720057Y-195585771D01*
X212005771Y-195585771D01*
X212148628Y-195657200D01*
X212220057Y-195800057D01*
X212220057Y-195942914D01*
X211505771Y-196085771D01*
X213505771Y-196585771D02*
X213505771Y-195800057D01*
X213434342Y-195657200D01*
X213291485Y-195585771D01*
X213005771Y-195585771D01*
X212862914Y-195657200D01*
X213505771Y-196514342D02*
X213362914Y-196585771D01*
X213005771Y-196585771D01*
X212862914Y-196514342D01*
X212791485Y-196371485D01*
X212791485Y-196228628D01*
X212862914Y-196085771D01*
X213005771Y-196014342D01*
X213362914Y-196014342D01*
X213505771Y-195942914D01*
X214434342Y-196585771D02*
X214291485Y-196514342D01*
X214220057Y-196371485D01*
X214220057Y-195085771D01*
X215220057Y-196585771D02*
X215077200Y-196514342D01*
X215005771Y-196371485D01*
X215005771Y-195085771D01*
X215648628Y-195585771D02*
X216005771Y-196585771D01*
X216362914Y-195585771D02*
X216005771Y-196585771D01*
X215862914Y-196942914D01*
X215791485Y-197014342D01*
X215648628Y-197085771D01*
X217648628Y-195085771D02*
X216934342Y-195085771D01*
X216862914Y-195800057D01*
X216934342Y-195728628D01*
X217077200Y-195657200D01*
X217434342Y-195657200D01*
X217577200Y-195728628D01*
X217648628Y-195800057D01*
X217720057Y-195942914D01*
X217720057Y-196300057D01*
X217648628Y-196442914D01*
X217577200Y-196514342D01*
X217434342Y-196585771D01*
X217077200Y-196585771D01*
X216934342Y-196514342D01*
X216862914Y-196442914D01*
X218362914Y-196442914D02*
X218434342Y-196514342D01*
X218362914Y-196585771D01*
X218291485Y-196514342D01*
X218362914Y-196442914D01*
X218362914Y-196585771D01*
X219862914Y-196585771D02*
X219005771Y-196585771D01*
X219434342Y-196585771D02*
X219434342Y-195085771D01*
X219291485Y-195300057D01*
X219148628Y-195442914D01*
X219005771Y-195514342D01*
X220505771Y-196442914D02*
X220577200Y-196514342D01*
X220505771Y-196585771D01*
X220434342Y-196514342D01*
X220505771Y-196442914D01*
X220505771Y-196585771D01*
X222005771Y-196585771D02*
X221148628Y-196585771D01*
X221577200Y-196585771D02*
X221577200Y-195085771D01*
X221434342Y-195300057D01*
X221291485Y-195442914D01*
X221148628Y-195514342D01*
X222934342Y-195085771D02*
X223077200Y-195085771D01*
X223220057Y-195157200D01*
X223291485Y-195228628D01*
X223362914Y-195371485D01*
X223434342Y-195657200D01*
X223434342Y-196014342D01*
X223362914Y-196300057D01*
X223291485Y-196442914D01*
X223220057Y-196514342D01*
X223077200Y-196585771D01*
X222934342Y-196585771D01*
X222791485Y-196514342D01*
X222720057Y-196442914D01*
X222648628Y-196300057D01*
X222577200Y-196014342D01*
X222577200Y-195657200D01*
X222648628Y-195371485D01*
X222720057Y-195228628D01*
X222791485Y-195157200D01*
X222934342Y-195085771D01*
X224077200Y-196014342D02*
X225220057Y-196014342D01*
X224648628Y-196585771D02*
X224648628Y-195442914D01*
X226577200Y-196585771D02*
X226577200Y-195085771D01*
X226577200Y-196514342D02*
X226434342Y-196585771D01*
X226148628Y-196585771D01*
X226005771Y-196514342D01*
X225934342Y-196442914D01*
X225862914Y-196300057D01*
X225862914Y-195871485D01*
X225934342Y-195728628D01*
X226005771Y-195657200D01*
X226148628Y-195585771D01*
X226434342Y-195585771D01*
X226577200Y-195657200D01*
X227077200Y-195585771D02*
X227648628Y-195585771D01*
X227291485Y-196585771D02*
X227291485Y-195300057D01*
X227362914Y-195157200D01*
X227505771Y-195085771D01*
X227648628Y-195085771D01*
X228077200Y-196514342D02*
X228220057Y-196585771D01*
X228505771Y-196585771D01*
X228648628Y-196514342D01*
X228720057Y-196371485D01*
X228720057Y-196300057D01*
X228648628Y-196157200D01*
X228505771Y-196085771D01*
X228291485Y-196085771D01*
X228148628Y-196014342D01*
X228077200Y-195871485D01*
X228077200Y-195800057D01*
X228148628Y-195657200D01*
X228291485Y-195585771D01*
X228505771Y-195585771D01*
X228648628Y-195657200D01*
X230005771Y-195585771D02*
X230005771Y-196800057D01*
X229934342Y-196942914D01*
X229862914Y-197014342D01*
X229720057Y-197085771D01*
X229505771Y-197085771D01*
X229362914Y-197014342D01*
X230005771Y-196514342D02*
X229862914Y-196585771D01*
X229577200Y-196585771D01*
X229434342Y-196514342D01*
X229362914Y-196442914D01*
X229291485Y-196300057D01*
X229291485Y-195871485D01*
X229362914Y-195728628D01*
X229434342Y-195657200D01*
X229577200Y-195585771D01*
X229862914Y-195585771D01*
X230005771Y-195657200D01*
X231505771Y-196585771D02*
X230648628Y-196585771D01*
X231077200Y-196585771D02*
X231077200Y-195085771D01*
X230934342Y-195300057D01*
X230791485Y-195442914D01*
X230648628Y-195514342D01*
X232148628Y-196014342D02*
X233291485Y-196014342D01*
X234791485Y-196585771D02*
X233934342Y-196585771D01*
X234362914Y-196585771D02*
X234362914Y-195085771D01*
X234220057Y-195300057D01*
X234077200Y-195442914D01*
X233934342Y-195514342D01*
D10*
D11*
X177002200Y-191507200D02*
X285002200Y-191507200D01*
D10*
D12*
X264411485Y-193785771D02*
X263911485Y-193071485D01*
X263554342Y-193785771D02*
X263554342Y-192285771D01*
X264125771Y-192285771D01*
X264268628Y-192357200D01*
X264340057Y-192428628D01*
X264411485Y-192571485D01*
X264411485Y-192785771D01*
X264340057Y-192928628D01*
X264268628Y-193000057D01*
X264125771Y-193071485D01*
X263554342Y-193071485D01*
X265625771Y-193714342D02*
X265482914Y-193785771D01*
X265197200Y-193785771D01*
X265054342Y-193714342D01*
X264982914Y-193571485D01*
X264982914Y-193000057D01*
X265054342Y-192857200D01*
X265197200Y-192785771D01*
X265482914Y-192785771D01*
X265625771Y-192857200D01*
X265697200Y-193000057D01*
X265697200Y-193142914D01*
X264982914Y-193285771D01*
X266197200Y-192785771D02*
X266554342Y-193785771D01*
X266911485Y-192785771D01*
X267482914Y-193642914D02*
X267554342Y-193714342D01*
X267482914Y-193785771D01*
X267411485Y-193714342D01*
X267482914Y-193642914D01*
X267482914Y-193785771D01*
X267482914Y-192857200D02*
X267554342Y-192928628D01*
X267482914Y-193000057D01*
X267411485Y-192928628D01*
X267482914Y-192857200D01*
X267482914Y-193000057D01*
D10*
D11*
X178362914Y-193714342D02*
X178577200Y-193785771D01*
X178934342Y-193785771D01*
X179077200Y-193714342D01*
X179148628Y-193642914D01*
X179220057Y-193500057D01*
X179220057Y-193357200D01*
X179148628Y-193214342D01*
X179077200Y-193142914D01*
X178934342Y-193071485D01*
X178648628Y-193000057D01*
X178505771Y-192928628D01*
X178434342Y-192857200D01*
X178362914Y-192714342D01*
X178362914Y-192571485D01*
X178434342Y-192428628D01*
X178505771Y-192357200D01*
X178648628Y-192285771D01*
X179005771Y-192285771D01*
X179220057Y-192357200D01*
X179862914Y-193785771D02*
X179862914Y-192785771D01*
X179862914Y-192285771D02*
X179791485Y-192357200D01*
X179862914Y-192428628D01*
X179934342Y-192357200D01*
X179862914Y-192285771D01*
X179862914Y-192428628D01*
X180434342Y-192785771D02*
X181220057Y-192785771D01*
X180434342Y-193785771D01*
X181220057Y-193785771D01*
X182362914Y-193714342D02*
X182220057Y-193785771D01*
X181934342Y-193785771D01*
X181791485Y-193714342D01*
X181720057Y-193571485D01*
X181720057Y-193000057D01*
X181791485Y-192857200D01*
X181934342Y-192785771D01*
X182220057Y-192785771D01*
X182362914Y-192857200D01*
X182434342Y-193000057D01*
X182434342Y-193142914D01*
X181720057Y-193285771D01*
X183077200Y-193642914D02*
X183148628Y-193714342D01*
X183077200Y-193785771D01*
X183005771Y-193714342D01*
X183077200Y-193642914D01*
X183077200Y-193785771D01*
X183077200Y-192857200D02*
X183148628Y-192928628D01*
X183077200Y-193000057D01*
X183005771Y-192928628D01*
X183077200Y-192857200D01*
X183077200Y-193000057D01*
X184862914Y-193357200D02*
X185577200Y-193357200D01*
X184720057Y-193785771D02*
X185220057Y-192285771D01*
X185720057Y-193785771D01*
X186862914Y-192785771D02*
X186862914Y-193785771D01*
X186505771Y-192214342D02*
X186148628Y-193285771D01*
X187077200Y-193285771D01*
D10*
D11*
X263434342Y-196585771D02*
X263434342Y-195085771D01*
X264791485Y-196585771D02*
X264791485Y-195085771D01*
X264791485Y-196514342D02*
X264648628Y-196585771D01*
X264362914Y-196585771D01*
X264220057Y-196514342D01*
X264148628Y-196442914D01*
X264077200Y-196300057D01*
X264077200Y-195871485D01*
X264148628Y-195728628D01*
X264220057Y-195657200D01*
X264362914Y-195585771D01*
X264648628Y-195585771D01*
X264791485Y-195657200D01*
X265505771Y-196442914D02*
X265577200Y-196514342D01*
X265505771Y-196585771D01*
X265434342Y-196514342D01*
X265505771Y-196442914D01*
X265505771Y-196585771D01*
X265505771Y-195657200D02*
X265577200Y-195728628D01*
X265505771Y-195800057D01*
X265434342Y-195728628D01*
X265505771Y-195657200D01*
X265505771Y-195800057D01*
X268148628Y-196585771D02*
X267291485Y-196585771D01*
X267720057Y-196585771D02*
X267720057Y-195085771D01*
X267577200Y-195300057D01*
X267434342Y-195442914D01*
X267291485Y-195514342D01*
X269862914Y-195014342D02*
X268577200Y-196942914D01*
X271148628Y-196585771D02*
X270291485Y-196585771D01*
X270720057Y-196585771D02*
X270720057Y-195085771D01*
X270577200Y-195300057D01*
X270434342Y-195442914D01*
X270291485Y-195514342D01*
D10*
D11*
X177002200Y-187507200D02*
X285002200Y-187507200D01*
D10*
D13*
X178714580Y-188211961D02*
X179857438Y-188211961D01*
X179036009Y-190211961D02*
X179286009Y-188211961D01*
X180274104Y-190211961D02*
X180440771Y-188878628D01*
X180524104Y-188211961D02*
X180416961Y-188307200D01*
X180500295Y-188402438D01*
X180607438Y-188307200D01*
X180524104Y-188211961D01*
X180500295Y-188402438D01*
X181107438Y-188878628D02*
X181869342Y-188878628D01*
X181476485Y-188211961D02*
X181262200Y-189926247D01*
X181333628Y-190116723D01*
X181512200Y-190211961D01*
X181702676Y-190211961D01*
X182655057Y-190211961D02*
X182476485Y-190116723D01*
X182405057Y-189926247D01*
X182619342Y-188211961D01*
X184190771Y-190116723D02*
X183988390Y-190211961D01*
X183607438Y-190211961D01*
X183428866Y-190116723D01*
X183357438Y-189926247D01*
X183452676Y-189164342D01*
X183571723Y-188973866D01*
X183774104Y-188878628D01*
X184155057Y-188878628D01*
X184333628Y-188973866D01*
X184405057Y-189164342D01*
X184381247Y-189354819D01*
X183405057Y-189545295D01*
X185155057Y-190021485D02*
X185238390Y-190116723D01*
X185131247Y-190211961D01*
X185047914Y-190116723D01*
X185155057Y-190021485D01*
X185131247Y-190211961D01*
X185286009Y-188973866D02*
X185369342Y-189069104D01*
X185262200Y-189164342D01*
X185178866Y-189069104D01*
X185286009Y-188973866D01*
X185262200Y-189164342D01*
D10*
D11*
X178934342Y-185600057D02*
X178434342Y-185600057D01*
X178434342Y-186385771D02*
X178434342Y-184885771D01*
X179148628Y-184885771D01*
X179720057Y-186385771D02*
X179720057Y-185385771D01*
X179720057Y-184885771D02*
X179648628Y-184957200D01*
X179720057Y-185028628D01*
X179791485Y-184957200D01*
X179720057Y-184885771D01*
X179720057Y-185028628D01*
X180648628Y-186385771D02*
X180505771Y-186314342D01*
X180434342Y-186171485D01*
X180434342Y-184885771D01*
X181791485Y-186314342D02*
X181648628Y-186385771D01*
X181362914Y-186385771D01*
X181220057Y-186314342D01*
X181148628Y-186171485D01*
X181148628Y-185600057D01*
X181220057Y-185457200D01*
X181362914Y-185385771D01*
X181648628Y-185385771D01*
X181791485Y-185457200D01*
X181862914Y-185600057D01*
X181862914Y-185742914D01*
X181148628Y-185885771D01*
X182505771Y-186242914D02*
X182577200Y-186314342D01*
X182505771Y-186385771D01*
X182434342Y-186314342D01*
X182505771Y-186242914D01*
X182505771Y-186385771D01*
X182505771Y-185457200D02*
X182577200Y-185528628D01*
X182505771Y-185600057D01*
X182434342Y-185528628D01*
X182505771Y-185457200D01*
X182505771Y-185600057D01*
X184362914Y-186385771D02*
X184362914Y-185385771D01*
X184362914Y-185671485D02*
X184434342Y-185528628D01*
X184505771Y-185457200D01*
X184648628Y-185385771D01*
X184791485Y-185385771D01*
X185934342Y-186385771D02*
X185934342Y-185600057D01*
X185862914Y-185457200D01*
X185720057Y-185385771D01*
X185434342Y-185385771D01*
X185291485Y-185457200D01*
X185934342Y-186314342D02*
X185791485Y-186385771D01*
X185434342Y-186385771D01*
X185291485Y-186314342D01*
X185220057Y-186171485D01*
X185220057Y-186028628D01*
X185291485Y-185885771D01*
X185434342Y-185814342D01*
X185791485Y-185814342D01*
X185934342Y-185742914D01*
X186648628Y-186385771D02*
X186648628Y-185385771D01*
X186648628Y-185528628D02*
X186720057Y-185457200D01*
X186862914Y-185385771D01*
X187077200Y-185385771D01*
X187220057Y-185457200D01*
X187291485Y-185600057D01*
X187291485Y-186385771D01*
X187291485Y-185600057D02*
X187362914Y-185457200D01*
X187505771Y-185385771D01*
X187720057Y-185385771D01*
X187862914Y-185457200D01*
X187934342Y-185600057D01*
X187934342Y-186385771D01*
X188291485Y-186528628D02*
X189434342Y-186528628D01*
X189791485Y-185385771D02*
X189791485Y-186885771D01*
X189791485Y-185457200D02*
X189934342Y-185385771D01*
X190220057Y-185385771D01*
X190362914Y-185457200D01*
X190434342Y-185528628D01*
X190505771Y-185671485D01*
X190505771Y-186100057D01*
X190434342Y-186242914D01*
X190362914Y-186314342D01*
X190220057Y-186385771D01*
X189934342Y-186385771D01*
X189791485Y-186314342D01*
X191077200Y-186314342D02*
X191220057Y-186385771D01*
X191505771Y-186385771D01*
X191648628Y-186314342D01*
X191720057Y-186171485D01*
X191720057Y-186100057D01*
X191648628Y-185957200D01*
X191505771Y-185885771D01*
X191291485Y-185885771D01*
X191148628Y-185814342D01*
X191077200Y-185671485D01*
X191077200Y-185600057D01*
X191148628Y-185457200D01*
X191291485Y-185385771D01*
X191505771Y-185385771D01*
X191648628Y-185457200D01*
X193148628Y-186385771D02*
X192291485Y-186385771D01*
X192720057Y-186385771D02*
X192720057Y-184885771D01*
X192577200Y-185100057D01*
X192434342Y-185242914D01*
X192291485Y-185314342D01*
X193434342Y-186528628D02*
X194577200Y-186528628D01*
X194862914Y-185028628D02*
X194934342Y-184957200D01*
X195077200Y-184885771D01*
X195434342Y-184885771D01*
X195577200Y-184957200D01*
X195648628Y-185028628D01*
X195720057Y-185171485D01*
X195720057Y-185314342D01*
X195648628Y-185528628D01*
X194791485Y-186385771D01*
X195720057Y-186385771D01*
X197148628Y-186385771D02*
X196291485Y-186385771D01*
X196720057Y-186385771D02*
X196720057Y-184885771D01*
X196577200Y-185100057D01*
X196434342Y-185242914D01*
X196291485Y-185314342D01*
X197720057Y-185028628D02*
X197791485Y-184957200D01*
X197934342Y-184885771D01*
X198291485Y-184885771D01*
X198434342Y-184957200D01*
X198505771Y-185028628D01*
X198577200Y-185171485D01*
X198577200Y-185314342D01*
X198505771Y-185528628D01*
X197648628Y-186385771D01*
X198577200Y-186385771D01*
X200005771Y-186385771D02*
X199148628Y-186385771D01*
X199577200Y-186385771D02*
X199577200Y-184885771D01*
X199434342Y-185100057D01*
X199291485Y-185242914D01*
X199148628Y-185314342D01*
X200648628Y-186242914D02*
X200720057Y-186314342D01*
X200648628Y-186385771D01*
X200577200Y-186314342D01*
X200648628Y-186242914D01*
X200648628Y-186385771D01*
X201362914Y-186385771D02*
X201362914Y-184885771D01*
X201505771Y-185814342D02*
X201934342Y-186385771D01*
X201934342Y-185385771D02*
X201362914Y-185957200D01*
X202577200Y-186385771D02*
X202577200Y-185385771D01*
X202577200Y-184885771D02*
X202505771Y-184957200D01*
X202577200Y-185028628D01*
X202648628Y-184957200D01*
X202577200Y-184885771D01*
X202577200Y-185028628D01*
X203934342Y-186314342D02*
X203791485Y-186385771D01*
X203505771Y-186385771D01*
X203362914Y-186314342D01*
X203291485Y-186242914D01*
X203220057Y-186100057D01*
X203220057Y-185671485D01*
X203291485Y-185528628D01*
X203362914Y-185457200D01*
X203505771Y-185385771D01*
X203791485Y-185385771D01*
X203934342Y-185457200D01*
X205220057Y-186385771D02*
X205220057Y-185600057D01*
X205148628Y-185457200D01*
X205005771Y-185385771D01*
X204720057Y-185385771D01*
X204577200Y-185457200D01*
X205220057Y-186314342D02*
X205077200Y-186385771D01*
X204720057Y-186385771D01*
X204577200Y-186314342D01*
X204505771Y-186171485D01*
X204505771Y-186028628D01*
X204577200Y-185885771D01*
X204720057Y-185814342D01*
X205077200Y-185814342D01*
X205220057Y-185742914D01*
X206577200Y-186385771D02*
X206577200Y-184885771D01*
X206577200Y-186314342D02*
X206434342Y-186385771D01*
X206148628Y-186385771D01*
X206005771Y-186314342D01*
X205934342Y-186242914D01*
X205862914Y-186100057D01*
X205862914Y-185671485D01*
X205934342Y-185528628D01*
X206005771Y-185457200D01*
X206148628Y-185385771D01*
X206434342Y-185385771D01*
X206577200Y-185457200D01*
X206934342Y-186528628D02*
X208077200Y-186528628D01*
X208434342Y-185385771D02*
X208434342Y-186885771D01*
X208434342Y-185457200D02*
X208577200Y-185385771D01*
X208862914Y-185385771D01*
X209005771Y-185457200D01*
X209077200Y-185528628D01*
X209148628Y-185671485D01*
X209148628Y-186100057D01*
X209077200Y-186242914D01*
X209005771Y-186314342D01*
X208862914Y-186385771D01*
X208577200Y-186385771D01*
X208434342Y-186314342D01*
X210434342Y-186314342D02*
X210291485Y-186385771D01*
X210005771Y-186385771D01*
X209862914Y-186314342D01*
X209791485Y-186242914D01*
X209720057Y-186100057D01*
X209720057Y-185671485D01*
X209791485Y-185528628D01*
X209862914Y-185457200D01*
X210005771Y-185385771D01*
X210291485Y-185385771D01*
X210434342Y-185457200D01*
X211077200Y-186385771D02*
X211077200Y-184885771D01*
X211077200Y-185457200D02*
X211220057Y-185385771D01*
X211505771Y-185385771D01*
X211648628Y-185457200D01*
X211720057Y-185528628D01*
X211791485Y-185671485D01*
X211791485Y-186100057D01*
X211720057Y-186242914D01*
X211648628Y-186314342D01*
X211505771Y-186385771D01*
X211220057Y-186385771D01*
X211077200Y-186314342D01*
D10*
D11*
X177002200Y-181507200D02*
X285002200Y-181507200D01*
D10*
D11*
X178362914Y-183614342D02*
X178577200Y-183685771D01*
X178934342Y-183685771D01*
X179077200Y-183614342D01*
X179148628Y-183542914D01*
X179220057Y-183400057D01*
X179220057Y-183257200D01*
X179148628Y-183114342D01*
X179077200Y-183042914D01*
X178934342Y-182971485D01*
X178648628Y-182900057D01*
X178505771Y-182828628D01*
X178434342Y-182757200D01*
X178362914Y-182614342D01*
X178362914Y-182471485D01*
X178434342Y-182328628D01*
X178505771Y-182257200D01*
X178648628Y-182185771D01*
X179005771Y-182185771D01*
X179220057Y-182257200D01*
X179862914Y-183685771D02*
X179862914Y-182185771D01*
X180505771Y-183685771D02*
X180505771Y-182900057D01*
X180434342Y-182757200D01*
X180291485Y-182685771D01*
X180077200Y-182685771D01*
X179934342Y-182757200D01*
X179862914Y-182828628D01*
X181791485Y-183614342D02*
X181648628Y-183685771D01*
X181362914Y-183685771D01*
X181220057Y-183614342D01*
X181148628Y-183471485D01*
X181148628Y-182900057D01*
X181220057Y-182757200D01*
X181362914Y-182685771D01*
X181648628Y-182685771D01*
X181791485Y-182757200D01*
X181862914Y-182900057D01*
X181862914Y-183042914D01*
X181148628Y-183185771D01*
X183077200Y-183614342D02*
X182934342Y-183685771D01*
X182648628Y-183685771D01*
X182505771Y-183614342D01*
X182434342Y-183471485D01*
X182434342Y-182900057D01*
X182505771Y-182757200D01*
X182648628Y-182685771D01*
X182934342Y-182685771D01*
X183077200Y-182757200D01*
X183148628Y-182900057D01*
X183148628Y-183042914D01*
X182434342Y-183185771D01*
X183577200Y-182685771D02*
X184148628Y-182685771D01*
X183791485Y-182185771D02*
X183791485Y-183471485D01*
X183862914Y-183614342D01*
X184005771Y-183685771D01*
X184148628Y-183685771D01*
X184648628Y-183542914D02*
X184720057Y-183614342D01*
X184648628Y-183685771D01*
X184577200Y-183614342D01*
X184648628Y-183542914D01*
X184648628Y-183685771D01*
X184648628Y-182757200D02*
X184720057Y-182828628D01*
X184648628Y-182900057D01*
X184577200Y-182828628D01*
X184648628Y-182757200D01*
X184648628Y-182900057D01*
D10*
D11*
X197002200Y-191507200D02*
X197002200Y-194507200D01*
D10*
D11*
X261002200Y-191507200D02*
X261002200Y-198007200D01*
%TO.C,U1*%
X27773333Y-110819285D02*
X27773333Y-110343095D01*
X27487619Y-110914523D02*
X28487619Y-110581190D01*
X27487619Y-110247857D01*
X28487619Y-109724047D02*
X28487619Y-109628809D01*
X28440000Y-109533571D01*
X28392380Y-109485952D01*
X28297142Y-109438333D01*
X28106666Y-109390714D01*
X27868571Y-109390714D01*
X27678095Y-109438333D01*
X27582857Y-109485952D01*
X27535238Y-109533571D01*
X27487619Y-109628809D01*
X27487619Y-109724047D01*
X27535238Y-109819285D01*
X27582857Y-109866904D01*
X27678095Y-109914523D01*
X27868571Y-109962142D01*
X28106666Y-109962142D01*
X28297142Y-109914523D01*
X28392380Y-109866904D01*
X28440000Y-109819285D01*
X28487619Y-109724047D01*
X30313333Y-110819285D02*
X30313333Y-110343095D01*
X30027619Y-110914523D02*
X31027619Y-110581190D01*
X30027619Y-110247857D01*
X30027619Y-109390714D02*
X30027619Y-109962142D01*
X30027619Y-109676428D02*
X31027619Y-109676428D01*
X30884761Y-109771666D01*
X30789523Y-109866904D01*
X30741904Y-109962142D01*
X32853333Y-110819285D02*
X32853333Y-110343095D01*
X32567619Y-110914523D02*
X33567619Y-110581190D01*
X32567619Y-110247857D01*
X33472380Y-109962142D02*
X33520000Y-109914523D01*
X33567619Y-109819285D01*
X33567619Y-109581190D01*
X33520000Y-109485952D01*
X33472380Y-109438333D01*
X33377142Y-109390714D01*
X33281904Y-109390714D01*
X33139047Y-109438333D01*
X32567619Y-110009761D01*
X32567619Y-109390714D01*
X35393333Y-110819285D02*
X35393333Y-110343095D01*
X35107619Y-110914523D02*
X36107619Y-110581190D01*
X35107619Y-110247857D01*
X36107619Y-110009761D02*
X36107619Y-109390714D01*
X35726666Y-109724047D01*
X35726666Y-109581190D01*
X35679047Y-109485952D01*
X35631428Y-109438333D01*
X35536190Y-109390714D01*
X35298095Y-109390714D01*
X35202857Y-109438333D01*
X35155238Y-109485952D01*
X35107619Y-109581190D01*
X35107619Y-109866904D01*
X35155238Y-109962142D01*
X35202857Y-110009761D01*
X37933333Y-110819285D02*
X37933333Y-110343095D01*
X37647619Y-110914523D02*
X38647619Y-110581190D01*
X37647619Y-110247857D01*
X38314285Y-109485952D02*
X37647619Y-109485952D01*
X38695238Y-109724047D02*
X37980952Y-109962142D01*
X37980952Y-109343095D01*
X41140000Y-110866904D02*
X41187619Y-110962142D01*
X41187619Y-111105000D01*
X41140000Y-111247857D01*
X41044761Y-111343095D01*
X40949523Y-111390714D01*
X40759047Y-111438333D01*
X40616190Y-111438333D01*
X40425714Y-111390714D01*
X40330476Y-111343095D01*
X40235238Y-111247857D01*
X40187619Y-111105000D01*
X40187619Y-111009761D01*
X40235238Y-110866904D01*
X40282857Y-110819285D01*
X40616190Y-110819285D01*
X40616190Y-111009761D01*
X40187619Y-110390714D02*
X41187619Y-110390714D01*
X40187619Y-109819285D01*
X41187619Y-109819285D01*
X40187619Y-109343095D02*
X41187619Y-109343095D01*
X41187619Y-109105000D01*
X41140000Y-108962142D01*
X41044761Y-108866904D01*
X40949523Y-108819285D01*
X40759047Y-108771666D01*
X40616190Y-108771666D01*
X40425714Y-108819285D01*
X40330476Y-108866904D01*
X40235238Y-108962142D01*
X40187619Y-109105000D01*
X40187619Y-109343095D01*
X43013333Y-110819285D02*
X43013333Y-110343095D01*
X42727619Y-110914523D02*
X43727619Y-110581190D01*
X42727619Y-110247857D01*
X43727619Y-109438333D02*
X43727619Y-109914523D01*
X43251428Y-109962142D01*
X43299047Y-109914523D01*
X43346666Y-109819285D01*
X43346666Y-109581190D01*
X43299047Y-109485952D01*
X43251428Y-109438333D01*
X43156190Y-109390714D01*
X42918095Y-109390714D01*
X42822857Y-109438333D01*
X42775238Y-109485952D01*
X42727619Y-109581190D01*
X42727619Y-109819285D01*
X42775238Y-109914523D01*
X42822857Y-109962142D01*
X45553333Y-110819285D02*
X45553333Y-110343095D01*
X45267619Y-110914523D02*
X46267619Y-110581190D01*
X45267619Y-110247857D01*
X46267619Y-109485952D02*
X46267619Y-109676428D01*
X46220000Y-109771666D01*
X46172380Y-109819285D01*
X46029523Y-109914523D01*
X45839047Y-109962142D01*
X45458095Y-109962142D01*
X45362857Y-109914523D01*
X45315238Y-109866904D01*
X45267619Y-109771666D01*
X45267619Y-109581190D01*
X45315238Y-109485952D01*
X45362857Y-109438333D01*
X45458095Y-109390714D01*
X45696190Y-109390714D01*
X45791428Y-109438333D01*
X45839047Y-109485952D01*
X45886666Y-109581190D01*
X45886666Y-109771666D01*
X45839047Y-109866904D01*
X45791428Y-109914523D01*
X45696190Y-109962142D01*
X48093333Y-110819285D02*
X48093333Y-110343095D01*
X47807619Y-110914523D02*
X48807619Y-110581190D01*
X47807619Y-110247857D01*
X48807619Y-110009761D02*
X48807619Y-109343095D01*
X47807619Y-109771666D01*
X50633333Y-110819285D02*
X50633333Y-110343095D01*
X50347619Y-110914523D02*
X51347619Y-110581190D01*
X50347619Y-110247857D01*
X50919047Y-109771666D02*
X50966666Y-109866904D01*
X51014285Y-109914523D01*
X51109523Y-109962142D01*
X51157142Y-109962142D01*
X51252380Y-109914523D01*
X51300000Y-109866904D01*
X51347619Y-109771666D01*
X51347619Y-109581190D01*
X51300000Y-109485952D01*
X51252380Y-109438333D01*
X51157142Y-109390714D01*
X51109523Y-109390714D01*
X51014285Y-109438333D01*
X50966666Y-109485952D01*
X50919047Y-109581190D01*
X50919047Y-109771666D01*
X50871428Y-109866904D01*
X50823809Y-109914523D01*
X50728571Y-109962142D01*
X50538095Y-109962142D01*
X50442857Y-109914523D01*
X50395238Y-109866904D01*
X50347619Y-109771666D01*
X50347619Y-109581190D01*
X50395238Y-109485952D01*
X50442857Y-109438333D01*
X50538095Y-109390714D01*
X50728571Y-109390714D01*
X50823809Y-109438333D01*
X50871428Y-109485952D01*
X50919047Y-109581190D01*
X53173333Y-110819285D02*
X53173333Y-110343095D01*
X52887619Y-110914523D02*
X53887619Y-110581190D01*
X52887619Y-110247857D01*
X52887619Y-109866904D02*
X52887619Y-109676428D01*
X52935238Y-109581190D01*
X52982857Y-109533571D01*
X53125714Y-109438333D01*
X53316190Y-109390714D01*
X53697142Y-109390714D01*
X53792380Y-109438333D01*
X53840000Y-109485952D01*
X53887619Y-109581190D01*
X53887619Y-109771666D01*
X53840000Y-109866904D01*
X53792380Y-109914523D01*
X53697142Y-109962142D01*
X53459047Y-109962142D01*
X53363809Y-109914523D01*
X53316190Y-109866904D01*
X53268571Y-109771666D01*
X53268571Y-109581190D01*
X53316190Y-109485952D01*
X53363809Y-109438333D01*
X53459047Y-109390714D01*
X56380000Y-110866904D02*
X56427619Y-110962142D01*
X56427619Y-111105000D01*
X56380000Y-111247857D01*
X56284761Y-111343095D01*
X56189523Y-111390714D01*
X55999047Y-111438333D01*
X55856190Y-111438333D01*
X55665714Y-111390714D01*
X55570476Y-111343095D01*
X55475238Y-111247857D01*
X55427619Y-111105000D01*
X55427619Y-111009761D01*
X55475238Y-110866904D01*
X55522857Y-110819285D01*
X55856190Y-110819285D01*
X55856190Y-111009761D01*
X55427619Y-110390714D02*
X56427619Y-110390714D01*
X55427619Y-109819285D01*
X56427619Y-109819285D01*
X55427619Y-109343095D02*
X56427619Y-109343095D01*
X56427619Y-109105000D01*
X56380000Y-108962142D01*
X56284761Y-108866904D01*
X56189523Y-108819285D01*
X55999047Y-108771666D01*
X55856190Y-108771666D01*
X55665714Y-108819285D01*
X55570476Y-108866904D01*
X55475238Y-108962142D01*
X55427619Y-109105000D01*
X55427619Y-109343095D01*
X57967619Y-111200238D02*
X57967619Y-111676428D01*
X58967619Y-111676428D01*
X58062857Y-110295476D02*
X58015238Y-110343095D01*
X57967619Y-110485952D01*
X57967619Y-110581190D01*
X58015238Y-110724047D01*
X58110476Y-110819285D01*
X58205714Y-110866904D01*
X58396190Y-110914523D01*
X58539047Y-110914523D01*
X58729523Y-110866904D01*
X58824761Y-110819285D01*
X58920000Y-110724047D01*
X58967619Y-110581190D01*
X58967619Y-110485952D01*
X58920000Y-110343095D01*
X58872380Y-110295476D01*
X58253333Y-109914523D02*
X58253333Y-109438333D01*
X57967619Y-110009761D02*
X58967619Y-109676428D01*
X57967619Y-109343095D01*
X58015238Y-109057380D02*
X57967619Y-108914523D01*
X57967619Y-108676428D01*
X58015238Y-108581190D01*
X58062857Y-108533571D01*
X58158095Y-108485952D01*
X58253333Y-108485952D01*
X58348571Y-108533571D01*
X58396190Y-108581190D01*
X58443809Y-108676428D01*
X58491428Y-108866904D01*
X58539047Y-108962142D01*
X58586666Y-109009761D01*
X58681904Y-109057380D01*
X58777142Y-109057380D01*
X58872380Y-109009761D01*
X58920000Y-108962142D01*
X58967619Y-108866904D01*
X58967619Y-108628809D01*
X58920000Y-108485952D01*
X60507619Y-111795476D02*
X61507619Y-111795476D01*
X61031428Y-111795476D02*
X61031428Y-111224047D01*
X60507619Y-111224047D02*
X61507619Y-111224047D01*
X60602857Y-110176428D02*
X60555238Y-110224047D01*
X60507619Y-110366904D01*
X60507619Y-110462142D01*
X60555238Y-110605000D01*
X60650476Y-110700238D01*
X60745714Y-110747857D01*
X60936190Y-110795476D01*
X61079047Y-110795476D01*
X61269523Y-110747857D01*
X61364761Y-110700238D01*
X61460000Y-110605000D01*
X61507619Y-110462142D01*
X61507619Y-110366904D01*
X61460000Y-110224047D01*
X61412380Y-110176428D01*
X60793333Y-109795476D02*
X60793333Y-109319285D01*
X60507619Y-109890714D02*
X61507619Y-109557380D01*
X60507619Y-109224047D01*
X60555238Y-108938333D02*
X60507619Y-108795476D01*
X60507619Y-108557380D01*
X60555238Y-108462142D01*
X60602857Y-108414523D01*
X60698095Y-108366904D01*
X60793333Y-108366904D01*
X60888571Y-108414523D01*
X60936190Y-108462142D01*
X60983809Y-108557380D01*
X61031428Y-108747857D01*
X61079047Y-108843095D01*
X61126666Y-108890714D01*
X61221904Y-108938333D01*
X61317142Y-108938333D01*
X61412380Y-108890714D01*
X61460000Y-108843095D01*
X61507619Y-108747857D01*
X61507619Y-108509761D01*
X61460000Y-108366904D01*
X64047619Y-110985952D02*
X63047619Y-110747857D01*
X63761904Y-110557380D01*
X63047619Y-110366904D01*
X64047619Y-110128809D01*
X63571428Y-109747857D02*
X63571428Y-109414523D01*
X63047619Y-109271666D02*
X63047619Y-109747857D01*
X64047619Y-109747857D01*
X64047619Y-109271666D01*
X65587619Y-111176428D02*
X66063809Y-111509761D01*
X65587619Y-111747857D02*
X66587619Y-111747857D01*
X66587619Y-111366904D01*
X66540000Y-111271666D01*
X66492380Y-111224047D01*
X66397142Y-111176428D01*
X66254285Y-111176428D01*
X66159047Y-111224047D01*
X66111428Y-111271666D01*
X66063809Y-111366904D01*
X66063809Y-111747857D01*
X65873333Y-110795476D02*
X65873333Y-110319285D01*
X65587619Y-110890714D02*
X66587619Y-110557380D01*
X65587619Y-110224047D01*
X65635238Y-109938333D02*
X65587619Y-109795476D01*
X65587619Y-109557380D01*
X65635238Y-109462142D01*
X65682857Y-109414523D01*
X65778095Y-109366904D01*
X65873333Y-109366904D01*
X65968571Y-109414523D01*
X66016190Y-109462142D01*
X66063809Y-109557380D01*
X66111428Y-109747857D01*
X66159047Y-109843095D01*
X66206666Y-109890714D01*
X66301904Y-109938333D01*
X66397142Y-109938333D01*
X66492380Y-109890714D01*
X66540000Y-109843095D01*
X66587619Y-109747857D01*
X66587619Y-109509761D01*
X66540000Y-109366904D01*
X66587619Y-108747857D02*
X66587619Y-108652619D01*
X66540000Y-108557380D01*
X66492380Y-108509761D01*
X66397142Y-108462142D01*
X66206666Y-108414523D01*
X65968571Y-108414523D01*
X65778095Y-108462142D01*
X65682857Y-108509761D01*
X65635238Y-108557380D01*
X65587619Y-108652619D01*
X65587619Y-108747857D01*
X65635238Y-108843095D01*
X65682857Y-108890714D01*
X65778095Y-108938333D01*
X65968571Y-108985952D01*
X66206666Y-108985952D01*
X66397142Y-108938333D01*
X66492380Y-108890714D01*
X66540000Y-108843095D01*
X66587619Y-108747857D01*
X68127619Y-111176428D02*
X68603809Y-111509761D01*
X68127619Y-111747857D02*
X69127619Y-111747857D01*
X69127619Y-111366904D01*
X69080000Y-111271666D01*
X69032380Y-111224047D01*
X68937142Y-111176428D01*
X68794285Y-111176428D01*
X68699047Y-111224047D01*
X68651428Y-111271666D01*
X68603809Y-111366904D01*
X68603809Y-111747857D01*
X68413333Y-110795476D02*
X68413333Y-110319285D01*
X68127619Y-110890714D02*
X69127619Y-110557380D01*
X68127619Y-110224047D01*
X68175238Y-109938333D02*
X68127619Y-109795476D01*
X68127619Y-109557380D01*
X68175238Y-109462142D01*
X68222857Y-109414523D01*
X68318095Y-109366904D01*
X68413333Y-109366904D01*
X68508571Y-109414523D01*
X68556190Y-109462142D01*
X68603809Y-109557380D01*
X68651428Y-109747857D01*
X68699047Y-109843095D01*
X68746666Y-109890714D01*
X68841904Y-109938333D01*
X68937142Y-109938333D01*
X69032380Y-109890714D01*
X69080000Y-109843095D01*
X69127619Y-109747857D01*
X69127619Y-109509761D01*
X69080000Y-109366904D01*
X68127619Y-108414523D02*
X68127619Y-108985952D01*
X68127619Y-108700238D02*
X69127619Y-108700238D01*
X68984761Y-108795476D01*
X68889523Y-108890714D01*
X68841904Y-108985952D01*
X70667619Y-110890714D02*
X70667619Y-111462142D01*
X70667619Y-111176428D02*
X71667619Y-111176428D01*
X71524761Y-111271666D01*
X71429523Y-111366904D01*
X71381904Y-111462142D01*
X70667619Y-110462142D02*
X71667619Y-110462142D01*
X70953333Y-110128809D01*
X71667619Y-109795476D01*
X70667619Y-109795476D01*
X71191428Y-108985952D02*
X71143809Y-108843095D01*
X71096190Y-108795476D01*
X71000952Y-108747857D01*
X70858095Y-108747857D01*
X70762857Y-108795476D01*
X70715238Y-108843095D01*
X70667619Y-108938333D01*
X70667619Y-109319285D01*
X71667619Y-109319285D01*
X71667619Y-108985952D01*
X71620000Y-108890714D01*
X71572380Y-108843095D01*
X71477142Y-108795476D01*
X71381904Y-108795476D01*
X71286666Y-108843095D01*
X71239047Y-108890714D01*
X71191428Y-108985952D01*
X71191428Y-109319285D01*
X73255238Y-110890714D02*
X73207619Y-110747857D01*
X73207619Y-110509761D01*
X73255238Y-110414523D01*
X73302857Y-110366904D01*
X73398095Y-110319285D01*
X73493333Y-110319285D01*
X73588571Y-110366904D01*
X73636190Y-110414523D01*
X73683809Y-110509761D01*
X73731428Y-110700238D01*
X73779047Y-110795476D01*
X73826666Y-110843095D01*
X73921904Y-110890714D01*
X74017142Y-110890714D01*
X74112380Y-110843095D01*
X74160000Y-110795476D01*
X74207619Y-110700238D01*
X74207619Y-110462142D01*
X74160000Y-110319285D01*
X73731428Y-109557380D02*
X73683809Y-109414523D01*
X73636190Y-109366904D01*
X73540952Y-109319285D01*
X73398095Y-109319285D01*
X73302857Y-109366904D01*
X73255238Y-109414523D01*
X73207619Y-109509761D01*
X73207619Y-109890714D01*
X74207619Y-109890714D01*
X74207619Y-109557380D01*
X74160000Y-109462142D01*
X74112380Y-109414523D01*
X74017142Y-109366904D01*
X73921904Y-109366904D01*
X73826666Y-109414523D01*
X73779047Y-109462142D01*
X73731428Y-109557380D01*
X73731428Y-109890714D01*
X76747619Y-111438333D02*
X75747619Y-111105000D01*
X76747619Y-110771666D01*
X75842857Y-109866904D02*
X75795238Y-109914523D01*
X75747619Y-110057380D01*
X75747619Y-110152619D01*
X75795238Y-110295476D01*
X75890476Y-110390714D01*
X75985714Y-110438333D01*
X76176190Y-110485952D01*
X76319047Y-110485952D01*
X76509523Y-110438333D01*
X76604761Y-110390714D01*
X76700000Y-110295476D01*
X76747619Y-110152619D01*
X76747619Y-110057380D01*
X76700000Y-109914523D01*
X76652380Y-109866904D01*
X75842857Y-108866904D02*
X75795238Y-108914523D01*
X75747619Y-109057380D01*
X75747619Y-109152619D01*
X75795238Y-109295476D01*
X75890476Y-109390714D01*
X75985714Y-109438333D01*
X76176190Y-109485952D01*
X76319047Y-109485952D01*
X76509523Y-109438333D01*
X76604761Y-109390714D01*
X76700000Y-109295476D01*
X76747619Y-109152619D01*
X76747619Y-109057380D01*
X76700000Y-108914523D01*
X76652380Y-108866904D01*
%TD*%
M02*
