M48
; DRILL file {KiCad 5.99.0+really5.1.10+dfsg1-1} date Mon Dec 13 05:21:56 2021
; FORMAT={-:-/ absolute / inch / decimal}
; #@! TF.CreationDate,2021-12-13T05:21:56+01:00
; #@! TF.GenerationSoftware,Kicad,Pcbnew,5.99.0+really5.1.10+dfsg1-1
; #@! TF.FileFunction,Plated,1,2,PTH
FMAT,2
INCH
T1C0.0157
%
G90
G05
T1
X0.95Y-4.1
X1.025Y-3.15
X1.1857Y-4.05
X1.19Y-4.1749
X1.3165Y-3.5
X1.3165Y-4.2525
X1.3719Y-4.1728
X1.3862Y-3.2189
X1.4339Y-4.2616
X1.5287Y-4.2015
X1.5465Y-4.4109
X1.586Y-3.8986
X1.586Y-4.2532
X1.5863Y-3.3392
X1.7142Y-3.4972
X1.7165Y-3.2523
X1.7166Y-3.5786
X1.7221Y-4.1508
X1.7777Y-4.1037
X1.9158Y-4.0636
X1.991Y-4.0212
X2.0613Y-4.0006
X2.111Y-4.3336
X2.1886Y-3.7904
X2.189Y-3.4913
X2.199Y-3.8712
X2.2141Y-3.5984
X2.2293Y-3.3525
X2.2295Y-3.8426
X2.2618Y-3.25
X2.2642Y-3.9272
X2.3001Y-3.8999
X2.8284Y-3.175
X2.943Y-3.2809
X3.075Y-3.525
X3.1Y-4.125
T0
M30
